<?xml version="1.0" encoding="utf-8"?>
<!-- Generator: Adobe Illustrator 19.1.0, SVG Export Plug-In . SVG Version: 6.00 Build 0)  -->
<svg version="1.1" id="Layer_1" xmlns="http://www.w3.org/2000/svg" xmlns:xlink="http://www.w3.org/1999/xlink" x="0px" y="0px"
	 width="196.995px" height="172px" viewBox="26 -14 196.995 172" enable-background="new 26 -14 196.995 172" xml:space="preserve">
<path fill="#FAF8E9" d="M107.944,12.166c0,0,23.725-4.314,43.31,5.767c0,0-0.431,0.973,4.091,0.637
	c4.522-0.336,20.734-5.552,37.41,5.648c16.676,11.2,14.844,27.806,14.844,27.806c2.332,0.648,10.005,3.091,13.379,10.186
	c0.435,0.914,1.247,2.85,1.534,5.965c1.006,10.947-5.887,21.153-8.714,24.957c-0.24,0.138-0.479,0.276-0.719,0.415
	c0,0,2.905,8.059,0.363,11.805c-2.542,3.746-4.783,16.346-23.671,17.738c-18.889,1.392-31.663-7.689-33.055-9.929
	c-1.392-2.24-2.543-1.695-3.451-0.726s-15.438,12.048-15.438,12.048s-14.239,10.134-22.46,8.718s-11.926-1.937-19.01-16.164v-7.144
	l-4.419,6.841c0,0-9.433,9.196-19.797,5.449s-17.738-8.899-19.615-15.075c-1.877-6.175-3.693-16.467-0.666-24.277
	c0,0-6.016-14.651-1.615-21.795c4.4-7.144,8.335-11.926,16.751-16.83l8.112-11.926L107.944,12.166z"/>
<path fill="#FAF8E9" d="M103.338-13.052c0,0,1.121,2.744,3.362,3.382c0,0-3.208,1.643-3.362,3.305c0,0-1.662-3.131-3.305-3.15
	C100.033-9.516,102.642-11.12,103.338-13.052z"/>
<polygon fill="#FAF8E9" points="29.753,50.053 26.319,51.015 27.486,54.724 30.886,53.591 "/>
<g>
	<g>
		<defs>
			<rect id="SVGID_1_" x="25.983" y="-14" width="197.012" height="172"/>
		</defs>
		<clipPath id="SVGID_2_">
			<use xlink:href="#SVGID_1_"  overflow="visible"/>
		</clipPath>
		<g id="Method-Cards_7_" clip-path="url(#SVGID_2_)">
			<g id="Method-Cards_5_Brainstorm_VD" transform="translate(-335.000000, -122.000000)">
				<g id="Header_3_">
					<g id="Illustration_15_" transform="translate(290.000000, 86.000000)">
						<g id="Imported-Layers_11_" transform="translate(45.269461, 36.315789)">
							<path id="Fill-2_16_" fill="#DE4E39" d="M157.381,128.154l-1.177,9.472c-0.023,0.178,0.152,0.323,0.331,0.274l2.161-0.58
								c0.123-0.033,0.252,0.022,0.308,0.133l3.031,6.052c0.116,0.228,0.468,0.172,0.501-0.08l1.175-9.47
								c0.023-0.18-0.15-0.324-0.331-0.274l-2.161,0.58c-0.123,0.032-0.252-0.024-0.308-0.135l-3.031-6.052
								C157.765,127.846,157.412,127.902,157.381,128.154"/>
							<path id="Fill-3_25_" fill="#DE4E39" d="M141.064,138.971l-8.533,10.766c-0.16,0.204-0.056,0.499,0.202,0.565l3.378,0.868
								l-0.851,9.806c-0.031,0.358,0.443,0.534,0.67,0.247l8.531-10.766c0.162-0.204,0.056-0.5-0.2-0.565l-3.077-0.79
								c-0.173-0.044-0.291-0.204-0.275-0.378l0.824-9.506C141.765,138.86,141.289,138.684,141.064,138.971"/>
							<path id="Fill-4_20_" fill="#4A514F" d="M78.055,123.361c-2.307,0-4.778-0.363-7.393-1.168
								c-9.045-2.784-15.362-7.613-18.778-14.353c-5.465-10.786-1.733-22.813-0.924-25.128c-3.871-7.772-4.562-15.107-2.059-21.81
								c4.04-10.822,14.98-16.342,16.975-17.274c30.974-54.21,86.624-26.466,87.186-26.18c0.468,0.241,0.645,0.803,0.397,1.253
								c-0.25,0.45-0.832,0.623-1.304,0.384c-2.218-1.136-54.722-27.243-84.74,25.697c-0.1,0.176-0.258,0.317-0.447,0.4
								c-0.121,0.052-12.188,5.429-16.261,16.36c-2.353,6.308-1.627,13.274,2.157,20.702c0.116,0.228,0.131,0.491,0.039,0.728
								c-0.05,0.13-4.872,13.048,0.718,24.066c3.177,6.262,9.109,10.766,17.628,13.389c11.957,3.676,19.731-2.467,22.762-8.849
								c2.906-6.128,2.438-14.833-5.459-19.467c-0.454-0.267-0.597-0.836-0.322-1.273c0.277-0.437,0.869-0.576,1.325-0.31
								c8.899,5.224,9.455,14.972,6.207,21.821C92.91,118.359,86.617,123.361,78.055,123.361"/>
							<path id="Fill-5_20_" fill="#4A514F" d="M116.181,133.516c-0.731,0-1.462-0.032-2.192-0.1
								c-5.652-0.524-10.435-3.079-14.213-7.595c-12.796-15.292,6.443-34.502,6.639-34.693c0.334-0.325,0.881-0.333,1.219-0.012
								c0.34,0.32,0.345,0.846,0.014,1.173c-0.186,0.181-18.363,18.349-6.529,32.491c3.476,4.154,7.863,6.504,13.035,6.983
								c8.62,0.801,17.494-3.665,22.5-7.728c0.912-0.742,1.836-1.501,2.77-2.27c12.758-10.484,27.221-22.371,42.192-12.941
								c0.398,0.251,0.508,0.765,0.248,1.15s-0.798,0.488-1.191,0.239c-13.897-8.752-27.831,2.706-40.128,12.815
								c-0.936,0.77-1.865,1.531-2.78,2.275C132.926,129.234,124.596,133.516,116.181,133.516"/>
							<path id="Fill-6_18_" fill="#4A514F" d="M213.528,92.816c-0.202,0-0.402-0.059-0.576-0.184
								c-0.428-0.306-0.514-0.886-0.196-1.298c7.412-9.569,9.852-18.336,7.252-26.055c-2.879-8.549-11.11-13.041-12.465-13.521
								c-0.071-0.009-0.143-0.024-0.214-0.05c-0.597-0.209-0.639-0.66-0.707-1.403c-0.765-8.434-5.121-28.424-28.955-31.907
								c-14.291-2.085-26.092,0.228-35.064,6.881c-14.383,10.664-16.59,29.006-16.611,29.19c-0.056,0.51-0.528,0.879-1.061,0.821
								c-0.528-0.056-0.911-0.512-0.853-1.021c0.089-0.784,2.322-19.317,17.351-30.458c9.401-6.973,21.682-9.415,36.527-7.244
								c25.185,3.68,29.78,24.708,30.586,33.577c0,0.019,0.002,0.037,0.004,0.056c2.149,0.793,5.459,3.516,5.502,3.553
								c6.858,5.717,16.007,18.346,0.25,38.69C214.111,92.688,213.821,92.816,213.528,92.816"/>
							<path id="Fill-7_21_" fill="#4A514F" d="M186.425,123.703c-6.994,0.002-23.269-1.121-31.374-10.9
								c-0.333-0.4-0.264-0.984,0.152-1.303c0.414-0.319,1.021-0.252,1.352,0.146c9.665,11.656,32.905,10.128,33.142,10.11
								c0.699,0.022,14.56,0.471,21.67-14.418c2.143-4.49,2.351-8.894,0.616-13.091c-4.398-10.646-19.783-16.715-19.937-16.774
								c-0.495-0.191-0.734-0.732-0.535-1.207c0.198-0.476,0.766-0.704,1.254-0.513c0.662,0.258,16.307,6.434,21.008,17.808
								c1.937,4.686,1.714,9.582-0.657,14.551c-7.668,16.064-23.245,15.495-23.396,15.493
								C189.533,123.622,188.318,123.703,186.425,123.703"/>
							<path id="Fill-8-Copy_1_" fill="#4A514F" d="M60.45,48.978c-0.279,0-0.558-0.117-0.749-0.345
								c-0.333-0.399-0.27-0.982,0.146-1.303c6.936-5.387,14.096-5.448,14.397-5.448c0.532,0,0.961,0.413,0.963,0.925
								c0,0.512-0.429,0.927-0.961,0.929c-0.067,0-6.807,0.08-13.191,5.036C60.877,48.911,60.663,48.978,60.45,48.978"/>
							<path id="Fill-9_16_" fill="#4A514F" d="M165.733,58.308c-0.179,0-0.358-0.046-0.52-0.146
								c-0.447-0.276-0.58-0.849-0.291-1.279c1.516-2.286,3.482-3.691,5.843-4.173c3.114-0.632,6.064,0.528,7.46,1.225
								c6.915-9.498,20.238-5.518,20.376-5.476c0.506,0.158,0.784,0.678,0.62,1.166c-0.16,0.488-0.705,0.753-1.209,0.601
								c-0.514-0.158-12.716-3.78-18.662,5.433c-0.137,0.213-0.358,0.361-0.61,0.415c-0.247,0.056-0.518,0.007-0.736-0.13
								c-0.037-0.022-3.432-2.132-6.852-1.418c-1.831,0.378-3.382,1.505-4.608,3.353C166.361,58.156,166.049,58.308,165.733,58.308"
								/>
							<path id="Fill-9_15_" fill="#4A514F" d="M63.307,66.372c-0.086-0.042-0.154-0.098-0.193-0.165
								c-0.107-0.185,0.052-0.383,0.359-0.44c1.618-0.308,3.11-0.254,4.432,0.16c1.742,0.547,2.707,1.577,3.106,2.107
								c7.022-1.135,11.87,3.148,11.92,3.193c0.182,0.165,0.112,0.381-0.156,0.484c-0.267,0.104-0.632,0.053-0.815-0.109
								c-0.186-0.166-4.635-4.082-11.08-2.803c-0.149,0.03-0.313,0.021-0.455-0.023c-0.14-0.042-0.252-0.119-0.303-0.21
								c-0.009-0.015-0.818-1.424-2.738-2.02c-1.027-0.32-2.211-0.357-3.52-0.108C63.668,66.475,63.458,66.446,63.307,66.372"/>
						</g>
					</g>
				</g>
			</g>
		</g>
	</g>
	<g>
		<defs>
			<rect id="SVGID_3_" x="25.983" y="-14" width="197.012" height="172"/>
		</defs>
		<clipPath id="SVGID_4_">
			<use xlink:href="#SVGID_3_"  overflow="visible"/>
		</clipPath>
		<g id="Method-Cards_6_" clip-path="url(#SVGID_4_)">
			<g id="Method-Cards_5_Brainstorm_VD_1_" transform="translate(-360.000000, -116.000000)">
				<g id="Header_2_">
					<g id="Illustration_14_" transform="translate(290.000000, 86.000000)">
						
							<g id="Imported-Layers_10_" transform="translate(93.634735, 60.797667) rotate(-19.000000) translate(-93.634735, -60.797667) translate(74.134735, 29.297667)">
							<path id="Fill-1_26_" fill="#4B524F" d="M93.346,77.669l-14.177,0c-1.425,0-2.584-1.177-2.584-2.622s1.159-2.622,2.584-2.622
								l14.177,0c1.425,0,2.585,1.177,2.585,2.622S94.771,77.669,93.346,77.669L93.346,77.669z M79.169,73.949
								c-0.597,0-1.081,0.494-1.081,1.098c0,0.605,0.484,1.098,1.081,1.098l14.177,0c0.597,0,1.082-0.492,1.082-1.098
								c0-0.604-0.486-1.098-1.082-1.098L79.169,73.949L79.169,73.949z"/>
							<path id="Fill-2_15_" fill="#4B524F" d="M93.346,85.588H79.169c-1.425,0-2.584-1.175-2.584-2.621
								c0-1.445,1.159-2.621,2.584-2.621l14.177,0c1.425,0,2.585,1.175,2.585,2.621S94.771,85.588,93.346,85.588L93.346,85.588z
								 M79.169,81.872c-0.597,0-1.081,0.492-1.081,1.096c0,0.605,0.484,1.096,1.081,1.096h14.177c0.597,0,1.082-0.491,1.082-1.096
								c0-0.604-0.485-1.096-1.082-1.096H79.169L79.169,81.872z"/>
							<path id="Fill-3_24_" fill="#4B524F" d="M95.322,81.678l-18.13,0c-1.423,0-2.584-1.177-2.584-2.622
								c0-1.543,1.16-2.718,2.584-2.718l18.13,0c1.425,0,2.584,1.175,2.584,2.619C97.906,80.501,96.747,81.678,95.322,81.678
								L95.322,81.678z M77.192,77.862c-0.595,0-1.081,0.491-1.081,1.095c0,0.703,0.486,1.197,1.081,1.197l18.13,0
								c0.595,0,1.081-0.494,1.081-1.098c0-0.703-0.486-1.194-1.081-1.194L77.192,77.862L77.192,77.862z"/>
							<path id="Fill-4_19_" fill="#4B524F" d="M86.257,89.657c-2.627,0-4.763-2.168-4.763-4.831v-0.762h9.527v0.762
								C91.02,87.489,88.885,89.657,86.257,89.657L86.257,89.657z M83.084,85.588c0.341,1.457,1.634,2.544,3.173,2.544
								s2.832-1.087,3.173-2.544H83.084L83.084,85.588z"/>
							<path id="Fill-5_19_" fill="#FDF9E9" d="M104.808,47.257c0-11.101-9.48-19.957-20.678-18.695
								c-8.201,0.925-14.977,7.499-16.206,15.774c-0.917,6.177,1.133,11.883,4.921,15.896c3.238,3.433,5.168,7.917,5.168,12.668
								l16.489-0.002c0-4.599,1.659-9.106,4.869-12.356C102.728,57.143,104.808,52.451,104.808,47.257"/>
							<path id="Fill-6_17_" fill="#4B524F" d="M94.502,73.663l-17.241,0v-0.762c0-4.438-1.762-8.749-4.96-12.141
								c-4.161-4.409-6.026-10.437-5.121-16.537c1.272-8.552,8.365-15.457,16.868-16.417c0.734-0.082,1.478-0.125,2.21-0.125
								c10.643,0,19.303,8.782,19.303,19.577c0,5.22-2.01,10.13-5.658,13.825c-2.955,2.991-4.649,7.298-4.649,11.816v0.762
								L94.502,73.663L94.502,73.663z M78.749,72.138l15.016,0c0.18-4.642,2.008-9.029,5.074-12.133
								c3.364-3.409,5.217-7.933,5.217-12.748c0-9.955-7.986-18.053-17.8-18.053c-0.678,0-1.365,0.038-2.044,0.116
								c-7.837,0.884-14.376,7.247-15.547,15.129c-0.836,5.631,0.885,11.193,4.721,15.255C76.672,63.188,78.56,67.577,78.749,72.138
								L78.749,72.138z"/>
							<path id="Fill-7_20_" fill="#CE493A" d="M89.489,54.355c0,2.035-1.626,3.685-3.633,3.685c-2.007,0-3.633-1.649-3.633-3.685
								c0-2.035,1.626-3.685,3.633-3.685C87.862,50.671,89.489,52.32,89.489,54.355"/>
							<path id="Fill-8_14_" fill="#CE493A" d="M85.856,73.187c-0.415,0-0.752-0.34-0.752-0.762l0-14.385
								c0-0.422,0.337-0.762,0.752-0.762c0.415,0,0.752,0.34,0.752,0.762l0,14.385C86.607,72.847,86.271,73.187,85.856,73.187"/>
						</g>
					</g>
				</g>
			</g>
		</g>
	</g>
	<g>
		<defs>
			<rect id="SVGID_5_" x="25.983" y="-14" width="197.012" height="172"/>
		</defs>
		<clipPath id="SVGID_6_">
			<use xlink:href="#SVGID_5_"  overflow="visible"/>
		</clipPath>
		<path clip-path="url(#SVGID_6_)" fill="#404139" d="M100.943-9.617c1.033,0.525,1.87,1.39,2.371,2.465
			c0.501-1.073,1.336-1.941,2.371-2.465c-1.035-0.523-1.868-1.388-2.371-2.464C102.81-11.005,101.974-10.138,100.943-9.617z
			 M103.312-5.484c-0.235,0-0.439-0.148-0.522-0.376l-0.165-0.47c-0.426-1.192-1.328-2.129-2.477-2.572l-0.447-0.171
			c-0.185-0.071-0.365-0.336-0.365-0.545c0-0.244,0.142-0.456,0.361-0.543l0.45-0.173c1.149-0.44,2.051-1.376,2.477-2.572
			l0.165-0.464c0.068-0.195,0.325-0.381,0.522-0.381c0.237,0,0.443,0.149,0.526,0.378v0.003l0.167,0.466
			c0.424,1.193,1.326,2.129,2.473,2.572l0.448,0.173c0.185,0.071,0.365,0.336,0.365,0.543c0,0.246-0.142,0.458-0.361,0.545
			L106.475-8.9c-1.147,0.444-2.049,1.38-2.471,2.574l-0.167,0.466C103.77-5.669,103.512-5.484,103.312-5.484z"/>
	</g>
	<g>
		<defs>
			<rect id="SVGID_7_" x="25.983" y="-14" width="197.012" height="172"/>
		</defs>
		<clipPath id="SVGID_8_">
			<use xlink:href="#SVGID_7_"  overflow="visible"/>
		</clipPath>
		<path clip-path="url(#SVGID_8_)" fill="#404139" d="M26.907,51.274l0.797,2.824l2.716-0.83l-0.799-2.822L26.907,51.274z
			 M27.431,55.04c-0.066,0-0.134-0.018-0.194-0.052c-0.094-0.054-0.163-0.145-0.194-0.25l-1.027-3.629
			c-0.061-0.222,0.06-0.457,0.275-0.522l3.491-1.065c0.212-0.066,0.438,0.06,0.503,0.284l1.027,3.629
			c0.031,0.106,0.018,0.22-0.032,0.319c-0.053,0.097-0.139,0.17-0.243,0.202l-3.493,1.068C27.508,55.035,27.468,55.04,27.431,55.04z
			"/>
	</g>
</g>
</svg>
