<?xml version="1.0" encoding="utf-8"?>
<!-- Generator: Adobe Illustrator 19.1.0, SVG Export Plug-In . SVG Version: 6.00 Build 0)  -->
<svg version="1.1" id="Layer_1" xmlns="http://www.w3.org/2000/svg" xmlns:xlink="http://www.w3.org/1999/xlink" x="0px" y="0px"
	 width="249px" height="192.002px" viewBox="0 0 249 192.002" enable-background="new 0 0 249 192.002" xml:space="preserve">
<g>
	<defs>
		<rect id="SVGID_5_" y="-0.001" width="249" height="192.003"/>
	</defs>
	<clipPath id="SVGID_2_">
		<use xlink:href="#SVGID_5_"  overflow="visible"/>
	</clipPath>
	<ellipse clip-path="url(#SVGID_2_)" fill="#FFFFFF" cx="13.452" cy="158.67" rx="8.29" ry="8.131"/>
	<circle clip-path="url(#SVGID_2_)" fill="#FFFFFF" cx="230.032" cy="47.274" r="18.432"/>
	<path clip-path="url(#SVGID_2_)" fill="#FFFFFF" d="M73.581,0.541c0,0,5.271,8.636,6.731,8.891
		c1.461,0.254,1.619-6.128,1.524-6.668c-0.095-0.54-1.969-2.064-3.239-2.096S73.835,0.414,73.581,0.541z"/>
	<g id="UI-Kit_16_" clip-path="url(#SVGID_2_)">
		<g id="_x35_-Illustrations_16_" transform="translate(-3203.000000, -1194.000000)">
			<g id="Enterprise---Configuration" transform="translate(3203.000000, 1193.000000)">
				<g id="planet-_x23_2" transform="translate(210.627145, 29.848863)">
					<path id="Stroke-2_2_" fill="#E2E2E2" d="M13.062,1.896c0.06,0.042,0.175,0.124,0.337,0.243
						c0.271,0.199,0.573,0.427,0.898,0.682c0.93,0.728,1.86,1.521,2.727,2.35c1.335,1.276,2.394,2.518,3.073,3.673
						c0.913,1.555,1.079,2.847,0.41,3.844c-0.917,1.367-2.754,1.755-7.671,2.029c-0.29,0.016-0.422,0.023-0.58,0.032
						c-6.216,0.354-8.765,1.213-9.306,4.365c-0.164,0.955,0.247,1.95,1.14,3.051c0.622,0.767,1.393,1.506,2.66,2.609
						c3.074,2.674,3.697,3.333,3.567,4.049c-0.128,0.7-0.766,1.295-1.774,1.768c-0.42,0.197-0.873,0.358-1.326,0.484
						c-0.272,0.076-0.481,0.123-0.596,0.144c-0.204,0.037-0.338,0.233-0.301,0.437s0.233,0.338,0.437,0.301
						c0.136-0.025,0.367-0.077,0.662-0.159c0.491-0.137,0.982-0.311,1.443-0.528c1.205-0.565,2.011-1.318,2.193-2.312
						c0.21-1.153-0.309-1.701-3.813-4.75c-1.236-1.075-1.982-1.792-2.569-2.515c-0.77-0.949-1.103-1.755-0.983-2.451
						c0.452-2.633,2.759-3.41,8.61-3.743c0.158-0.009,0.29-0.016,0.579-0.032c5.216-0.29,7.135-0.696,8.252-2.359
						c0.861-1.283,0.658-2.865-0.386-4.642c-0.719-1.225-1.82-2.516-3.201-3.836c-0.886-0.847-1.834-1.655-2.782-2.398
						c-0.332-0.26-0.64-0.493-0.917-0.697c-0.167-0.122-0.287-0.208-0.352-0.253c-0.17-0.118-0.404-0.077-0.522,0.093
						C12.85,1.544,12.892,1.778,13.062,1.896L13.062,1.896z M24.575,0.844c-0.144,0.039-0.391,0.112-0.707,0.218
						c-0.526,0.176-1.053,0.381-1.547,0.611c-1.461,0.683-2.363,1.449-2.407,2.386c-0.074,1.611,1.186,2.11,4.941,2.73
						c0.173,0.029,0.173,0.029,0.346,0.057c3.518,0.584,4.769,1.139,4.655,2.458c-0.115,1.338-0.836,1.804-2.836,2.247
						c-0.111,0.025-0.111,0.025-0.223,0.049c-2.13,0.468-2.944,0.905-3.172,2.255c-0.151,0.89,0.303,1.501,1.217,1.862
						c0.629,0.248,1.284,0.361,2.794,0.539c0.199,0.023,0.199,0.023,0.398,0.047c2.787,0.335,3.817,0.778,3.775,1.942
						c-0.025,0.681-0.673,1.057-2.09,1.182c-1.172,0.103-2.267,0.05-5.382-0.196c-0.627-0.05-1.011-0.079-1.417-0.108
						c-6.253-0.444-9.21,0.149-9.649,3.069c-0.313,2.077,1.289,2.84,6.038,3.869c0.334,0.072,0.51,0.11,0.668,0.145
						c3.932,0.857,5.598,1.558,6.045,2.912c0.532,1.612-0.237,2.783-2.424,4.48c-0.08,0.062-0.883,0.675-1.106,0.852
						c-0.41,0.324-0.714,0.589-0.966,0.848c-0.557,0.575-0.836,1.118-0.79,1.703c0.016,0.206,0.197,0.361,0.403,0.345
						c0.206-0.016,0.361-0.197,0.345-0.403c-0.026-0.328,0.159-0.687,0.581-1.123c0.224-0.231,0.506-0.477,0.892-0.782
						c0.217-0.172,1.015-0.781,1.1-0.847c2.417-1.875,3.343-3.286,2.676-5.307c-0.573-1.734-2.358-2.486-6.598-3.41
						c-0.159-0.035-0.335-0.073-0.669-0.145c-4.271-0.926-5.672-1.592-5.455-3.024c0.348-2.308,3.029-2.846,8.855-2.433
						c0.404,0.029,0.786,0.058,1.411,0.107c3.166,0.251,4.276,0.304,5.508,0.196c1.748-0.154,2.731-0.724,2.774-1.902
						c0.065-1.768-1.242-2.33-4.435-2.714c-0.2-0.024-0.2-0.024-0.399-0.047c-1.438-0.17-2.062-0.277-2.606-0.492
						c-0.614-0.242-0.837-0.543-0.753-1.039c0.156-0.922,0.755-1.244,2.594-1.648c0.112-0.025,0.112-0.025,0.224-0.049
						c2.29-0.507,3.269-1.14,3.421-2.915c0.168-1.944-1.32-2.606-5.28-3.262c-0.173-0.029-0.173-0.029-0.346-0.057
						c-3.269-0.54-4.359-0.971-4.314-1.955c0.026-0.551,0.757-1.173,1.976-1.742c0.465-0.217,0.966-0.412,1.468-0.58
						c0.301-0.101,0.533-0.17,0.663-0.205c0.2-0.054,0.319-0.259,0.265-0.459C24.981,0.909,24.775,0.79,24.575,0.844L24.575,0.844z"
						/>
					<path id="Stroke-3_5_" fill="#E2E2E2" d="M37.287,18.247L37.287,18.247L37.287,18.247c-0.19-9.938-8.4-17.843-18.338-17.655
						C9.01,0.782,1.106,8.992,1.293,18.93s8.398,17.843,18.338,17.655C29.57,36.398,37.474,28.188,37.287,18.247L37.287,18.247z
						 M38.286,18.228L38.286,18.228c0.198,10.493-8.145,19.159-18.636,19.357C9.158,37.783,0.491,29.44,0.293,18.949
						C0.095,8.459,8.439-0.208,18.929-0.408C29.42-0.606,38.086,7.737,38.286,18.228L38.286,18.228z"/>
				</g>
				<path id="Stroke-4_1_" fill="#D6D9D5" d="M48.059,26.778c-0.514,0.421-1.03,0.845-1.546,1.274
					c-0.319,0.264-0.363,0.737-0.099,1.056c0.264,0.319,0.737,0.363,1.056,0.099c0.514-0.426,1.027-0.849,1.539-1.267
					c0.321-0.262,0.368-0.735,0.106-1.055S48.379,26.516,48.059,26.778L48.059,26.778z M44.207,29.983
					c-0.509,0.431-1.017,0.864-1.524,1.299c-0.314,0.27-0.35,0.743-0.081,1.058c0.27,0.314,0.743,0.35,1.058,0.081
					c0.505-0.433,1.01-0.864,1.516-1.293c0.316-0.268,0.355-0.741,0.088-1.057S44.523,29.716,44.207,29.983L44.207,29.983z
					 M40.408,33.256c-0.503,0.441-1.004,0.883-1.503,1.328c-0.309,0.275-0.337,0.749-0.062,1.059s0.749,0.337,1.059,0.062
					c0.496-0.442,0.995-0.882,1.495-1.32c0.311-0.273,0.342-0.747,0.069-1.058C41.194,33.014,40.72,32.983,40.408,33.256
					L40.408,33.256z M36.67,36.596c-0.496,0.451-0.989,0.904-1.48,1.358c-0.304,0.281-0.323,0.756-0.042,1.06
					c0.281,0.304,0.756,0.323,1.06,0.042c0.488-0.451,0.978-0.901,1.471-1.35c0.306-0.279,0.329-0.753,0.05-1.059
					C37.45,36.34,36.976,36.317,36.67,36.596L36.67,36.596z M32.995,40.007c-0.487,0.461-0.971,0.924-1.452,1.386
					c-0.298,0.287-0.307,0.762-0.02,1.06c0.287,0.298,0.762,0.307,1.06,0.02c0.477-0.46,0.958-0.919,1.443-1.378
					c0.301-0.285,0.314-0.76,0.029-1.06S33.296,39.722,32.995,40.007L32.995,40.007z M29.389,43.496
					c-0.477,0.472-0.95,0.944-1.419,1.416c-0.292,0.294-0.29,0.769,0.004,1.061s0.769,0.29,1.061-0.004
					c0.466-0.469,0.935-0.938,1.409-1.406c0.295-0.291,0.297-0.766,0.006-1.061C30.158,43.207,29.683,43.204,29.389,43.496
					L29.389,43.496z M25.857,47.071c-0.467,0.485-0.93,0.969-1.388,1.454c-0.284,0.301-0.271,0.776,0.03,1.06s0.776,0.271,1.06-0.03
					c0.454-0.481,0.913-0.962,1.377-1.443c0.288-0.298,0.279-0.773-0.019-1.06S26.144,46.773,25.857,47.071L25.857,47.071z
					 M22.419,50.73c-0.455,0.498-0.905,0.995-1.349,1.492c-0.276,0.309-0.249,0.783,0.06,1.059c0.309,0.276,0.783,0.249,1.059-0.06
					c0.44-0.492,0.886-0.985,1.337-1.479c0.28-0.306,0.258-0.78-0.047-1.06C23.173,50.403,22.699,50.424,22.419,50.73L22.419,50.73z
					 M19.081,54.49c-0.44,0.511-0.873,1.021-1.3,1.531c-0.266,0.317-0.224,0.791,0.093,1.057c0.317,0.266,0.791,0.224,1.057-0.093
					c0.423-0.504,0.852-1.01,1.288-1.516c0.27-0.314,0.235-0.787-0.079-1.058C19.825,54.14,19.351,54.176,19.081,54.49L19.081,54.49
					z M15.864,58.356c-0.423,0.527-0.839,1.053-1.247,1.578c-0.254,0.327-0.195,0.798,0.132,1.052
					c0.327,0.254,0.798,0.195,1.052-0.132c0.403-0.519,0.814-1.039,1.233-1.56c0.259-0.323,0.208-0.795-0.115-1.054
					C16.596,57.981,16.124,58.033,15.864,58.356L15.864,58.356z M12.8,62.33c-0.403,0.545-0.797,1.089-1.183,1.631
					c-0.24,0.338-0.161,0.806,0.176,1.046c0.337,0.24,0.806,0.161,1.046-0.176c0.38-0.535,0.769-1.071,1.167-1.609
					c0.246-0.333,0.176-0.803-0.157-1.049C13.516,61.926,13.046,61.997,12.8,62.33L12.8,62.33z M9.896,66.455
					c-0.378,0.565-0.745,1.128-1.103,1.689c-0.223,0.349-0.12,0.813,0.229,1.036c0.349,0.223,0.813,0.12,1.036-0.229
					c0.352-0.552,0.713-1.106,1.085-1.662c0.23-0.344,0.137-0.81-0.207-1.04S10.126,66.11,9.896,66.455L9.896,66.455z M7.206,70.733
					c-0.345,0.587-0.679,1.172-1.001,1.754c-0.201,0.362-0.069,0.819,0.293,1.019c0.362,0.201,0.819,0.069,1.019-0.293
					c0.316-0.57,0.643-1.144,0.982-1.72c0.21-0.357,0.091-0.817-0.266-1.027C7.876,70.257,7.417,70.376,7.206,70.733L7.206,70.733z
					 M4.788,75.184c-0.305,0.613-0.595,1.222-0.872,1.828c-0.172,0.377-0.006,0.822,0.37,0.994s0.822,0.006,0.994-0.37
					c0.27-0.591,0.554-1.186,0.851-1.784c0.184-0.371,0.033-0.821-0.338-1.005S4.972,74.813,4.788,75.184L4.788,75.184z
					 M2.729,79.804c-0.25,0.639-0.485,1.274-0.702,1.905c-0.135,0.392,0.073,0.818,0.465,0.953c0.392,0.135,0.818-0.073,0.953-0.465
					c0.211-0.611,0.437-1.227,0.68-1.847c0.151-0.386-0.039-0.821-0.425-0.972C3.316,79.229,2.881,79.419,2.729,79.804L2.729,79.804
					z M1.129,84.642c-0.178,0.667-0.336,1.328-0.475,1.984c-0.085,0.405,0.174,0.803,0.579,0.889s0.803-0.174,0.889-0.579
					c0.133-0.63,0.285-1.265,0.456-1.907c0.107-0.4-0.131-0.811-0.531-0.918S1.236,84.242,1.129,84.642L1.129,84.642z M0.155,89.652
					c-0.081,0.688-0.139,1.369-0.172,2.044c-0.021,0.414,0.298,0.766,0.712,0.786s0.766-0.298,0.786-0.712
					c0.032-0.641,0.087-1.288,0.164-1.943c0.049-0.411-0.246-0.784-0.657-0.833S0.204,89.241,0.155,89.652L0.155,89.652z
					 M0.001,94.813c0.044,0.691,0.115,1.374,0.214,2.049c0.06,0.41,0.441,0.694,0.851,0.634S1.76,97.055,1.7,96.645
					c-0.093-0.635-0.16-1.277-0.201-1.928c-0.026-0.413-0.383-0.727-0.796-0.701S-0.025,94.399,0.001,94.813L0.001,94.813z
					 M0.868,99.921c0.187,0.663,0.404,1.316,0.649,1.961c0.147,0.387,0.581,0.581,0.968,0.434c0.387-0.147,0.581-0.581,0.434-0.968
					c-0.23-0.603-0.432-1.215-0.608-1.835c-0.113-0.399-0.527-0.63-0.926-0.517C0.986,99.108,0.755,99.523,0.868,99.921
					L0.868,99.921z M2.803,104.691c0.323,0.6,0.675,1.191,1.054,1.773c0.226,0.347,0.691,0.445,1.038,0.219
					c0.347-0.226,0.445-0.691,0.219-1.038c-0.357-0.547-0.686-1.102-0.99-1.666c-0.196-0.365-0.651-0.501-1.016-0.304
					S2.607,104.326,2.803,104.691L2.803,104.691z M5.688,108.942c0.431,0.519,0.886,1.029,1.367,1.531
					c0.286,0.299,0.761,0.31,1.06,0.024c0.299-0.286,0.31-0.761,0.024-1.06c-0.456-0.477-0.888-0.961-1.297-1.453
					c-0.265-0.319-0.738-0.362-1.056-0.098C5.467,108.15,5.423,108.623,5.688,108.942L5.688,108.942z M9.275,112.582
					c0.394,0.341,0.801,0.678,1.22,1.011c0.126,0.1,0.246,0.194,0.367,0.288c0.328,0.254,0.799,0.194,1.052-0.134
					c0.254-0.328,0.194-0.799-0.134-1.052c-0.117-0.09-0.232-0.181-0.354-0.277c-0.402-0.319-0.792-0.642-1.17-0.969
					c-0.313-0.271-0.787-0.237-1.058,0.076C8.928,111.837,8.962,112.311,9.275,112.582L9.275,112.582z M13.353,115.662
					c0.567,0.374,1.144,0.734,1.729,1.079c0.357,0.21,0.817,0.092,1.027-0.265c0.21-0.357,0.092-0.817-0.265-1.027
					c-0.564-0.333-1.119-0.679-1.665-1.039c-0.346-0.228-0.811-0.133-1.039,0.213C12.912,114.969,13.007,115.434,13.353,115.662
					L13.353,115.662z M17.78,118.199c0.607,0.3,1.224,0.585,1.849,0.857c0.38,0.165,0.822-0.009,0.987-0.389
					c0.165-0.38-0.009-0.822-0.389-0.987c-0.603-0.262-1.198-0.538-1.783-0.827c-0.371-0.183-0.821-0.031-1.004,0.341
					C17.256,117.566,17.409,118.016,17.78,118.199L17.78,118.199z M22.464,120.173c0.634,0.225,1.277,0.437,1.928,0.636
					c0.396,0.121,0.815-0.102,0.936-0.498c0.121-0.396-0.102-0.815-0.498-0.936c-0.63-0.193-1.252-0.398-1.866-0.615
					c-0.39-0.138-0.819,0.066-0.958,0.456C21.869,119.606,22.074,120.035,22.464,120.173L22.464,120.173z M27.352,121.611
					c0.654,0.156,1.316,0.3,1.986,0.432c0.406,0.08,0.801-0.184,0.881-0.591c0.08-0.406-0.184-0.801-0.591-0.881
					c-0.651-0.128-1.294-0.268-1.929-0.419c-0.403-0.096-0.807,0.153-0.903,0.556C26.7,121.111,26.949,121.516,27.352,121.611
					L27.352,121.611z M32.374,122.554c0.663,0.093,1.334,0.176,2.012,0.248c0.412,0.044,0.781-0.255,0.825-0.667
					c0.044-0.412-0.255-0.781-0.667-0.825c-0.662-0.07-1.316-0.151-1.962-0.241c-0.41-0.058-0.789,0.228-0.847,0.638
					C31.678,122.117,31.964,122.496,32.374,122.554L32.374,122.554z M37.367,123.048c0.666,0.04,1.338,0.07,2.018,0.091
					c0.414,0.013,0.76-0.312,0.773-0.726c0.013-0.414-0.312-0.76-0.726-0.773c-0.665-0.021-1.324-0.05-1.975-0.089
					c-0.413-0.025-0.769,0.29-0.793,0.704S36.953,123.023,37.367,123.048L37.367,123.048z M42.422,123.171
					c0.665-0.006,1.337-0.02,2.015-0.043c0.414-0.014,0.738-0.361,0.725-0.775c-0.014-0.414-0.361-0.738-0.775-0.725
					c-0.666,0.022-1.325,0.036-1.978,0.042c-0.414,0.004-0.747,0.342-0.743,0.757C41.669,122.842,42.008,123.175,42.422,123.171
					L42.422,123.171z M47.483,122.975c0.665-0.045,1.336-0.097,2.013-0.157c0.413-0.036,0.718-0.4,0.681-0.813
					c-0.036-0.413-0.4-0.718-0.813-0.681c-0.667,0.059-1.328,0.11-1.982,0.154c-0.413,0.028-0.726,0.385-0.698,0.799
					C46.712,122.69,47.069,123.003,47.483,122.975L47.483,122.975z M52.513,122.508c0.66-0.077,1.325-0.161,1.995-0.251
					c0.411-0.055,0.698-0.433,0.643-0.843c-0.055-0.411-0.433-0.698-0.843-0.643c-0.662,0.089-1.319,0.172-1.969,0.248
					c-0.411,0.048-0.706,0.421-0.658,0.832C51.729,122.262,52.101,122.557,52.513,122.508L52.513,122.508z M57.518,121.814
					c0.655-0.104,1.315-0.215,1.981-0.331c0.408-0.071,0.681-0.46,0.61-0.868c-0.071-0.408-0.46-0.681-0.868-0.61
					c-0.659,0.115-1.312,0.224-1.959,0.327c-0.409,0.065-0.688,0.45-0.623,0.859C56.724,121.601,57.109,121.88,57.518,121.814
					L57.518,121.814z M62.479,120.931c0.652-0.128,1.309-0.261,1.971-0.399c0.405-0.085,0.665-0.482,0.581-0.888
					s-0.482-0.665-0.888-0.581c-0.656,0.137-1.307,0.269-1.952,0.395c-0.406,0.08-0.671,0.474-0.592,0.88
					C61.678,120.745,62.073,121.01,62.479,120.931L62.479,120.931z M67.368,119.894c0.647-0.147,1.299-0.299,1.956-0.455
					c0.403-0.096,0.652-0.501,0.556-0.903c-0.096-0.403-0.501-0.652-0.903-0.556c-0.652,0.155-1.299,0.306-1.94,0.452
					c-0.404,0.092-0.657,0.494-0.565,0.897C66.562,119.733,66.964,119.986,67.368,119.894L67.368,119.894z M72.224,118.725
					c0.643-0.163,1.292-0.331,1.946-0.504c0.401-0.106,0.64-0.516,0.534-0.916c-0.106-0.401-0.516-0.64-0.916-0.534
					c-0.649,0.171-1.293,0.338-1.932,0.5c-0.401,0.102-0.644,0.51-0.542,0.912C71.414,118.584,71.822,118.827,72.224,118.725
					L72.224,118.725z M77.075,117.435c0.638-0.177,1.282-0.358,1.93-0.543c0.398-0.114,0.629-0.529,0.515-0.927
					c-0.114-0.398-0.529-0.629-0.927-0.515c-0.645,0.184-1.284,0.364-1.919,0.54c-0.399,0.111-0.633,0.524-0.522,0.923
					C76.263,117.311,76.676,117.545,77.075,117.435L77.075,117.435z M81.885,116.051c0.634-0.189,1.274-0.381,1.919-0.577
					c0.396-0.121,0.62-0.54,0.499-0.936c-0.121-0.396-0.54-0.62-0.936-0.499c-0.642,0.195-1.278,0.387-1.91,0.575
					c-0.397,0.118-0.623,0.536-0.505,0.933C81.071,115.943,81.488,116.169,81.885,116.051L81.885,116.051z M86.687,114.582
					c0.632-0.198,1.269-0.401,1.911-0.607c0.394-0.126,0.612-0.549,0.485-0.943c-0.126-0.394-0.549-0.612-0.943-0.485
					c-0.64,0.205-1.275,0.406-1.904,0.604c-0.395,0.124-0.615,0.545-0.491,0.94C85.871,114.487,86.292,114.706,86.687,114.582
					L86.687,114.582z M91.458,113.048c0.627-0.206,1.26-0.416,1.899-0.629c0.393-0.131,0.605-0.556,0.474-0.949
					c-0.131-0.393-0.556-0.605-0.949-0.474c-0.637,0.213-1.268,0.421-1.892,0.627c-0.394,0.129-0.608,0.553-0.478,0.947
					C90.641,112.963,91.065,113.177,91.458,113.048L91.458,113.048z M96.205,111.459c0.626-0.213,1.258-0.429,1.897-0.65
					c0.392-0.135,0.6-0.562,0.465-0.953c-0.135-0.392-0.562-0.6-0.953-0.465c-0.638,0.22-1.268,0.436-1.892,0.648
					c-0.392,0.133-0.602,0.56-0.468,0.952C95.387,111.383,95.813,111.592,96.205,111.459L96.205,111.459z M100.95,109.82
					c0.622-0.218,1.251-0.439,1.889-0.664c0.391-0.138,0.595-0.566,0.457-0.957s-0.566-0.595-0.957-0.457
					c-0.637,0.225-1.265,0.446-1.885,0.663c-0.391,0.137-0.597,0.565-0.46,0.956C100.131,109.751,100.559,109.957,100.95,109.82
					L100.95,109.82z M105.672,108.148c0.617-0.221,1.244-0.446,1.883-0.675c0.39-0.14,0.592-0.57,0.452-0.96
					c-0.14-0.39-0.57-0.592-0.96-0.452c-0.637,0.229-1.263,0.454-1.88,0.674c-0.39,0.139-0.593,0.569-0.454,0.959
					C104.853,108.085,105.282,108.288,105.672,108.148L105.672,108.148z M110.394,106.447c0.613-0.223,1.24-0.451,1.884-0.685
					c0.389-0.142,0.59-0.572,0.448-0.962s-0.572-0.59-0.962-0.448c-0.643,0.234-1.269,0.462-1.882,0.685
					c-0.389,0.141-0.59,0.572-0.449,0.961S110.004,106.588,110.394,106.447L110.394,106.447z M115.095,104.731
					c0.6-0.22,1.221-0.448,1.877-0.689c0.389-0.143,0.588-0.574,0.445-0.963s-0.574-0.588-0.963-0.445
					c-0.657,0.241-1.277,0.469-1.876,0.688c-0.389,0.143-0.589,0.573-0.446,0.962C114.275,104.674,114.706,104.874,115.095,104.731
					L115.095,104.731z M119.798,103.003c0.448-0.165,0.448-0.165,0.897-0.33c0.49-0.18,0.49-0.18,0.979-0.36
					c0.389-0.143,0.588-0.574,0.445-0.963s-0.574-0.588-0.963-0.445c-0.49,0.18-0.49,0.18-0.979,0.36
					c-0.448,0.165-0.448,0.165-0.897,0.33c-0.389,0.143-0.588,0.574-0.445,0.963C118.979,102.947,119.41,103.146,119.798,103.003
					L119.798,103.003z M124.499,101.274c0.666-0.245,1.284-0.472,1.878-0.69c0.389-0.143,0.588-0.574,0.446-0.962
					s-0.574-0.588-0.962-0.446c-0.595,0.218-1.213,0.445-1.879,0.69c-0.389,0.143-0.588,0.574-0.445,0.963
					C123.679,101.217,124.11,101.417,124.499,101.274L124.499,101.274z M129.163,99.564c0.643-0.235,1.267-0.463,1.877-0.684
					c0.389-0.142,0.59-0.572,0.448-0.961c-0.142-0.389-0.572-0.59-0.961-0.448c-0.61,0.222-1.234,0.45-1.878,0.685
					c-0.389,0.142-0.589,0.573-0.447,0.962S128.774,99.706,129.163,99.564L129.163,99.564z M133.856,97.859
					c0.639-0.231,1.265-0.456,1.88-0.677c0.39-0.14,0.593-0.569,0.453-0.959c-0.14-0.39-0.569-0.593-0.959-0.453
					c-0.617,0.221-1.244,0.447-1.883,0.678c-0.39,0.141-0.591,0.571-0.451,0.96C133.036,97.797,133.466,97.999,133.856,97.859
					L133.856,97.859z M138.57,96.17c0.638-0.226,1.266-0.448,1.886-0.666c0.391-0.137,0.596-0.566,0.459-0.956
					c-0.137-0.391-0.566-0.596-0.956-0.459c-0.621,0.219-1.251,0.441-1.89,0.668c-0.39,0.139-0.595,0.567-0.456,0.958
					C137.751,96.104,138.18,96.309,138.57,96.17L138.57,96.17z M143.246,94.53c0.637-0.221,1.266-0.437,1.888-0.65
					c0.392-0.134,0.601-0.561,0.467-0.953c-0.134-0.392-0.561-0.601-0.953-0.467c-0.624,0.214-1.255,0.431-1.893,0.652
					c-0.391,0.136-0.599,0.563-0.463,0.954C142.427,94.458,142.854,94.665,143.246,94.53L143.246,94.53z M147.986,92.912
					c0.638-0.214,1.27-0.425,1.895-0.632c0.393-0.13,0.607-0.554,0.476-0.948s-0.554-0.607-0.948-0.476
					c-0.627,0.208-1.261,0.419-1.901,0.634c-0.393,0.132-0.604,0.557-0.472,0.95C147.169,92.832,147.594,93.044,147.986,92.912
					L147.986,92.912z M152.73,91.349c0.639-0.206,1.272-0.409,1.899-0.607c0.395-0.125,0.614-0.547,0.489-0.941
					c-0.125-0.395-0.547-0.614-0.941-0.489c-0.63,0.199-1.265,0.403-1.907,0.61c-0.394,0.127-0.611,0.55-0.483,0.944
					S152.335,91.476,152.73,91.349L152.73,91.349z M157.481,89.853c0.642-0.197,1.278-0.39,1.908-0.579
					c0.397-0.119,0.622-0.537,0.503-0.934s-0.537-0.622-0.934-0.503c-0.634,0.19-1.273,0.384-1.918,0.582
					c-0.396,0.122-0.618,0.541-0.497,0.937C156.666,89.752,157.085,89.974,157.481,89.853L157.481,89.853z M162.247,88.434
					c0.645-0.186,1.285-0.367,1.919-0.545c0.399-0.112,0.632-0.525,0.52-0.924c-0.112-0.399-0.525-0.632-0.924-0.52
					c-0.638,0.178-1.281,0.361-1.93,0.548c-0.398,0.115-0.628,0.53-0.513,0.928C161.433,88.319,161.849,88.548,162.247,88.434
					L162.247,88.434z M167.056,87.1c0.648-0.172,1.291-0.34,1.928-0.503c0.401-0.103,0.643-0.511,0.541-0.913
					s-0.511-0.643-0.913-0.541c-0.642,0.164-1.289,0.333-1.941,0.507c-0.4,0.106-0.639,0.517-0.532,0.918
					C166.245,86.968,166.656,87.206,167.056,87.1L167.056,87.1z M171.898,85.874c0.652-0.156,1.298-0.308,1.94-0.454
					c0.404-0.092,0.656-0.494,0.564-0.898s-0.494-0.656-0.898-0.564c-0.646,0.148-1.298,0.3-1.956,0.458
					c-0.403,0.097-0.651,0.501-0.554,0.904C171.09,85.722,171.495,85.971,171.898,85.874L171.898,85.874z M176.759,84.78
					c0.656-0.137,1.305-0.269,1.95-0.395c0.406-0.08,0.671-0.474,0.592-0.88c-0.08-0.406-0.474-0.671-0.88-0.592
					c-0.651,0.127-1.307,0.26-1.969,0.399c-0.405,0.085-0.665,0.482-0.58,0.888S176.353,84.865,176.759,84.78L176.759,84.78z
					 M181.649,83.841c0.659-0.115,1.313-0.223,1.961-0.325c0.409-0.065,0.688-0.449,0.624-0.858s-0.449-0.688-0.858-0.624
					c-0.655,0.103-1.317,0.213-1.984,0.329c-0.408,0.071-0.681,0.459-0.611,0.867C180.853,83.639,181.241,83.912,181.649,83.841
					L181.649,83.841z M186.552,83.089c0.663-0.088,1.32-0.168,1.971-0.242c0.412-0.047,0.707-0.418,0.661-0.83
					s-0.418-0.707-0.83-0.661c-0.66,0.075-1.326,0.156-1.998,0.245c-0.411,0.054-0.7,0.431-0.645,0.842
					S186.141,83.143,186.552,83.089L186.552,83.089z M191.496,82.555c0.666-0.055,1.326-0.102,1.979-0.142
					c0.413-0.025,0.728-0.38,0.703-0.794c-0.025-0.413-0.38-0.728-0.794-0.703c-0.664,0.04-1.335,0.088-2.012,0.144
					c-0.413,0.034-0.72,0.396-0.686,0.809C190.721,82.282,191.083,82.589,191.496,82.555L191.496,82.555z M196.455,82.287
					c0.667-0.016,1.327-0.023,1.98-0.022c0.414,0.001,0.751-0.334,0.752-0.748s-0.334-0.751-0.748-0.752
					c-0.666-0.002-1.339,0.006-2.019,0.022c-0.414,0.01-0.742,0.354-0.732,0.768C195.697,81.969,196.041,82.296,196.455,82.287
					L196.455,82.287z M201.402,82.335c0.665,0.03,1.323,0.071,1.973,0.121c0.413,0.032,0.774-0.277,0.806-0.69
					s-0.277-0.774-0.69-0.806c-0.666-0.051-1.339-0.093-2.02-0.124c-0.414-0.019-0.765,0.301-0.783,0.715
					S200.988,82.316,201.402,82.335L201.402,82.335z M206.337,82.761c0.659,0.085,1.309,0.182,1.951,0.29
					c0.408,0.069,0.795-0.207,0.864-0.615s-0.207-0.795-0.615-0.864c-0.661-0.111-1.329-0.21-2.006-0.298
					c-0.411-0.053-0.787,0.237-0.84,0.647C205.636,82.331,205.926,82.708,206.337,82.761L206.337,82.761z M211.203,83.631
					c0.645,0.149,1.28,0.311,1.907,0.485c0.399,0.111,0.813-0.123,0.923-0.522c0.111-0.399-0.123-0.813-0.522-0.923
					c-0.648-0.18-1.304-0.347-1.97-0.501c-0.404-0.093-0.806,0.158-0.9,0.562C210.548,83.134,210.799,83.537,211.203,83.631
					L211.203,83.631z M215.934,85.006c0.628,0.222,1.24,0.455,1.836,0.699c0.383,0.157,0.821-0.027,0.978-0.41
					c0.157-0.383-0.027-0.821-0.41-0.978c-0.619-0.253-1.253-0.495-1.904-0.725c-0.391-0.138-0.819,0.066-0.957,0.457
					C215.338,84.44,215.543,84.868,215.934,85.006L215.934,85.006z M220.447,86.929c0.59,0.3,1.161,0.612,1.714,0.937
					c0.357,0.21,0.817,0.09,1.027-0.267c0.21-0.357,0.09-0.817-0.267-1.027c-0.579-0.34-1.177-0.667-1.794-0.981
					c-0.369-0.188-0.821-0.041-1.008,0.329C219.931,86.29,220.078,86.741,220.447,86.929L220.447,86.929z M224.607,89.471
					c0.53,0.389,1.039,0.791,1.526,1.207c0.315,0.269,0.788,0.232,1.057-0.083c0.269-0.315,0.232-0.788-0.083-1.057
					c-0.516-0.44-1.053-0.866-1.613-1.276c-0.334-0.245-0.803-0.173-1.048,0.162C224.201,88.757,224.273,89.226,224.607,89.471
					L224.607,89.471z M228.249,92.714c0.441,0.479,0.858,0.973,1.252,1.481c0.254,0.327,0.725,0.387,1.052,0.133
					c0.327-0.254,0.387-0.725,0.133-1.052c-0.419-0.541-0.864-1.067-1.333-1.578c-0.28-0.305-0.755-0.325-1.06-0.045
					C227.989,91.935,227.969,92.409,228.249,92.714L228.249,92.714z M231.12,96.586c0.327,0.556,0.629,1.126,0.908,1.709
					c0.178,0.374,0.626,0.532,1,0.354c0.374-0.178,0.532-0.626,0.354-1c-0.297-0.622-0.619-1.229-0.968-1.822
					c-0.21-0.357-0.669-0.477-1.027-0.267C231.03,95.769,230.91,96.229,231.12,96.586L231.12,96.586z M233.121,101.016
					c0.202,0.61,0.382,1.232,0.539,1.866c0.099,0.402,0.506,0.647,0.908,0.548c0.402-0.099,0.647-0.506,0.548-0.908
					c-0.166-0.672-0.356-1.331-0.571-1.979c-0.13-0.393-0.555-0.606-0.948-0.476C233.204,100.198,232.991,100.622,233.121,101.016
					L233.121,101.016z M234.209,105.788c0.085,0.637,0.15,1.285,0.193,1.942c0.028,0.413,0.385,0.726,0.798,0.698
					c0.413-0.028,0.726-0.385,0.698-0.798c-0.046-0.69-0.114-1.37-0.203-2.04c-0.055-0.411-0.432-0.699-0.843-0.644
					C234.442,105,234.154,105.377,234.209,105.788L234.209,105.788z M234.463,110.712c-0.016,0.645-0.049,1.297-0.101,1.956
					c-0.032,0.413,0.276,0.774,0.689,0.806c0.413,0.032,0.774-0.276,0.806-0.689c0.054-0.686,0.089-1.365,0.105-2.037
					c0.01-0.414-0.317-0.758-0.732-0.768S234.473,110.298,234.463,110.712L234.463,110.712z M234.026,115.565
					c-0.097,0.64-0.21,1.286-0.339,1.937c-0.08,0.406,0.184,0.801,0.59,0.881s0.801-0.184,0.881-0.59
					c0.133-0.672,0.25-1.34,0.35-2.002c0.062-0.41-0.219-0.792-0.629-0.854C234.471,114.874,234.088,115.155,234.026,115.565
					L234.026,115.565z M233.03,120.358c-0.164,0.629-0.342,1.262-0.534,1.898c-0.119,0.397,0.105,0.815,0.502,0.934
					c0.397,0.119,0.815-0.105,0.934-0.502c0.197-0.654,0.38-1.304,0.549-1.952c0.105-0.401-0.135-0.811-0.536-0.915
					C233.545,119.717,233.135,119.958,233.03,120.358L233.03,120.358z M231.563,125.084c-0.22,0.615-0.453,1.231-0.697,1.849
					c-0.152,0.385,0.037,0.821,0.422,0.973c0.385,0.152,0.821-0.037,0.973-0.422c0.25-0.633,0.488-1.264,0.714-1.894
					c0.14-0.39-0.063-0.819-0.453-0.959C232.132,124.491,231.703,124.694,231.563,125.084L231.563,125.084z M229.716,129.662
					c-0.268,0.598-0.546,1.197-0.834,1.796c-0.18,0.373-0.023,0.821,0.35,1.001c0.373,0.18,0.821,0.023,1.001-0.35
					c0.294-0.611,0.579-1.223,0.852-1.834c0.169-0.378,0-0.822-0.378-0.991C230.329,129.114,229.886,129.284,229.716,129.662
					L229.716,129.662z M227.531,134.123c-0.309,0.58-0.627,1.159-0.954,1.737c-0.204,0.361-0.077,0.818,0.284,1.022
					c0.361,0.204,0.818,0.077,1.022-0.284c0.333-0.589,0.657-1.179,0.972-1.771c0.195-0.366,0.056-0.82-0.31-1.014
					C228.179,133.619,227.725,133.757,227.531,134.123L227.531,134.123z M225.057,138.434c-0.345,0.561-0.698,1.119-1.059,1.675
					c-0.226,0.347-0.127,0.812,0.221,1.037c0.347,0.226,0.812,0.127,1.037-0.221c0.367-0.566,0.727-1.134,1.078-1.705
					c0.217-0.353,0.107-0.815-0.245-1.032C225.736,137.971,225.274,138.081,225.057,138.434L225.057,138.434z M222.321,142.596
					c-0.379,0.541-0.764,1.078-1.156,1.611c-0.245,0.334-0.174,0.803,0.16,1.049c0.334,0.245,0.803,0.174,1.049-0.16
					c0.399-0.542,0.791-1.089,1.176-1.639c0.238-0.339,0.155-0.807-0.184-1.045C223.026,142.174,222.558,142.256,222.321,142.596
					L222.321,142.596z M219.348,146.589c-0.41,0.519-0.826,1.034-1.247,1.543c-0.264,0.319-0.219,0.792,0.1,1.056
					c0.319,0.264,0.792,0.219,1.056-0.1c0.429-0.518,0.852-1.041,1.269-1.57c0.257-0.325,0.201-0.797-0.124-1.053
					C220.077,146.209,219.605,146.264,219.348,146.589L219.348,146.589z M216.171,150.384c-0.44,0.496-0.884,0.985-1.333,1.468
					c-0.282,0.303-0.265,0.778,0.039,1.06c0.303,0.282,0.778,0.265,1.06-0.039c0.457-0.491,0.909-0.99,1.357-1.494
					c0.275-0.31,0.247-0.784-0.063-1.059C216.92,150.046,216.446,150.074,216.171,150.384L216.171,150.384z M212.794,153.975
					c-0.469,0.469-0.941,0.931-1.416,1.385c-0.3,0.286-0.311,0.761-0.025,1.06c0.286,0.3,0.761,0.311,1.06,0.025
					c0.485-0.462,0.966-0.933,1.443-1.411c0.293-0.293,0.292-0.768-0.001-1.061C213.562,153.681,213.087,153.681,212.794,153.975
					L212.794,153.975z M209.174,157.383c-0.498,0.44-0.999,0.87-1.502,1.291c-0.318,0.266-0.36,0.739-0.094,1.056
					s0.739,0.36,1.056,0.094c0.513-0.429,1.024-0.868,1.532-1.317c0.311-0.274,0.34-0.748,0.066-1.059
					S209.484,157.109,209.174,157.383L209.174,157.383z M205.379,160.511c-0.528,0.405-1.057,0.798-1.587,1.18
					c-0.336,0.242-0.412,0.711-0.17,1.047s0.711,0.412,1.047,0.17c0.542-0.391,1.083-0.793,1.623-1.207
					c0.329-0.252,0.391-0.723,0.139-1.052C206.179,160.321,205.708,160.259,205.379,160.511L205.379,160.511z M201.329,163.376
					c-0.558,0.362-1.117,0.71-1.675,1.044c-0.355,0.213-0.471,0.673-0.258,1.029s0.673,0.471,1.029,0.258
					c0.573-0.343,1.147-0.701,1.72-1.072c0.348-0.225,0.447-0.69,0.222-1.037C202.141,163.25,201.676,163.151,201.329,163.376
					L201.329,163.376z M197.059,165.873c-0.59,0.307-1.178,0.598-1.764,0.872c-0.375,0.175-0.537,0.622-0.362,0.997
					c0.175,0.375,0.622,0.537,0.997,0.362c0.606-0.283,1.213-0.584,1.822-0.901c0.367-0.191,0.51-0.644,0.318-1.012
					C197.88,165.824,197.427,165.681,197.059,165.873L197.059,165.873z M192.609,167.887c-0.067,0.026-0.067,0.026-0.134,0.051
					c-0.387,0.146-0.583,0.579-0.436,0.967s0.579,0.583,0.967,0.436c0.07-0.026,0.07-0.026,0.14-0.053
					c0.387-0.148,0.581-0.581,0.433-0.968S192.996,167.739,192.609,167.887L192.609,167.887z"/>
				
					<g id="rocket" transform="translate(65.944097, 16.811842) rotate(-5.000000) translate(-65.944097, -16.811842) translate(47.944097, 1.811842)">
					<path id="Fill-11_2_" fill="#FFFFFF" d="M6.068,22.785c-1.145,0.703-4.625,0.144-4.625,0.144s1.033-3.33,2.18-4.032
						c1.145-0.705,2.624-0.405,3.298,0.67C7.598,20.64,7.215,22.081,6.068,22.785L6.068,22.785z"/>
					<path id="Stroke-12_1_" fill="#D6D9D5" d="M5.806,22.359c-0.309,0.19-0.979,0.288-1.867,0.28
						c-0.515-0.004-1.07-0.042-1.628-0.102c-0.356-0.038-0.634-0.077-0.79-0.102l0.398,0.642c0.038-0.123,0.111-0.343,0.215-0.628
						c0.172-0.475,0.364-0.949,0.569-1.39c0.418-0.897,0.841-1.529,1.181-1.736c0.918-0.565,2.089-0.327,2.614,0.509
						C7.022,20.665,6.722,21.797,5.806,22.359L5.806,22.359z M6.329,23.212c1.379-0.847,1.843-2.597,1.015-3.911
						c-0.823-1.312-2.609-1.675-3.983-0.829c-0.56,0.343-1.065,1.098-1.564,2.166c-0.219,0.47-0.421,0.971-0.603,1.472
						c-0.109,0.3-0.187,0.535-0.229,0.672c-0.09,0.291,0.098,0.594,0.398,0.642c0.172,0.028,0.466,0.068,0.841,0.109
						c0.588,0.064,1.175,0.103,1.727,0.108C4.997,23.648,5.811,23.53,6.329,23.212L6.329,23.212z"/>
					<path id="Stroke-13" fill="#D6D9D5" d="M33.6,10.352c1.726-3.328,2.211-6.684,1.379-8.006c-0.83-1.319-4.085-2.375-7.867-2.321
						c-0.351,0.005-0.587,0.36-0.457,0.686c0.812,2.031,1.669,3.856,2.521,5.209c0.85,1.354,2.128,2.922,3.611,4.54
						C33.022,10.716,33.44,10.66,33.6,10.352L33.6,10.352z M32.712,9.891l0.812-0.108c-1.446-1.577-2.69-3.105-3.502-4.397
						c-0.813-1.291-1.648-3.069-2.439-5.048l-0.457,0.686c3.469-0.049,6.409,0.904,7.006,1.854
						C34.728,3.824,34.291,6.846,32.712,9.891L32.712,9.891z"/>
					<path id="Fill-14_1_" fill="#FFFFFF" d="M33.156,10.122c-1.096-1.196-2.587-2.925-3.557-4.469
						c-0.972-1.544-1.881-3.629-2.48-5.129c-3.706,0.051-8.16,0.917-12.125,3.349C9.047,7.524,5.007,12.441,4.144,16.514
						c0,0-0.104,1.78,1.276,3.976c1.38,2.192,3.044,2.889,3.044,2.889c4.079,1.042,10.333-0.358,16.28-4.007
						C28.708,16.938,31.466,13.381,33.156,10.122L33.156,10.122z"/>
					<path id="Stroke-15" fill="#D6D9D5" d="M33.524,9.784c-1.446-1.577-2.69-3.105-3.502-4.397
						c-0.795-1.262-1.611-2.99-2.386-4.915c-0.018-0.044-0.036-0.089-0.053-0.133c-0.077-0.192-0.264-0.317-0.471-0.314
						c-4.344,0.059-8.703,1.168-12.379,3.423C8.814,7.08,4.572,12.082,3.654,16.41c-0.011,0.085-0.011,0.085-0.012,0.111
						c-0.01,0.336,0.031,0.818,0.164,1.412c0.206,0.914,0.588,1.867,1.189,2.822c0.204,0.324,0.421,0.628,0.649,0.912
						c0.968,1.207,1.946,1.888,2.625,2.172c4.398,1.129,10.816-0.411,16.735-4.042c3.677-2.257,6.613-5.624,8.595-9.447
						C33.696,10.165,33.666,9.938,33.524,9.784L33.524,9.784z M32.787,10.46l-0.075-0.568c-1.902,3.67-4.719,6.899-8.23,9.055
						c-5.708,3.501-11.863,4.978-15.895,3.949c-0.051-0.027-0.286-0.153-0.597-0.37c-0.531-0.369-1.065-0.858-1.565-1.482
						c-0.204-0.255-0.399-0.528-0.582-0.819c-0.931-1.481-1.226-2.794-1.2-3.672c0-0.012,0-0.012,0-0.008
						C5.486,12.595,9.551,7.801,15.256,4.3c3.512-2.154,7.696-3.218,11.87-3.275L26.655,0.71c0.812,2.031,1.669,3.856,2.521,5.209
						C30.026,7.273,31.304,8.842,32.787,10.46L32.787,10.46z"/>
					<path id="Fill-16_1_" fill="#FFFFFF" d="M12.867,6.823c0,0-6.192-2.298-11.762,4.202c-0.335,0.391,0.049,0.931,0.536,0.75
						c1.617-0.604,4.063-1.318,5.682-0.866c0.645,0.179,1.354,0.016,1.843-0.463L12.867,6.823L12.867,6.823z"/>
					<path id="Stroke-17_1_" fill="#D6D9D5" d="M13.041,6.354c-0.155-0.058-0.429-0.138-0.808-0.218
						C9.146,5.49,5.627,6.144,2.312,9.08C1.767,9.563,1.238,10.102,0.726,10.7c-0.674,0.787,0.124,1.903,1.09,1.544
						c2.189-0.817,4.142-1.197,5.373-0.854c0.825,0.229,1.717,0.01,2.328-0.588l3.7-3.621C13.479,6.924,13.385,6.482,13.041,6.354
						L13.041,6.354z M12.693,7.292l-0.176-0.826l-3.7,3.622c-0.353,0.346-0.875,0.474-1.36,0.339
						c-1.501-0.419-3.611-0.009-5.991,0.88c-0.006,0.002,0.021,0.041,0.018,0.044c0.483-0.563,0.98-1.07,1.489-1.521
						c3.055-2.706,6.253-3.3,9.054-2.714C12.356,7.184,12.583,7.251,12.693,7.292L12.693,7.292z"/>
					<path id="Fill-18_1_" fill="#FFFFFF" d="M21.124,19.949c0,0-0.657,6.501-9.025,8.554c-0.505,0.123-0.822-0.458-0.442-0.808
						c1.264-1.162,2.995-3.014,3.304-4.646c0.122-0.652,0.586-1.207,1.236-1.427L21.124,19.949L21.124,19.949z"/>
					<path id="Stroke-19" fill="#D6D9D5" d="M20.626,19.898c-0.006,0.055-0.023,0.172-0.059,0.343
						c-0.061,0.292-0.15,0.62-0.274,0.975c-0.356,1.019-0.916,2.04-1.722,2.993c-1.486,1.756-3.639,3.084-6.592,3.808
						c-0.005,0.001,0.018,0.044,0.016,0.045c1.855-1.706,3.169-3.401,3.457-4.92c0.091-0.486,0.436-0.888,0.905-1.047l4.927-1.673
						L20.626,19.898L20.626,19.898z M21.621,19.999c0.037-0.362-0.314-0.641-0.658-0.524l-4.927,1.673
						c-0.814,0.275-1.41,0.97-1.567,1.809c-0.235,1.237-1.448,2.804-3.151,4.37c-0.763,0.703-0.105,1.906,0.898,1.662
						c3.158-0.774,5.495-2.216,7.118-4.133c0.89-1.052,1.508-2.18,1.903-3.309C21.477,20.862,21.589,20.322,21.621,19.999
						L21.621,19.999z"/>
					<path id="Stroke-21_4_" fill="#D6D9D5" d="M23.24,12.724L23.24,12.724L23.24,12.724c1.408-0.873,1.839-2.723,0.966-4.13
						c-0.875-1.408-2.724-1.839-4.13-0.966c-1.408,0.875-1.841,2.724-0.966,4.132C19.985,13.165,21.834,13.599,23.24,12.724
						L23.24,12.724z M23.767,13.573l0.001-0.001c-1.875,1.167-4.341,0.59-5.508-1.285c-1.166-1.877-0.59-4.343,1.287-5.509
						c1.875-1.165,4.341-0.589,5.508,1.288C26.22,9.943,25.644,12.409,23.767,13.573L23.767,13.573z"/>
				</g>
				<g id="compass" transform="translate(45.993889, 34.157687)">
					<path id="Stroke-6_2_" fill="#FFFFFF" d="M157.923,79.28c0,43.63-35.37,79-78.999,79c-43.632,0-79.001-35.37-79.001-79
						s35.37-79,79.001-79C122.554,0.28,157.923,35.65,157.923,79.28L157.923,79.28z"/>
					<path id="Stroke-6_1_" fill="#4B524F" d="M154.923,79.28L154.923,79.28c0-41.973-34.026-76-75.999-76
						c-41.974,0-76.001,34.027-76.001,76s34.027,76,76.001,76C120.897,155.28,154.923,121.253,154.923,79.28L154.923,79.28z
						 M157.923,79.28c0,43.63-35.37,79-78.999,79c-43.632,0-79.001-35.37-79.001-79s35.37-79,79.001-79
						C122.554,0.28,157.923,35.65,157.923,79.28L157.923,79.28z"/>
					<path id="Stroke-8_2_" fill="#C0BFBF" d="M141.423,79.28c0,34.517-27.982,62.5-62.499,62.5
						c-34.519,0-62.501-27.983-62.501-62.5c0-34.519,27.982-62.5,62.501-62.5C113.442,16.78,141.423,44.761,141.423,79.28
						L141.423,79.28z M142.423,79.28c0-35.071-28.429-63.5-63.499-63.5c-35.072,0-63.501,28.429-63.501,63.5
						c0,35.069,28.43,63.5,63.501,63.5C113.993,142.78,142.423,114.349,142.423,79.28L142.423,79.28z"/>
					<polyline id="Fill-9_4_" fill="#DF4E41" points="92.801,86.544 99.923,40.28 65.352,71.73 					"/>
					<path id="Stroke-10_1_" fill="#4B524F" d="M92.985,87.105c0.084-0.077,0.14-0.18,0.158-0.293l7.274-46.456
						c0.073-0.466-0.481-0.765-0.83-0.447L64.861,71.454c-0.084,0.077-0.14,0.18-0.158,0.293l-7.274,46.456
						c-0.073,0.466,0.481,0.765,0.83,0.447L92.985,87.105z M59.467,116.615l7.006-44.359l33.37-30.442l-0.941-1.12l-7.276,45.15
						l-33.076,30.173L59.467,116.615z M65.436,71.713c-0.586-0.318-1.048,0.611-0.463,0.93l27.249,14.732
						c0.586,0.318,1.259-1.035,0.673-1.353L65.842,71.233L65.436,71.713z"/>
				</g>
				<g id="planet" transform="translate(0.780420, 151.037872)">
					<path id="Fill-1_3_" fill="#E2E2E2" d="M12.59,17.192c-3.887,0-7.423-2.639-8.373-6.559C3.105,6.043,5.956,1.41,10.573,0.305
						c4.613-1.106,9.277,1.729,10.389,6.32c1.111,4.589-1.74,9.223-6.356,10.328C13.931,17.114,13.256,17.192,12.59,17.192
						L12.59,17.192z M12.589,0.747c-0.613,0-1.234,0.071-1.855,0.22C6.484,1.985,3.86,6.249,4.884,10.474
						c1.023,4.224,5.314,6.834,9.561,5.817c4.249-1.018,6.873-5.283,5.85-9.507C19.422,3.177,16.167,0.747,12.589,0.747
						L12.589,0.747z"/>
					<path id="Fill-2_2_" fill="#E2E2E2" d="M3.59,13.335c-2.753,0-2.925-0.709-2.986-0.963c-0.072-0.299-0.292-1.209,3.654-2.866
						c0.174-0.072,0.375,0.008,0.449,0.182c0.074,0.173-0.008,0.372-0.182,0.446C1.74,11.302,1.23,12.045,1.27,12.212
						c0.04,0.167,0.747,0.57,3.481,0.404c2.316-0.136,5.324-0.626,8.47-1.379c3.147-0.754,6.05-1.679,8.173-2.607
						c2.509-1.095,2.955-1.767,2.914-1.934c-0.04-0.169-0.845-0.599-3.903-0.375c-0.176,0.016-0.353-0.127-0.367-0.314
						c-0.014-0.188,0.128-0.351,0.317-0.365c4.323-0.321,4.547,0.593,4.62,0.895c0.069,0.285,0.279,1.153-3.305,2.718
						c-2.16,0.944-5.103,1.883-8.289,2.645c-3.186,0.763-6.236,1.258-8.591,1.397C4.344,13.322,3.946,13.335,3.59,13.335"/>
				</g>
			</g>
		</g>
	</g>
</g>
</svg>
