<?xml version="1.0" encoding="utf-8"?>
<!-- Generator: Adobe Illustrator 19.1.0, SVG Export Plug-In . SVG Version: 6.00 Build 0)  -->
<svg version="1.1" id="Layer_1" xmlns="http://www.w3.org/2000/svg" xmlns:xlink="http://www.w3.org/1999/xlink" x="0px" y="0px"
	 width="208.55px" height="60px" viewBox="0 0 208.55 60" enable-background="new 0 0 208.55 60" xml:space="preserve">
<g>
	<path fill="#D0202D" d="M76.928,23.732c-0.309,0.622-0.58,1.205-0.894,1.764c-0.06,0.107-0.286,0.16-0.44,0.17
		c-1.26,0.089-2.522,0.157-3.783,0.241c-1.596,0.107-3.213,0.081-4.743,0.644c-3.801,1.397-6.162,4.06-6.824,8.073
		c-0.31,1.879-0.396,3.798-0.544,5.701c-0.135,1.741-0.604,3.399-1.272,4.99c-3.042,7.248-8.407,11.816-16.064,13.552
		c-2.391,0.542-4.868,0.739-7.317,0.978c-1.591,0.155-3.202,0.131-4.804,0.132c-9.776,0.01-19.552,0.005-29.328,0.005
		c-0.275,0-0.551,0-0.915,0c0.409-0.84,0.773-1.616,1.173-2.372c0.052-0.098,0.29-0.135,0.443-0.137
		c4.039-0.036,8.079-0.079,12.118-0.089c3.149-0.007,6.276-0.288,9.404-0.615c1.733-0.181,3.462-0.366,5.127-0.905
		c6.264-2.025,10.332-6.192,12.174-12.521c0.722-2.482,1.516-4.945,2.164-7.445c0.477-1.84,1.086-3.599,2.203-5.145
		c2.68-3.71,6.329-5.587,10.894-5.764c2.263-0.088,4.522-0.265,6.783-0.405c2.738-0.17,5.475-0.342,8.213-0.517
		c1.722-0.11,3.444-0.227,5.166-0.334C76.185,23.715,76.509,23.732,76.928,23.732z"/>
	<path fill="#05675E" d="M88.017,0C74.557,0,61.096-0.001,47.635,0.002c-3.353,0.001-6.672,0.31-9.932,1.135
		c-6.042,1.528-10.714,4.909-13.746,10.382c-1.498,2.704-2.796,5.519-4.183,8.285c-0.017,0.034-0.002,0.083-0.002,0.161
		c0.274,0,0.534,0,0.793,0c5.69,0,11.379-0.003,17.069,0.008c0.322,0.001,0.502-0.091,0.643-0.379
		c0.244-0.497,0.521-0.979,0.797-1.46c1.64-2.863,3.548-5.521,5.992-7.763c3.051-2.799,6.649-4.577,10.612-5.669
		C60.282,3.435,65,3.01,69.749,2.87c2.665-0.079,5.334-0.064,8.001-0.074c2.991-0.011,5.983,0.001,8.974-0.009
		c0.176-0.001,0.444-0.059,0.511-0.179C87.697,1.781,88.117,0.93,88.596,0C88.344,0,88.18,0,88.017,0z"/>
	<path fill="#05675E" d="M2.906,54.404c2.715,0.027,5.426-0.055,8.111-0.483c2.87-0.457,5.524-1.456,7.853-3.245
		c2.203-1.693,3.958-3.795,5.504-6.074c3.671-5.411,6.953-11.055,10.003-16.836c0.167-0.317,0.321-0.642,0.511-1.024
		c-1.781,0.176-3.481,0.339-5.179,0.511c-2.282,0.232-4.564,0.474-6.846,0.705c-2.267,0.229-4.536,0.453-6.804,0.673
		c-0.286,0.028-0.453,0.146-0.59,0.417c-3.6,7.151-7.21,14.296-10.819,21.443c-0.644,1.275-1.286,2.552-1.955,3.88
		C2.815,54.391,2.86,54.404,2.906,54.404z"/>
	<path fill="#05675E" d="M51.571,19.966c0.091,0,0.182,0,0.273,0c8.865,0.002,17.729,0.002,26.594,0.018
		c0.339,0.001,0.444-0.161,0.565-0.407c2.087-4.24,4.179-8.477,6.269-12.716c0.188-0.382,0.367-0.768,0.578-1.21
		c-0.236,0-0.402-0.006-0.567,0.001c-3.54,0.155-7.083,0.258-10.619,0.482c-3.323,0.21-6.604,0.742-9.808,1.682
		c-4.1,1.203-7.565,3.362-10.068,6.878c-1.184,1.663-2.235,3.419-3.346,5.133C51.486,19.873,51.529,19.919,51.571,19.966z"/>
	<path fill="#05675E" d="M128.359,20.083c-1.302-0.111-2.617-0.071-3.927-0.08c-1.664-0.011-3.328-0.003-4.886-0.003
		c-0.134,0.492-0.183,0.924-0.361,1.293c-2.014,4.172-4.048,8.335-6.076,12.501c-0.062,0.127-0.111,0.26-0.186,0.436
		c1.206,0,2.331,0.01,3.456-0.013c0.134-0.003,0.322-0.151,0.386-0.28c0.857-1.723,1.705-3.45,2.533-5.187
		c0.153-0.321,0.32-0.457,0.692-0.446c1.001,0.03,2.005,0.033,3.006,0c0.431-0.014,0.572,0.14,0.654,0.545
		c0.34,1.688,0.712,3.37,1.088,5.051c0.028,0.124,0.181,0.312,0.279,0.313c1.196,0.022,2.393,0.014,3.561,0.014
		c-0.889-1.892-1.024-3.949-1.622-5.896c0.188-0.06,0.292-0.087,0.391-0.125c2.004-0.76,3.454-2.057,3.787-4.259
		C131.423,22.048,130.711,20.284,128.359,20.083z M127.541,23.815c-0.278,1.245-1.145,1.999-2.318,2.155
		c-1.494,0.198-3.022,0.143-4.644,0.201c0.259-0.541,0.453-0.954,0.652-1.363c0.37-0.76,0.729-1.526,1.126-2.272
		c0.081-0.151,0.308-0.313,0.471-0.317c1.154-0.027,2.309-0.03,3.463-0.008C127.257,22.23,127.751,22.877,127.541,23.815z"/>
	<path fill="#05675E" d="M146.369,20.145c-0.345-0.073-0.701-0.127-1.052-0.129c-2.697-0.013-5.395-0.01-8.092-0.011
		c-0.075,0-0.151,0.015-0.1,0.01c-0.167,0.536-0.259,1.033-0.471,1.472c-1.703,3.535-3.43,7.059-5.148,10.586
		c-0.341,0.699-0.676,1.401-1.041,2.159c1.142,0,2.205-0.021,3.266,0.011c0.376,0.011,0.54-0.135,0.689-0.448
		c0.816-1.708,1.658-3.403,2.474-5.111c0.133-0.278,0.289-0.383,0.597-0.375c0.847,0.021,1.695,0.007,2.543,0.007
		c1.065,0,1.057,0.002,1.28,1.062c0.338,1.607,0.687,3.212,1.033,4.823c1.299,0,2.566,0,3.783,0
		c-0.89-1.858-0.999-3.914-1.624-5.859c0.189-0.062,0.32-0.096,0.445-0.146c2.075-0.826,3.556-2.189,3.769-4.525
		C148.887,21.848,148.173,20.527,146.369,20.145z M145.043,24.053c-0.363,1.105-1.193,1.793-2.282,1.924
		c-1.487,0.178-3,0.136-4.57,0.191c0.069-0.21,0.09-0.312,0.134-0.403c0.524-1.08,1.058-2.156,1.575-3.239
		c0.115-0.242,0.263-0.331,0.534-0.328c1.094,0.015,2.189,0.001,3.284,0.009C144.874,22.215,145.405,22.951,145.043,24.053z"/>
	<path fill="#05675E" d="M164.815,20.283c-1.273-0.618-2.626-0.853-4.037-0.896c-0.702,0.081-1.409,0.131-2.106,0.246
		c-4.63,0.768-8.188,4.577-8.615,8.862c-0.273,2.739,0.931,4.936,3.668,5.835c1.764,0.579,3.547,0.546,5.337,0.169
		c4.556-0.958,8.122-4.774,8.544-8.917C167.834,23.353,167.024,21.355,164.815,20.283z M164.034,24.696
		c-0.214,1.95-1.036,3.626-2.258,5.122c-0.899,1.101-1.959,2.017-3.322,2.492c-0.631,0.22-1.301,0.329-1.953,0.488
		c-2.105-0.096-3.282-1.403-2.971-3.578c0.452-3.164,2.088-5.584,4.912-7.138c0.877-0.483,1.844-0.67,2.854-0.619
		C163.191,21.56,164.241,22.811,164.034,24.696z"/>
	<path fill="#D0202D" d="M146.77,59.969c0.399,0.022,0.59-0.115,0.763-0.475c1.551-3.234,3.124-6.457,4.693-9.683
		c0.075-0.155,0.169-0.301,0.293-0.519c0.108,0.283,0.185,0.467,0.25,0.655c1.112,3.196,2.227,6.391,3.327,9.591
		c0.106,0.308,0.239,0.448,0.583,0.431c0.584-0.03,1.173-0.037,1.756,0c0.377,0.024,0.541-0.137,0.692-0.45
		c1.797-3.714,3.606-7.422,5.411-11.132c0.436-0.896,0.868-1.793,1.324-2.736c-1.023,0-1.971,0-2.805,0
		c-0.142,0.483-0.213,0.939-0.404,1.337c-1.297,2.707-2.619,5.403-3.935,8.101c-0.07,0.143-0.153,0.28-0.281,0.514
		c-0.342-0.972-0.649-1.84-0.953-2.709c-0.804-2.294-1.605-4.589-2.419-6.879c-0.052-0.147-0.205-0.364-0.316-0.367
		c-1.138-0.027-2.276-0.017-3.267-0.017c-0.199,0.583-0.319,1.102-0.545,1.57c-1.928,3.993-3.875,7.976-5.815,11.963
		c-0.119,0.244-0.223,0.495-0.358,0.796C145.479,59.96,146.126,59.933,146.77,59.969z"/>
	<path fill="#05675E" d="M197.477,25.626c0.508-1.047,0.998-2.02,1.452-3.011c0.153-0.333,0.35-0.427,0.706-0.424
		c2.081,0.018,4.163,0.015,6.245,0.006c0.51-0.002,1.01-0.018,1.372,0.497c0.447-0.918,0.862-1.77,1.298-2.667
		c-4.202,0-8.34,0-12.356,0c-0.141,0.487-0.208,0.946-0.4,1.343c-2.008,4.159-4.036,8.308-6.058,12.46
		c-0.056,0.116-0.099,0.238-0.165,0.401c1.097,0,2.128,0,3.16,0c3.5,0,7,0.003,10.5-0.008c0.171-0.001,0.433-0.068,0.498-0.188
		c0.398-0.74,0.752-1.504,1.113-2.245c-0.53,0.084-1.039,0.231-1.548,0.235c-2.806,0.023-5.612,0.011-8.419,0.009
		c-0.146,0-0.292-0.016-0.482-0.027c0.087-0.201,0.146-0.357,0.219-0.506c0.517-1.067,1.048-2.127,1.55-3.201
		c0.15-0.32,0.328-0.45,0.696-0.446c1.696,0.02,3.392,0.005,5.088,0.006c0.561,0,1.15-0.098,1.554,0.51
		c0.457-0.937,0.872-1.791,1.337-2.744C202.329,25.626,199.937,25.626,197.477,25.626z"/>
	<path fill="#05675E" d="M109.372,32.029c-2.405,0.021-4.811,0.007-7.216,0.007c-0.18,0-0.359,0-0.605,0
		c0.076-0.194,0.116-0.321,0.173-0.44c0.538-1.108,1.09-2.209,1.61-3.325c0.146-0.313,0.327-0.418,0.667-0.415
		c1.789,0.015,3.577,0.01,5.366,0c0.489-0.003,0.953,0.025,1.289,0.515c0.45-0.923,0.871-1.786,1.333-2.734
		c-2.492,0-4.895,0-7.364,0c0.522-1.069,1.022-2.056,1.483-3.061c0.141-0.308,0.322-0.385,0.637-0.383
		c2.035,0.012,4.071,0.005,6.106,0.005c0.559,0,1.147-0.107,1.549,0.511c0.461-0.948,0.876-1.801,1.303-2.681
		c-4.204,0-8.344,0-12.363,0c-0.124,0.462-0.173,0.894-0.351,1.263c-2.001,4.146-4.022,8.283-6.037,12.422
		c-0.076,0.156-0.145,0.315-0.237,0.516c0.789,0,1.497,0,2.206,0c3.824,0,7.648,0.003,11.472-0.01
		c0.177-0.001,0.444-0.096,0.516-0.23c0.388-0.716,0.727-1.458,1.045-2.115C111.102,31.929,110.237,32.022,109.372,32.029z"/>
	<path fill="#D0202D" d="M175.853,59.953c0.107,0,0.273-0.049,0.312-0.125c0.402-0.785,0.783-1.58,1.136-2.304
		c-0.677,0.072-1.327,0.196-1.977,0.202c-2.559,0.023-5.118,0.01-7.677,0.008c-0.191,0-0.383-0.017-0.621-0.029
		c0.079-0.189,0.126-0.317,0.185-0.439c0.525-1.08,1.068-2.152,1.569-3.244c0.167-0.365,0.377-0.473,0.771-0.467
		c1.757,0.024,3.515,0.02,5.272,0.005c0.467-0.004,0.891,0.036,1.213,0.489c0.441-0.907,0.86-1.768,1.326-2.727
		c-2.464,0-4.812,0-7.248,0c0.524-1.079,1.016-2.066,1.48-3.067c0.143-0.309,0.319-0.421,0.665-0.418
		c2.066,0.017,4.131,0.016,6.197,0.004c0.503-0.003,0.977,0.019,1.331,0.503c0.446-0.92,0.865-1.785,1.301-2.685
		c-4.145,0-8.221,0-12.169,0c-0.166,0.525-0.259,1.008-0.465,1.436c-1.642,3.413-3.306,6.816-4.962,10.222
		c-0.416,0.855-0.83,1.71-1.282,2.641C166.821,59.958,171.337,59.959,175.853,59.953z"/>
	<path fill="#D0202D" d="M105.44,59.921c-0.242-4.776-0.482-9.51-0.723-14.265c-1.298,0-2.554,0-3.701,0
		c-0.242,0.439-0.39,0.859-0.66,1.174c-2.896,3.384-5.81,6.751-8.719,10.123c-0.833,0.966-1.664,1.933-2.588,3.006
		c1.036,0,1.928,0.021,2.818-0.015c0.223-0.009,0.501-0.144,0.648-0.312c0.739-0.848,1.45-1.72,2.154-2.598
		c0.202-0.252,0.418-0.352,0.743-0.35c2.019,0.014,4.039,0.006,6.058,0.008c0.162,0,0.323,0.021,0.58,0.039c0,1.102,0,2.155,0,3.19
		C103.234,59.921,104.319,59.921,105.44,59.921z M101.58,54.404c-1.477-0.01-2.954-0.008-4.431-0.012
		c-0.042,0-0.083-0.027-0.223-0.075c1.614-1.948,3.189-3.85,4.839-5.841c0.029,0.247,0.057,0.388,0.06,0.529
		c0.032,1.646,0.059,3.292,0.091,4.938C101.919,54.188,101.935,54.407,101.58,54.404z"/>
	<path fill="#D0202D" d="M141.584,45.743c-1.296,0-2.524,0-3.655,0c-0.274,0.461-0.46,0.911-0.761,1.262
		c-2.725,3.186-5.471,6.355-8.209,9.53c-0.954,1.107-1.906,2.216-2.943,3.423c1.037,0,1.945,0.016,2.851-0.013
		c0.194-0.006,0.438-0.128,0.566-0.276c0.756-0.875,1.476-1.779,2.229-2.657c0.123-0.143,0.344-0.285,0.521-0.287
		c2.113-0.02,4.225-0.009,6.338-0.018c0.285-0.001,0.375,0.109,0.374,0.381c-0.002,0.771,0.012,1.542,0.026,2.312
		c0.003,0.178,0.029,0.355,0.044,0.517c1.141,0,2.227,0,3.346,0C142.066,55.171,141.825,50.468,141.584,45.743z M138.744,54.396
		c-1.594,0-3.201,0-4.935,0c1.635-1.975,3.204-3.87,4.773-5.765c0.054,0.022,0.108,0.044,0.162,0.066
		C138.744,50.586,138.744,52.475,138.744,54.396z"/>
	<path fill="#05675E" d="M91.144,22.581c0.135-0.291,0.308-0.394,0.632-0.392c2.128,0.015,4.256,0.016,6.384,0.003
		c0.482-0.003,0.922,0.039,1.258,0.499c0.442-0.909,0.861-1.772,1.291-2.656c-4.188,0-8.311,0-12.335,0
		c-0.109,0.437-0.14,0.847-0.307,1.192c-2.017,4.172-4.053,8.334-6.084,12.499c-0.072,0.148-0.137,0.298-0.231,0.505
		c1.143,0,2.219-0.013,3.295,0.008c0.325,0.006,0.489-0.103,0.627-0.392c0.885-1.847,1.799-3.68,2.674-5.53
		c0.174-0.367,0.385-0.474,0.775-0.47c1.773,0.02,3.547,0.014,5.32,0.005c0.463-0.002,0.889,0.053,1.229,0.503
		c0.444-0.91,0.865-1.772,1.315-2.695c-2.457,0-4.84,0-7.327,0C90.186,24.572,90.677,23.582,91.144,22.581z"/>
	<path fill="#05675E" d="M172.996,34.24c0.566,0.044,0.924-0.158,1.288-0.587c3.174-3.755,6.374-7.489,9.565-11.229
		c0.665-0.78,1.328-1.562,2.034-2.393c-1.288,0-2.493,0-3.738,0c0.2,0.518-0.001,0.886-0.304,1.257
		c-2.08,2.54-4.146,5.091-6.218,7.637c-0.5,0.614-1.005,1.223-1.599,1.946c-0.168-3.712-0.329-7.276-0.491-10.834
		c-1.218,0-2.375,0-3.455,0c0.098,0.397,0.257,0.773,0.275,1.156c0.176,3.617,0.327,7.236,0.488,10.854
		c0.032,0.706,0.078,1.411,0.122,2.182C171.673,34.228,172.338,34.189,172.996,34.24z"/>
	<path fill="#D0202D" d="M97.027,45.601c-0.288,0-0.479,0-0.671,0c-3.314,0-6.628,0-9.942,0c-1.171,0-2.343-0.007-3.514,0.009
		c-0.157,0.002-0.394,0.078-0.455,0.193c-0.414,0.781-0.79,1.582-1.13,2.277c0.658-0.08,1.328-0.209,2.002-0.232
		c1.139-0.039,2.281-0.011,3.421-0.009c0.162,0,0.324,0.015,0.571,0.027c-1.976,4.054-3.921,8.043-5.907,12.118
		c1.072,0,2.055-0.035,3.033,0.014c0.532,0.027,0.777-0.167,1.001-0.634c1.781-3.705,3.596-7.394,5.386-11.095
		c0.157-0.325,0.336-0.45,0.701-0.439c0.955,0.027,1.911,0.019,2.867,0.005c0.491-0.007,0.955,0.021,1.308,0.515
		C96.143,47.428,96.561,46.565,97.027,45.601z"/>
	<path fill="#D0202D" d="M116.553,57.558c-1.387,0.028-2.774,0.008-4.162,0.006c-0.158,0-0.317-0.017-0.545-0.03
		c1.946-3.993,3.856-7.913,5.784-11.87c-1.406,0-2.735,0-3.954,0c-0.143,0.487-0.211,0.932-0.398,1.32
		c-2.013,4.173-4.046,8.337-6.072,12.504c-0.065,0.134-0.118,0.273-0.182,0.421c0.083,0.025,0.125,0.048,0.168,0.048
		c3.36,0.003,6.72,0.007,10.08-0.003c0.122,0,0.301-0.101,0.355-0.206c0.413-0.807,0.802-1.626,1.163-2.367
		C118.051,57.443,117.303,57.542,116.553,57.558z"/>
	<path fill="#05675E" d="M185.009,34.237c0.374,0.009,0.569-0.107,0.734-0.45c1.87-3.868,3.757-7.727,5.639-11.589
		c0.348-0.714,0.691-1.429,1.048-2.167c-1.416,0-2.766,0-3.991,0c-0.156,0.51-0.238,0.981-0.437,1.395
		c-1.387,2.887-2.798,5.762-4.201,8.641c-0.66,1.354-1.316,2.71-2.021,4.161C182.92,34.228,183.965,34.212,185.009,34.237z"/>
	<path fill="#D0202D" d="M122.923,59.973c0.428,0.016,0.618-0.148,0.793-0.51c2.146-4.435,4.308-8.863,6.465-13.294
		c0.078-0.16,0.144-0.325,0.227-0.514c-1.395,0-2.73,0-3.976,0c-0.104,0.428-0.133,0.838-0.298,1.182
		c-1.627,3.387-3.277,6.763-4.919,10.142c-0.469,0.966-0.937,1.933-1.446,2.982C120.891,59.961,121.908,59.935,122.923,59.973z"/>
	<path fill="#D0202D" d="M75.378,46.924c-2.02,4.184-4.061,8.358-6.094,12.536c-0.072,0.147-0.13,0.3-0.215,0.497
		c1.188,0,2.311,0.012,3.434-0.016c0.139-0.004,0.328-0.196,0.402-0.347c2.2-4.49,4.389-8.985,6.578-13.48
		c0.069-0.141,0.124-0.288,0.196-0.456c-1.393,0-2.712,0-3.958,0C75.601,46.114,75.558,46.552,75.378,46.924z"/>
	<path fill="#05675E" d="M98.692,37.213c-0.998-0.061-2.001-0.033-3.001-0.068c-0.313-0.011-0.463,0.114-0.592,0.386
		c-0.537,1.141-1.096,2.271-1.648,3.405c-0.309,0.633-0.62,1.265-0.961,1.962c1.418,0,2.762,0.074,4.095-0.017
		c2.131-0.146,3.478-1.396,3.841-3.406C100.651,38.228,99.958,37.29,98.692,37.213z M98.723,39.354
		c-0.175,1.254-1.259,2.279-2.531,2.367c-0.422,0.029-0.848,0.005-1.366,0.005c0.266-0.552,0.489-1.019,0.714-1.484
		c0.261-0.54,0.511-1.087,0.799-1.613c0.071-0.129,0.267-0.252,0.414-0.263c0.397-0.03,0.801-0.011,1.2,0.014
		C98.591,38.418,98.813,38.709,98.723,39.354z"/>
	<path fill="#05675E" d="M126.869,37.114c-2.38-0.747-5.038,0.66-5.562,3.113c-0.313,1.466,0.321,2.509,1.756,2.838
		c0.297,0.068,0.61,0.069,0.763,0.084c2.204-0.073,3.912-1.318,4.444-3.132C128.686,38.605,128.194,37.53,126.869,37.114z
		 M124.106,42c-0.771,0.089-1.273-0.347-1.261-1.096c0.025-1.557,1.72-3.082,3.111-2.801c0.529,0.107,0.828,0.483,0.808,1.018
		C126.716,40.43,125.406,41.849,124.106,42z"/>
	<path fill="#05675E" d="M163.044,37.159c-2.136-0.767-5.013,0.263-5.701,3.004c-0.376,1.5,0.314,2.588,1.779,2.909
		c0.312,0.068,0.641,0.066,0.961,0.097c2.165-0.16,3.844-1.483,4.281-3.399C164.642,38.556,164.169,37.563,163.044,37.159z
		 M160.191,41.993c-0.798,0.114-1.33-0.313-1.329-1.068c0.001-1.442,1.622-3.005,2.951-2.846c0.722,0.087,1.032,0.467,0.962,1.184
		C162.652,40.523,161.428,41.816,160.191,41.993z"/>
	<path fill="#05675E" d="M108.108,37.149c-1.449,0.001-2.899,0.014-4.348-0.007c-0.346-0.005-0.518,0.11-0.664,0.417
		c-0.786,1.655-1.595,3.299-2.395,4.948c-0.058,0.119-0.103,0.245-0.171,0.412c1.872,0,3.689,0.003,5.506-0.007
		c0.098-0.001,0.239-0.08,0.286-0.164c0.171-0.303,0.31-0.624,0.499-1.018c-1.35,0-2.617,0-3.964,0
		c0.129-0.284,0.245-0.482,0.309-0.695c0.124-0.417,0.394-0.516,0.803-0.496c0.692,0.034,1.387,0.023,2.081,0.008
		c0.147-0.003,0.356-0.066,0.425-0.174c0.186-0.291,0.313-0.621,0.504-1.02c-1.017,0-1.957,0-2.913,0
		c0.26-0.96,0.317-1.006,1.184-1.006c0.586,0,1.172,0,1.758,0c1.153,0,1.154,0,1.578-1.071c0.005-0.013,0.001-0.03,0.001-0.125
		C108.409,37.149,108.259,37.149,108.108,37.149z"/>
	<path fill="#05675E" d="M135.792,43.023c0.516-0.113,1.065-0.378,1.448-0.735c1.025-0.955,0.68-2.38-0.632-2.86
		c-0.201-0.074-0.41-0.127-0.618-0.181c-0.386-0.101-0.786-0.167-1.156-0.309c-0.155-0.06-0.366-0.297-0.344-0.416
		c0.029-0.159,0.247-0.383,0.405-0.401c0.53-0.062,1.074-0.096,1.603-0.045c0.541,0.052,1.072,0.217,1.626,0.337
		c0.155-0.331,0.303-0.647,0.459-0.98c-1.244-0.449-2.494-0.638-3.757-0.447c-0.567,0.086-1.173,0.335-1.623,0.687
		c-0.977,0.766-0.767,2.048,0.356,2.575c0.249,0.117,0.515,0.199,0.779,0.279c0.427,0.128,0.872,0.208,1.281,0.376
		c0.176,0.072,0.4,0.322,0.389,0.477c-0.013,0.19-0.223,0.397-0.396,0.535c-0.118,0.094-0.325,0.127-0.485,0.11
		c-0.791-0.083-1.596-0.12-2.363-0.309c-0.904-0.223-0.89-0.283-1.253,0.595c-0.017,0.04-0.014,0.088-0.027,0.176
		C132.869,43.08,134.307,43.347,135.792,43.023z"/>
	<path fill="#05675E" d="M149.781,37.145c-0.375,0-0.701,0.034-1.017-0.008c-0.458-0.062-0.73,0.152-1.01,0.479
		c-1.393,1.625-2.808,3.231-4.213,4.846c-0.112,0.128-0.215,0.263-0.372,0.457c0.236,0,0.361-0.016,0.481,0.003
		c0.734,0.116,1.319-0.075,1.704-0.757c0.065-0.116,0.231-0.245,0.353-0.248c0.904-0.021,1.808-0.011,2.732-0.011
		c0.039,0.363,0.073,0.678,0.106,0.989c0.551,0,1.053,0,1.592,0C150.019,40.982,149.902,39.097,149.781,37.145z M148.259,40.772
		c-0.536,0-1.124,0-1.835,0c0.616-0.743,1.169-1.411,1.722-2.078c0.038,0.007,0.075,0.014,0.113,0.021
		C148.259,39.385,148.259,40.055,148.259,40.772z"/>
	<path fill="#05675E" d="M139.387,42.92c0.529,0,0.961-0.017,1.39,0.006c0.27,0.014,0.411-0.082,0.526-0.326
		c0.458-0.974,1.011-1.91,1.387-2.914c0.384-1.026,0.941-1.588,2.087-1.326c0.073,0.017,0.162,0.023,0.229-0.004
		c0.118-0.048,0.27-0.098,0.325-0.195c0.173-0.3,0.308-0.623,0.464-0.951c-0.085-0.029-0.126-0.055-0.167-0.055
		c-1.833-0.003-3.666-0.006-5.499,0.001c-0.107,0-0.267,0.049-0.312,0.127c-0.188,0.323-0.341,0.667-0.546,1.08
		c0.813,0,1.515,0,2.325,0C140.835,39.933,140.124,41.4,139.387,42.92z"/>
	<path fill="#05675E" d="M152.799,42.926c0.276,0.015,0.41-0.096,0.523-0.336c0.452-0.96,1.003-1.882,1.365-2.874
		c0.391-1.075,0.991-1.615,2.16-1.355c0.073,0.016,0.161,0.019,0.229-0.006c0.093-0.036,0.209-0.085,0.252-0.163
		c0.173-0.316,0.321-0.645,0.512-1.038c-1.987,0-3.878-0.003-5.769,0.008c-0.097,0.001-0.233,0.094-0.282,0.183
		c-0.169,0.303-0.306,0.622-0.494,1.016c0.793,0,1.507,0,2.314,0c-0.755,1.557-1.468,3.028-2.21,4.559
		C151.915,42.92,152.358,42.903,152.799,42.926z"/>
	<path fill="#05675E" d="M117.468,37.144c-0.276-0.014-0.409,0.098-0.523,0.339c-0.607,1.279-1.231,2.549-1.85,3.822
		c-0.253,0.521-0.509,1.041-0.788,1.612c1.797,0,3.52,0.003,5.243-0.008c0.097-0.001,0.233-0.088,0.282-0.174
		c0.169-0.302,0.307-0.621,0.499-1.021c-1.262,0-2.433,0-3.679,0c0.748-1.544,1.457-3.005,2.213-4.564
		C118.324,37.149,117.895,37.166,117.468,37.144z"/>
	<path fill="#05675E" d="M110.164,41.711c0.747-1.543,1.458-3.012,2.207-4.559c-0.495,0-0.893,0.023-1.287-0.007
		c-0.342-0.026-0.525,0.097-0.671,0.409c-0.582,1.239-1.19,2.466-1.788,3.698c-0.26,0.535-0.52,1.07-0.809,1.667
		c1.735,0,3.394,0.003,5.053-0.008c0.094-0.001,0.224-0.097,0.273-0.184c0.163-0.293,0.298-0.602,0.496-1.016
		C112.442,41.711,111.343,41.711,110.164,41.711z"/>
</g>
</svg>
