<?xml version="1.0" encoding="UTF-8" standalone="no"?>
<svg width="267px" height="30px" viewBox="0 0 267 30" version="1.1" xmlns="http://www.w3.org/2000/svg" xmlns:xlink="http://www.w3.org/1999/xlink">
    <!-- Generator: Sketch 3.8.3 (29802) - http://www.bohemiancoding.com/sketch -->
    <title>Page 1</title>
    <desc>Created with Sketch.</desc>
    <defs>
        <path d="M760.725579,60 L741.002997,90 L748.745235,89.9886758 L768.468804,60.0101918 L760.725579,60 Z M745.57948,60 L725.847033,89.9886758 L735.948049,89.9886758 L755.67951,60 L745.57948,60 Z M729.170631,60 L709.439171,89.9886758 L721.905871,89.9886758 L741.629439,60 L729.170631,60 Z M701.722582,60 L682,89.9886758 L705.663744,89.9886758 L725.403097,60.0101918 L701.722582,60 Z M894.513979,60.1189038 L894.513979,89.9886758 L948.331807,89.9886758 L948.331807,72.164427 L920.553272,72.1531028 L920.561164,77.9454175 L938.866112,77.965801 L938.866112,82.3992149 L903.987566,82.3890231 L903.987566,67.719689 L948.331807,67.7094972 L948.331807,60.1098445 L894.513979,60.1189038 Z M861.227682,74.2707232 L842.122664,60.1098445 L832.64809,60.1189038 L832.64809,89.9886758 L842.113785,89.9886758 L842.122664,71.8541446 L857.434499,82.2202929 L865.003108,82.2101012 L880.31593,71.8643364 L880.307051,89.9886758 L889.781625,89.9886758 L889.781625,60.1189038 L880.31593,60.1098445 L861.227682,74.2707232 Z M766.571718,90 L777.934499,89.9886758 L782.362017,83.2779707 L818.502327,83.2689114 L818.502327,89.9886758 L827.968022,90 L827.968022,60.1189038 L786.2943,60.1098445 L766.571718,90 Z M792.533076,67.8091499 L818.502327,67.8091499 L818.511205,75.2491318 L787.642878,75.2593236 L792.533076,67.8091499 Z M774.314943,60.1098445 L754.574604,89.9886758 L760.890328,89.9886758 L780.613897,60.1098445 L774.314943,60.1098445 Z" id="path-1"></path>
    </defs>
    <g id="Page-1" stroke="none" stroke-width="1" fill="none" fill-rule="evenodd">
        <g id="Splash_DesignServices" transform="translate(-850.000000, -1921.000000)">
            <g id="customers" transform="translate(0.000000, 1701.000000)">
                <g id="AMG" transform="translate(168.000000, 160.000000)">
                    <mask id="mask-2" fill="white">
                        <use xlink:href="#path-1"></use>
                    </mask>
                    <use id="Page-1" fill="#000000" xlink:href="#path-1"></use>
                </g>
            </g>
        </g>
    </g>
</svg>