<?xml version="1.0" encoding="UTF-8" standalone="no"?>
<svg width="61px" height="60px" viewBox="0 0 61 60" version="1.1" xmlns="http://www.w3.org/2000/svg" xmlns:xlink="http://www.w3.org/1999/xlink">
    <!-- Generator: Sketch 3.8.3 (29802) - http://www.bohemiancoding.com/sketch -->
    <title>Fill 1</title>
    <desc>Created with Sketch.</desc>
    <defs></defs>
    <g id="Page-1" stroke="none" stroke-width="1" fill="none" fill-rule="evenodd">
        <g id="Splash_DesignServices" transform="translate(-1065.000000, -3029.000000)" fill="#AF2D6E">
            <g id="customers" transform="translate(0.000000, 1701.000000)">
                <g id="city-of" transform="translate(1025.000000, 1010.000000)">
                    <path d="M85.708597,363.071393 C80.5790688,363.071393 76.0528832,365.631566 73.3452809,369.535265 L67.3750904,369.535265 C64.6674881,365.631566 60.1409306,363.071393 55.0117744,363.071393 C46.720835,363.071393 40,369.754994 40,378 L48.1834387,378 C48.1834387,374.255734 51.2466486,371.209494 55.0117744,371.209494 C58.7769001,371.209494 61.8397381,374.255734 61.8397381,378 L64.3948308,378 L70.0231768,378 L70.6968226,378 L77.1650869,378 L78.8802613,378 C78.8802613,374.255734 81.9434712,371.209494 85.708597,371.209494 C89.4737227,371.209494 92.5369326,374.255734 92.5369326,378 L100.720371,378 C100.720371,369.754994 93.9991643,363.071393 85.708597,363.071393 L85.708597,363.071393 Z M77.3365672,350.436991 C75.2148247,351.546732 73.6819178,352.348705 70.3601857,352.348705 C67.0384535,352.348705 65.5055466,351.546732 63.3838042,350.436991 C60.9443955,349.161529 57.9090837,347.573859 52.5076421,347.573859 C47.9818285,347.573859 43.5817423,349.37349 40,351.457953 L40,361.319852 C43.1740583,358.84328 48.1864145,355.711961 52.5076421,355.711961 C55.8885183,355.711961 57.4344442,356.520592 59.5740415,357.639951 C61.9993151,358.908385 65.0175161,360.486806 70.3601857,360.486806 C75.7028552,360.486806 78.7210562,358.908385 81.1459579,357.639951 C83.2859271,356.520592 84.8318531,355.711961 88.2127292,355.711961 C92.5350728,355.711961 97.5481729,358.84476 100.720371,361.319482 L100.720371,351.458323 C97.138257,349.37349 92.7385428,347.573859 88.2127292,347.573859 C82.8109157,347.573859 79.7756039,349.161529 77.3365672,350.436991 L77.3365672,350.436991 Z M100.720371,318 L100.720371,326.56942 L100.720371,343.840691 L92.1032104,343.840691 L92.1032104,326.56942 L83.3525106,326.56942 L83.3525106,335.27127 L83.3525106,343.840691 L74.7353496,343.840691 L65.9850218,343.840691 L57.3678608,343.840691 L57.3678608,335.27127 L57.3678608,326.56942 L48.617161,326.56942 L48.617161,343.840691 L40,343.840691 L40,326.56942 L40,326.56942 L40,318 L48.617161,318 L57.3678608,318 L65.9850218,318 L65.9850218,326.56942 L65.9850218,335.27127 L74.7353496,335.27127 L74.7353496,326.56942 L74.7353496,318 L83.3525106,318 L92.1032104,318 L100.720371,318 Z" id="Fill-1"></path>
                </g>
            </g>
        </g>
    </g>
</svg>