<?xml version="1.0" encoding="utf-8"?>
<!-- Generator: Adobe Illustrator 19.1.0, SVG Export Plug-In . SVG Version: 6.00 Build 0)  -->
<svg version="1.1" id="Layer_1" xmlns="http://www.w3.org/2000/svg" xmlns:xlink="http://www.w3.org/1999/xlink" x="0px" y="0px"
	 width="179.231px" height="59.998px" viewBox="0 0 179.231 59.998" enable-background="new 0 0 179.231 59.998"
	 xml:space="preserve">
<polygon fill="#045EA3" points="51.461,59.697 47.317,59.697 38.81,39.352 44.752,39.352 49.539,52.304 49.623,52.304 
	54.326,39.352 59.927,39.352 "/>
<g>
	<defs>
		<rect id="SVGID_1_" width="179.231" height="59.998"/>
	</defs>
	<clipPath id="SVGID_2_">
		<use xlink:href="#SVGID_1_"  overflow="visible"/>
	</clipPath>
	<path clip-path="url(#SVGID_2_)" fill="#045EA3" d="M91.488,44.611c-1.028-0.6-2.008-0.729-2.566-0.729
		c-1.198,0-2.31,0.426-3.719,1.583v14.106h-5.77V39.352h4.873l0.642,2.094c1.838-1.625,3.42-2.564,5.555-2.564
		c0.985,0,2.183,0.299,3.077,0.939L91.488,44.611z"/>
	<path clip-path="url(#SVGID_2_)" fill="#045EA3" d="M99.98,59.996c-3.461,0-6.07-0.813-7.992-2.009l1.795-4.19
		c1.708,1.199,3.721,1.883,5.642,1.883c1.967,0,3.207-0.642,3.207-1.837c0-3.208-9.364-1.926-9.364-8.764
		c0-3.721,2.995-6.198,7.91-6.198c2.693,0,4.574,0.385,6.24,1.026v4.788c-1.84-0.729-3.804-1.368-5.983-1.368
		c-1.67,0-2.567,0.468-2.567,1.452c0,2.779,9.532,1.754,9.532,8.807C108.401,58.246,104.298,59.996,99.98,59.996"/>
	<path clip-path="url(#SVGID_2_)" fill="#045EA3" d="M117.39,59.996c-3.761,0-5.172-2.135-5.172-4.87V44.416h-3.717v-4.535h3.717
		V34.65l5.773-1.712v6.944h6.324l-1.138,4.535h-5.186v8.528c0,1.496,0.597,2.223,1.92,2.223c1.241,0,2.523-0.553,3.293-1.027
		l1.496,3.591C122.391,59.398,119.399,59.996,117.39,59.996"/>
	<path clip-path="url(#SVGID_2_)" fill="#045EA3" d="M142.706,59.595V46.403c0-5.341-2.992-7.521-8.381-7.521
		c-2.735,0-5.386,0.424-8.164,2.223l1.755,3.506c1.366-0.768,3.12-1.368,5.172-1.368c2.007,0,3.717,0.897,3.717,3.035v0.343
		l-3.42,0.126c-5.128,0.172-8.592,2.394-8.592,6.669c0,4.021,2.908,6.582,6.755,6.582c2.605,0,4.403-0.983,5.727-2.178l0.879,1.777
		H142.706z M136.762,54.57c-0.556,0.425-1.582,0.939-3.117,0.939c-1.969,0-3.081-0.982-3.081-2.522c0-1.538,1.198-2.394,3.677-2.48
		l2.521-0.084V54.57z"/>
	<polygon clip-path="url(#SVGID_2_)" fill="#045EA3" points="151.062,59.595 151.062,44.171 151.062,27.107 145.249,28.865 
		145.249,44.171 145.249,59.595 	"/>
	<path clip-path="url(#SVGID_2_)" fill="#045EA3" d="M9.416,59.996c-4.06,0-6.967-1.323-9.416-2.824l2.572-4.817
		c1.947,1.32,4.717,2.809,6.516,2.809c1.848,0,4.265-0.606,4.265-2.752c0-3.72-6.672-4.382-10.093-8.272
		c-1.066-1.24-1.794-2.821-1.794-5.001c0-4.274,3.376-8.037,9.574-8.037c2.993,0,5.472,0.77,7.098,1.712l-0.085,5.393
		c-2.396-1.282-4.667-2.402-6.977-2.402c-2.094,0-3.479,0.928-3.479,2.552c0,4.875,12.122,4.457,12.122,13.306
		C19.717,56.792,15.186,59.996,9.416,59.996"/>
	<path clip-path="url(#SVGID_2_)" fill="#045EA3" d="M64.587,51.043c0.129,2.724,2.683,4.343,5.365,4.343
		c1.957,0,3.449-0.382,5.715-1.449l1.32,3.663c-2.819,1.744-5.587,2.344-7.97,2.344c-7.24,0-10.22-5.113-10.22-10.392
		c0-5.705,3.405-10.645,9.453-10.645c5.535,0,9.366,4.131,9.366,10.389v1.746H64.587z M68.079,43.123
		c-2.3,0-3.619,2.129-3.619,3.963h7.281C71.611,45.167,70.55,43.123,68.079,43.123"/>
	<path clip-path="url(#SVGID_2_)" fill="#045EA3" d="M26.897,51.043c0.127,2.724,2.682,4.343,5.365,4.343
		c1.956,0,3.447-0.382,5.714-1.449l1.318,3.663c-2.819,1.744-5.587,2.344-7.971,2.344c-7.239,0-10.218-5.113-10.218-10.392
		c0-5.705,3.405-10.645,9.453-10.645c5.535,0,9.366,4.131,9.366,10.389v1.746H26.897z M30.388,43.123
		c-2.3,0-3.617,2.129-3.617,3.963h7.278C33.921,45.167,32.857,43.123,30.388,43.123"/>
</g>
<g>
	<defs>
		<path id="SVGID_3_" d="M162.38,1.481h-0.001c-2.265,0.627-4.221,1.345-5.906,2.116c-1.711,0.785-3.142,1.625-4.331,2.486
			c-1.25,0.903-2.398,2.033-2.718,3.272c-0.321,1.234,0.137,2.777,0.789,4.172c0.635,1.321,1.477,2.747,2.588,4.26
			c-0.044-0.432-0.031-0.846,0.053-1.227c0.263-1.206,1.288-2.289,2.405-3.152c0.814-0.625,1.753-1.235,2.833-1.812
			c1.746-0.931,3.858-1.785,6.404-2.491c2.549-0.708,4.803-1.064,6.775-1.163c0.042-1.227-0.018-2.346-0.153-3.36
			c-0.186-1.401-0.612-2.829-1.526-3.662c-0.293-0.266-0.652-0.487-1.053-0.666C166.692,0.458,164.646,0.851,162.38,1.481"/>
	</defs>
	<clipPath id="SVGID_4_">
		<use xlink:href="#SVGID_3_"  overflow="visible"/>
	</clipPath>
	
		<linearGradient id="SVGID_5_" gradientUnits="userSpaceOnUse" x1="-165.9587" y1="267.5812" x2="-164.427" y2="267.5812" gradientTransform="matrix(19.0324 -5.2776 -5.2776 -19.0324 4720.5518 4228.7622)">
		<stop  offset="0" style="stop-color:#E3292A"/>
		<stop  offset="0.2968" style="stop-color:#E02929"/>
		<stop  offset="0.4167" style="stop-color:#D72929"/>
		<stop  offset="0.5047" style="stop-color:#CB2828"/>
		<stop  offset="0.5771" style="stop-color:#B92727"/>
		<stop  offset="0.6399" style="stop-color:#A32524"/>
		<stop  offset="0.696" style="stop-color:#882120"/>
		<stop  offset="0.746" style="stop-color:#6D1A19"/>
		<stop  offset="0.7747" style="stop-color:#5B1413"/>
		<stop  offset="1" style="stop-color:#5B1413"/>
	</linearGradient>
	<polygon clip-path="url(#SVGID_4_)" fill="url(#SVGID_5_)" points="144.588,1.505 169.725,-5.465 175.825,16.535 150.689,23.505 	
		"/>
</g>
<g>
	<defs>
		<path id="SVGID_6_" d="M168.538,0.254c0.401,0.179,0.76,0.4,1.053,0.666c0.913,0.833,1.34,2.261,1.526,3.662
			c0.134,1.014,0.194,2.134,0.153,3.36c-0.064,1.974-0.38,4.229-1.042,6.787v0.002c-0.663,2.559-1.48,4.687-2.38,6.447
			c1.039,0.646,2.038,1.154,2.982,1.545c1.305,0.537,2.753,0.882,3.933,0.509c0.378-0.12,0.746-0.324,1.105-0.581
			c0.745-1.699,1.424-3.665,2.013-5.935c0.591-2.285,0.94-4.347,1.112-6.202c0.168-1.862,0.157-3.516,0.023-4.973
			c-0.141-1.535-0.566-3.091-1.475-3.986c-0.911-0.896-2.477-1.271-4.011-1.403c-0.603-0.051-1.239-0.079-1.909-0.079
			C170.662,0.073,169.635,0.13,168.538,0.254"/>
	</defs>
	<clipPath id="SVGID_7_">
		<use xlink:href="#SVGID_6_"  overflow="visible"/>
	</clipPath>
	
		<linearGradient id="SVGID_8_" gradientUnits="userSpaceOnUse" x1="-147.0464" y1="309.0764" x2="-145.5154" y2="309.0764" gradientTransform="matrix(-5.0983 19.054 19.054 5.0983 -6462.3101 1226.6305)">
		<stop  offset="0" style="stop-color:#2AA6DA"/>
		<stop  offset="0.1375" style="stop-color:#2DA2D3"/>
		<stop  offset="0.2704" style="stop-color:#3398C4"/>
		<stop  offset="0.4015" style="stop-color:#388AAD"/>
		<stop  offset="0.5315" style="stop-color:#397690"/>
		<stop  offset="0.6608" style="stop-color:#355D6E"/>
		<stop  offset="0.7896" style="stop-color:#2B424A"/>
		<stop  offset="0.9155" style="stop-color:#1A2326"/>
		<stop  offset="1" style="stop-color:#010101"/>
	</linearGradient>
	<polygon clip-path="url(#SVGID_7_)" fill="url(#SVGID_8_)" points="185.036,1.646 178.404,26.431 161.97,22.033 168.602,-2.752 	
		"/>
</g>
<g>
	<defs>
		<path id="SVGID_9_" d="M155.259,13.408c-1.116,0.863-2.142,1.946-2.405,3.152c-0.084,0.381-0.098,0.795-0.053,1.227
			c1.098,1.499,2.458,3.084,4.139,4.737c1.674,1.644,3.272,2.977,4.78,4.05c1.523,1.081,2.956,1.898,4.287,2.497
			c1.418,0.639,2.985,1.08,4.227,0.736c1.244-0.346,2.361-1.53,3.248-2.806c0.83-1.202,1.639-2.639,2.384-4.35
			c-0.359,0.257-0.727,0.461-1.105,0.581c-1.18,0.373-2.628,0.028-3.933-0.509c-0.945-0.391-1.943-0.899-2.982-1.545
			c-1.683-1.044-3.476-2.448-5.364-4.3v-0.001c-1.883-1.851-3.321-3.62-4.392-5.28C157.011,12.173,156.072,12.783,155.259,13.408"/>
	</defs>
	<clipPath id="SVGID_10_">
		<use xlink:href="#SVGID_9_"  overflow="visible"/>
	</clipPath>
	
		<linearGradient id="SVGID_11_" gradientUnits="userSpaceOnUse" x1="-138.3512" y1="276.2865" x2="-136.8194" y2="276.2865" gradientTransform="matrix(11.5759 9.5457 9.5457 -11.5759 -880.9463 4532.0054)">
		<stop  offset="0" style="stop-color:#434344"/>
		<stop  offset="1" style="stop-color:#DCDDDE"/>
	</linearGradient>
	<polygon clip-path="url(#SVGID_10_)" fill="url(#SVGID_11_)" points="162.111,0.252 184.977,19.107 166.512,41.497 143.648,22.641 
			"/>
</g>
<polygon fill="#045EA3" points="51.487,59.592 47.342,59.592 38.832,39.239 44.776,39.239 49.564,52.196 49.649,52.196 
	54.35,39.239 59.953,39.239 "/>
<rect fill="none" width="179.231" height="59.998"/>
<path fill="#045EA3" d="M91.523,44.5c-1.028-0.601-2.008-0.73-2.566-0.73c-1.197,0-2.31,0.428-3.72,1.584v14.109h-5.773V39.238
	h4.876l0.641,2.095c1.839-1.623,3.42-2.563,5.557-2.563c0.985,0,2.182,0.297,3.079,0.941L91.523,44.5z"/>
<path fill="#045EA3" d="M100.017,59.89c-3.464,0-6.07-0.813-7.995-2.009l1.797-4.191c1.708,1.196,3.72,1.881,5.645,1.881
	c1.966,0,3.208-0.64,3.208-1.836c0-3.209-9.366-1.926-9.366-8.767c0-3.721,2.995-6.198,7.91-6.198c2.694,0,4.577,0.384,6.243,1.026
	v4.789c-1.84-0.729-3.806-1.372-5.984-1.372c-1.671,0-2.566,0.47-2.566,1.455c0,2.781,9.531,1.754,9.531,8.81
	C108.438,58.139,104.334,59.89,100.017,59.89"/>
<path fill="#045EA3" d="M117.433,59.89c-3.763,0-5.174-2.137-5.174-4.875V44.306h-3.718v-4.535h3.718v-5.232l5.774-1.715v6.947
	h6.324l-1.14,4.535h-5.184v8.53c0,1.494,0.597,2.223,1.92,2.223c1.241,0,2.524-0.555,3.295-1.027l1.495,3.596
	C122.436,59.293,119.441,59.89,117.433,59.89"/>
<path fill="#045EA3" d="M138.22,59.463l-0.899-1.753c-1.325,1.196-3.121,2.18-5.728,2.18c-3.847,0-6.755-2.562-6.755-6.586
	c0-4.274,3.464-6.498,8.591-6.668l3.422-0.128v-0.343c0-2.135-1.711-3.035-3.718-3.035c-2.054,0-3.808,0.599-5.173,1.37
	l-1.755-3.507c2.779-1.798,5.43-2.221,8.167-2.221c5.389,0,8.38,2.178,8.38,7.52v13.196L138.22,59.463z M136.807,50.313l-2.52,0.087
	c-2.482,0.087-3.679,0.941-3.679,2.48c0,1.537,1.112,2.522,3.08,2.522c1.538,0,2.564-0.515,3.119-0.943V50.313z"/>
<polygon fill="#045EA3" points="151.112,59.487 151.112,44.061 151.112,26.992 145.297,28.75 145.297,44.061 145.297,59.487 "/>
<path fill="#045EA3" d="M9.431,59.89c-4.062,0-6.968-1.323-9.419-2.823l2.573-4.822c1.947,1.319,4.719,2.81,6.518,2.81
	c1.849,0,4.266-0.608,4.266-2.752c0-3.721-6.673-4.386-10.096-8.275c-1.068-1.239-1.794-2.82-1.794-5.005
	c0-4.273,3.378-8.036,9.577-8.036c2.991,0,5.472,0.77,7.097,1.711l-0.085,5.394c-2.396-1.28-4.669-2.402-6.977-2.402
	c-2.097,0-3.48,0.928-3.48,2.555c0,4.873,12.123,4.455,12.123,13.308C19.735,56.685,15.203,59.89,9.431,59.89"/>
<path fill="#045EA3" d="M64.617,50.932c0.127,2.725,2.682,4.344,5.366,4.344c1.959,0,3.451-0.38,5.717-1.446l1.317,3.662
	c-2.818,1.746-5.587,2.346-7.971,2.346c-7.24,0-10.222-5.112-10.222-10.393c0-5.708,3.406-10.648,9.455-10.648
	c5.537,0,9.369,4.131,9.369,10.392v1.744H64.617z M68.109,43.013c-2.3,0-3.621,2.127-3.621,3.961h7.283
	C71.643,45.057,70.579,43.013,68.109,43.013"/>
<path fill="#045EA3" d="M26.916,50.932c0.127,2.725,2.683,4.344,5.367,4.344c1.957,0,3.449-0.38,5.714-1.446l1.321,3.662
	c-2.821,1.746-5.589,2.346-7.975,2.346c-7.24,0-10.219-5.112-10.219-10.393c0-5.708,3.405-10.648,9.453-10.648
	c5.537,0,9.368,4.131,9.368,10.392v1.744H26.916z M30.408,43.013c-2.3,0-3.619,2.127-3.619,3.961h7.281
	C33.943,45.057,32.879,43.013,30.408,43.013"/>
<g>
	<defs>
		<path id="SVGID_12_" d="M162.483,1.401l-0.003,0.001c-2.26,0.627-4.216,1.346-5.898,2.114c-1.707,0.782-3.135,1.621-4.324,2.481
			c-1.248,0.904-2.392,2.028-2.71,3.266c-0.321,1.234,0.136,2.773,0.788,4.164c0.634,1.32,1.473,2.742,2.581,4.251
			c-0.042-0.429-0.029-0.841,0.054-1.224c0.263-1.204,1.287-2.286,2.402-3.145c0.811-0.624,1.747-1.232,2.827-1.807
			c1.742-0.933,3.851-1.784,6.39-2.489h0.004c2.542-0.704,4.789-1.063,6.764-1.159c0.038-1.227-0.021-2.342-0.154-3.355
			c-0.187-1.398-0.612-2.822-1.525-3.656c-0.29-0.266-0.649-0.487-1.051-0.666C166.786,0.383,164.744,0.775,162.483,1.401"/>
	</defs>
	<clipPath id="SVGID_13_">
		<use xlink:href="#SVGID_12_"  overflow="visible"/>
	</clipPath>
	
		<linearGradient id="SVGID_14_" gradientUnits="userSpaceOnUse" x1="-165.9894" y1="267.5589" x2="-164.4575" y2="267.5589" gradientTransform="matrix(18.993 -5.2666 -5.2666 -18.993 4711.6597 4219.3623)">
		<stop  offset="0" style="stop-color:#E12729"/>
		<stop  offset="0.3273" style="stop-color:#DE2629"/>
		<stop  offset="0.453" style="stop-color:#D62628"/>
		<stop  offset="0.5441" style="stop-color:#C92427"/>
		<stop  offset="0.6184" style="stop-color:#B72325"/>
		<stop  offset="0.6825" style="stop-color:#A12021"/>
		<stop  offset="0.7385" style="stop-color:#871B1C"/>
		<stop  offset="0.7747" style="stop-color:#731616"/>
		<stop  offset="1" style="stop-color:#731616"/>
	</linearGradient>
	<polygon clip-path="url(#SVGID_13_)" fill="url(#SVGID_14_)" points="144.721,1.427 169.811,-5.53 175.9,16.429 150.81,23.385 	"/>
</g>
<g>
	<defs>
		<path id="SVGID_15_" d="M168.627,0.177c0.401,0.179,0.76,0.4,1.051,0.666c0.912,0.833,1.337,2.258,1.525,3.656
			c0.133,1.013,0.192,2.128,0.154,3.355c-0.066,1.97-0.383,4.221-1.045,6.773v0.002c-0.661,2.557-1.475,4.681-2.373,6.436
			c1.036,0.646,2.031,1.154,2.971,1.542c1.305,0.538,2.753,0.88,3.928,0.507c0.38-0.119,0.75-0.319,1.107-0.578
			c0.739-1.697,1.421-3.657,2.007-5.924c0.591-2.283,0.94-4.34,1.107-6.191c0.172-1.859,0.158-3.507,0.024-4.966
			c-0.141-1.53-0.561-3.084-1.469-3.976c-0.909-0.894-2.474-1.27-4.006-1.403c-0.598-0.05-1.233-0.078-1.897-0.078
			C170.753-0.002,169.725,0.054,168.627,0.177"/>
	</defs>
	<clipPath id="SVGID_16_">
		<use xlink:href="#SVGID_15_"  overflow="visible"/>
	</clipPath>
	
		<linearGradient id="SVGID_17_" gradientUnits="userSpaceOnUse" x1="-146.9972" y1="309.0553" x2="-145.4663" y2="309.0553" gradientTransform="matrix(-5.0891 19.0199 19.0199 5.0891 -6449.6792 1223.5127)">
		<stop  offset="0" style="stop-color:#1D7DBC"/>
		<stop  offset="0.1716" style="stop-color:#1F7BB8"/>
		<stop  offset="0.2955" style="stop-color:#2576AE"/>
		<stop  offset="0.4045" style="stop-color:#2B6EA0"/>
		<stop  offset="0.5048" style="stop-color:#2F648C"/>
		<stop  offset="0.5992" style="stop-color:#305674"/>
		<stop  offset="0.6893" style="stop-color:#2C4559"/>
		<stop  offset="0.7759" style="stop-color:#23313B"/>
		<stop  offset="0.8576" style="stop-color:#12171B"/>
		<stop  offset="0.8956" style="stop-color:#010101"/>
		<stop  offset="1" style="stop-color:#010101"/>
	</linearGradient>
	<polygon clip-path="url(#SVGID_16_)" fill="url(#SVGID_17_)" points="185.095,1.567 178.476,26.306 162.073,21.917 168.694,-2.822 
			"/>
</g>
<g>
	<defs>
		<path id="SVGID_18_" d="M155.372,13.309c-1.116,0.859-2.139,1.941-2.402,3.145c-0.083,0.383-0.095,0.795-0.054,1.224
			c1.098,1.498,2.454,3.079,4.134,4.731c1.669,1.64,3.267,2.972,4.771,4.044c1.519,1.077,2.95,1.892,4.278,2.49
			c1.415,0.637,2.981,1.078,4.221,0.733c1.241-0.344,2.356-1.527,3.241-2.799c0.83-1.202,1.635-2.633,2.383-4.342
			c-0.357,0.259-0.726,0.459-1.107,0.578c-1.175,0.373-2.623,0.031-3.928-0.507c-0.94-0.389-1.935-0.896-2.971-1.542
			c-1.68-1.042-3.472-2.442-5.352-4.292h-0.005c-1.879-1.849-3.31-3.618-4.383-5.27C157.119,12.077,156.183,12.685,155.372,13.309"
			/>
	</defs>
	<clipPath id="SVGID_19_">
		<use xlink:href="#SVGID_18_"  overflow="visible"/>
	</clipPath>
	
		<linearGradient id="SVGID_20_" gradientUnits="userSpaceOnUse" x1="-138.26" y1="276.2741" x2="-136.7288" y2="276.2741" gradientTransform="matrix(11.5591 9.5318 9.5318 -11.5591 -880.2533 4524.3315)">
		<stop  offset="0" style="stop-color:#78797B"/>
		<stop  offset="0.1991" style="stop-color:#959496"/>
		<stop  offset="0.4145" style="stop-color:#B1B0B2"/>
		<stop  offset="0.624" style="stop-color:#C7C7C8"/>
		<stop  offset="0.8229" style="stop-color:#D6D7D8"/>
		<stop  offset="1" style="stop-color:#DCDDDE"/>
	</linearGradient>
	<polygon clip-path="url(#SVGID_19_)" fill="url(#SVGID_20_)" points="162.211,0.179 185.035,18.999 166.605,41.347 143.783,22.527 
			"/>
</g>
</svg>
