<?xml version="1.0" encoding="UTF-8" standalone="no"?>
<svg width="246px" height="60px" viewBox="0 0 246 60" version="1.1" xmlns="http://www.w3.org/2000/svg" xmlns:xlink="http://www.w3.org/1999/xlink">
    <!-- Generator: Sketch 3.8.3 (29802) - http://www.bohemiancoding.com/sketch -->
    <title>Fill 1</title>
    <desc>Created with Sketch.</desc>
    <defs></defs>
    <g id="Page-1" stroke="none" stroke-width="1" fill="none" fill-rule="evenodd">
        <g id="Splash_DesignServices" transform="translate(-210.000000, -3029.000000)" fill="#175085">
            <g id="customers" transform="translate(0.000000, 1701.000000)">
                <g id="hospital" transform="translate(170.000000, 1010.000000)">
                    <path d="M77.2069375,318.989428 C76.4689717,318.991259 75.8324761,319.620063 75.8380109,320.339481 C75.8444681,321.070798 76.4754289,321.687703 77.2124723,321.684957 C77.9439809,321.681296 78.5684845,321.048831 78.5629498,320.317514 C78.5564926,319.598096 77.9329114,318.987598 77.2069375,318.989428 L77.2069375,318.989428 Z M76.4579022,325.14933 C76.3905628,325.163059 76.3167662,325.347032 76.3158437,325.452291 C76.3093865,330.357329 76.310309,335.262368 76.310309,340.167407 C76.310309,340.187543 76.3121539,340.207679 76.310309,340.2269 C76.2872476,340.412704 76.3804158,340.464876 76.5547602,340.460299 C76.9117512,340.451146 77.2696646,340.457553 77.6266556,340.457553 C78.028847,340.457553 78.0297694,340.457553 78.0297694,340.05208 L78.0297694,325.306759 L78.0297694,324.890303 C77.466148,324.97817 76.9587965,325.046817 76.4579022,325.14933 L76.4579022,325.14933 Z M159.214315,340.062148 C159.215238,336.722255 159.207858,333.382362 159.229075,330.042469 C159.231842,329.63242 159.316708,329.187589 159.49382,328.819642 C160.085115,327.588577 161.628386,326.372157 163.405039,326.647659 C163.497285,326.662304 163.667939,326.615624 163.693768,326.553384 C163.909623,326.029838 164.099649,325.495309 164.321962,324.899455 C161.998292,324.48666 160.564793,325.784541 159.209703,327.364331 C159.199556,327.221546 159.198634,327.129102 159.184797,327.037573 C159.104543,326.504874 159.049196,325.966683 158.929276,325.442222 C158.801055,324.879319 158.772458,324.878404 158.226364,325.00929 C157.838009,325.101734 157.454267,325.216146 157.054843,325.32415 C157.43305,326.176285 157.527141,327.040319 157.531753,327.904352 C157.552047,331.933458 157.54559,335.96348 157.54928,339.992586 C157.54928,340.081369 157.525296,340.179305 157.55666,340.25619 C157.588946,340.333989 157.672889,340.445655 157.736539,340.448401 C158.211604,340.464876 158.68667,340.456638 159.214315,340.456638 L159.214315,340.062148 L159.214315,340.062148 Z M116.794193,321.146767 C116.829247,324.190106 116.810797,327.23436 116.813565,330.278614 C116.816332,333.018077 116.816332,335.756624 116.827402,338.495172 C116.829247,339.012311 116.96577,339.49833 117.245275,339.948652 C117.778455,340.809025 119.50714,340.868519 120.244184,340.387991 C120.191604,340.229646 120.135334,340.063979 120.079986,339.899227 C120.020949,339.724406 119.961912,339.550501 119.901952,339.372935 C119.77373,339.381172 119.665803,339.38941 119.556953,339.394902 C118.927837,339.426937 118.633573,339.196284 118.566234,338.568395 C118.519188,338.129056 118.497972,337.684225 118.497049,337.243055 C118.488747,331.754977 118.497972,326.267814 118.469376,320.780651 C118.464763,319.980687 118.292264,319.180724 118.177879,318.384422 C118.164042,318.287401 118.00907,318.125395 117.940808,318.134548 C117.443603,318.20594 116.951933,318.313029 116.525758,318.395405 C116.623539,319.351883 116.784046,320.248867 116.794193,321.146767 L116.794193,321.146767 Z M143.433838,331.592971 C143.181085,331.595716 143.113745,331.519747 143.131272,331.271704 C143.219828,330.020502 143.468891,328.818727 144.197633,327.763398 C144.955893,326.665965 146.012106,326.132351 147.356127,326.153403 C149.28683,326.185438 150.591184,327.375315 150.955555,329.173859 C151.095769,329.863988 151.11514,330.577914 151.199084,331.279941 C151.229525,331.536223 151.119752,331.594801 150.879914,331.592971 C149.639208,331.582902 148.398503,331.588394 147.156876,331.588394 C145.916171,331.588394 144.675466,331.581987 143.433838,331.592971 L143.433838,331.592971 Z M151.016437,338.648025 C149.856908,339.288728 148.604211,339.450735 147.304469,339.287813 C145.742749,339.092856 144.550011,338.340488 143.830495,336.930026 C143.227208,335.748387 143.110056,334.468811 143.103598,333.168185 C143.101753,332.904581 143.190309,332.834104 143.447675,332.835934 C144.956815,332.846002 146.465955,332.840511 147.976018,332.840511 C149.554342,332.840511 151.133589,332.839595 152.711914,332.843257 C152.891793,332.843257 153.013557,332.830443 153.01079,332.597959 C152.994186,331.306485 152.985884,330.004027 152.600296,328.763809 C151.930592,326.608302 150.498016,325.243604 148.195563,324.901286 C146.24641,324.610224 144.603514,325.224383 143.250269,326.627523 C141.837987,328.092902 141.314031,329.909752 141.207949,331.872134 C141.124927,333.413482 141.256839,334.938355 141.773415,336.410141 C142.592557,338.745961 144.118301,340.288225 146.667973,340.664409 C148.356993,340.913368 149.966681,340.658002 151.471209,339.853462 C151.890927,339.628301 152.269134,339.329001 152.672248,339.059906 C152.424107,338.670908 152.213787,338.341403 151.998854,338.005492 C151.656623,338.230653 151.349444,338.464052 151.016437,338.648025 L151.016437,338.648025 Z M61.6838258,331.593886 C61.43015,331.595716 61.3683454,331.522493 61.3867945,331.272619 C61.4781178,329.992129 61.7419406,328.76564 62.4974331,327.692005 C63.9825894,325.581346 67.2905214,325.62528 68.6603705,327.775296 C69.1760241,328.586243 69.3309969,329.50611 69.4204753,330.439705 C69.448149,330.723445 69.4315448,331.010846 69.4582961,331.294586 C69.480435,331.537138 69.3817321,331.593886 69.1529627,331.592971 C67.903033,331.583818 66.6531034,331.588394 65.4031737,331.588394 C64.1633911,331.588394 62.9236084,331.581987 61.6838258,331.593886 L61.6838258,331.593886 Z M69.3356092,338.61416 C68.076455,339.329001 66.7102957,339.493753 65.3081606,339.253947 C63.6505048,338.969292 62.4918984,338.035696 61.8766194,336.456821 C61.4679708,335.408814 61.3784924,334.318704 61.3581984,333.212118 C61.3526636,332.904581 61.4550564,332.834104 61.7502427,332.835019 C64.6200074,332.845087 67.4897721,332.841426 70.3586144,332.839595 C70.6445762,332.839595 71.0532248,332.925633 71.1823688,332.779186 C71.3345742,332.608027 71.263545,332.223605 71.2524755,331.933458 C71.2063527,330.704224 71.1380908,329.47682 70.702691,328.303419 C69.6169587,325.378152 66.4317136,324.148918 63.6375904,325.186856 C62.3793586,325.653654 61.4550564,326.519519 60.72816,327.610544 C59.9846594,328.728113 59.64704,329.976569 59.5215858,331.298247 C59.3297147,333.316461 59.4846876,335.287996 60.3305809,337.158849 C61.312998,339.332662 63.0176991,340.531692 65.4087084,340.73031 C66.6798546,340.836483 67.9205597,340.658917 69.1022275,340.160084 C69.7608621,339.881836 70.3613818,339.509313 70.9102439,339.032447 C70.6879317,338.683722 70.4776114,338.353302 70.2534543,338.000915 C69.924137,338.222415 69.6427875,338.439339 69.3356092,338.61416 L69.3356092,338.61416 Z M102.601265,331.594801 C102.313458,331.598462 102.249809,331.508764 102.270103,331.239669 C102.367883,329.979314 102.622481,328.76564 103.369672,327.711226 C104.271835,326.438973 105.556818,325.968514 107.061346,326.194591 C108.607385,326.426159 109.587957,327.364331 110.021512,328.859915 C110.253971,329.661709 110.327767,330.480893 110.340682,331.310146 C110.344372,331.54263 110.258583,331.592971 110.046418,331.592055 C108.795566,331.584733 107.544714,331.588394 106.293862,331.588394 C105.062381,331.588394 103.831823,331.579241 102.601265,331.594801 L102.601265,331.594801 Z M111.138607,338.003661 C110.796376,338.229738 110.49012,338.463137 110.15619,338.648025 C109.007731,339.283236 107.767026,339.447073 106.476508,339.291474 C104.902796,339.101094 103.699912,338.354217 102.973938,336.930941 C102.380798,335.769438 102.241507,334.513661 102.252576,333.232255 C102.256266,332.842341 102.253499,332.841426 102.645543,332.841426 C105.683195,332.840511 108.720847,332.841426 111.758499,332.840511 C111.88303,332.840511 112.00664,332.828612 112.146853,332.82129 C112.146853,332.532058 112.157,332.275777 112.145008,332.022242 C112.084126,330.754565 112.033391,329.487804 111.576775,328.27779 C110.489197,325.393712 107.367602,324.165393 104.579936,325.163974 C103.08002,325.702165 102.050558,326.77763 101.3006,328.139582 C100.750816,329.139994 100.506364,330.222782 100.402127,331.349503 C100.21948,333.337513 100.374453,335.278843 101.19913,337.123152 C102.203686,339.369274 103.960967,340.57288 106.430385,340.740378 C107.479219,340.810855 108.510527,340.682715 109.505858,340.345888 C110.345294,340.061233 111.107244,339.631962 111.79263,339.032447 C111.57124,338.684637 111.358152,338.34781 111.138607,338.003661 L111.138607,338.003661 Z M93.2604622,336.220676 C93.2927482,336.912636 93.0206233,337.414214 92.5713866,337.870029 C91.7863754,338.667246 90.8288647,339.10567 89.709924,339.217336 C88.9175331,339.296966 88.1399016,339.253032 87.4074705,338.933596 C86.1842921,338.400897 85.4758449,337.426113 85.1631319,336.168505 C84.7295769,334.420301 84.6889888,332.6483 84.9352849,330.86623 C85.0699637,329.889616 85.3854441,328.98531 85.9223142,328.150565 C86.6925661,326.952451 87.7930577,326.327308 89.2090297,326.300764 C90.357489,326.279713 91.4561357,326.508535 92.4016544,327.220631 C92.433018,327.244428 92.4662264,327.266395 92.4966675,327.291108 C93.0040191,327.694751 93.3093524,328.145073 93.2650745,328.865407 C93.1912779,330.072674 93.2447804,331.287264 93.2447804,332.498192 C93.2447804,333.739325 93.2041923,334.982289 93.2604622,336.220676 L93.2604622,336.220676 Z M95.1487323,339.65759 C95.0583315,338.609583 94.9310324,337.559746 94.9264201,336.509908 C94.9033587,330.577914 94.9116608,324.64592 94.9098159,318.713926 C94.9098159,318.635211 94.9273426,318.550089 94.9033587,318.479612 C94.8812197,318.410965 94.8240273,318.313944 94.766835,318.302961 C94.2834674,318.208686 93.7964099,318.129971 93.2632296,318.038442 L93.2632296,326.827056 C93.1838982,326.76207 93.1488449,326.741934 93.1239385,326.712645 C92.2660532,325.699419 91.1544921,325.174958 89.8501375,324.980001 C87.8456377,324.679786 86.2580887,325.437646 84.9463544,326.866413 C83.8587772,328.051714 83.2997681,329.482312 83.0866804,331.058441 C82.8062534,333.127912 82.9132585,335.160771 83.6964247,337.122237 C84.1742576,338.317606 84.9306726,339.292389 86.0735972,339.938584 C87.1528723,340.549082 88.3271605,340.722072 89.5448041,340.644273 C90.5115394,340.583863 91.4229272,340.324836 92.1977914,339.723491 C92.5750764,339.430598 92.9108509,339.085534 93.2844461,338.745961 C93.3047401,338.83566 93.3268791,338.927189 93.3453283,339.019633 C93.4246596,339.414123 93.4929214,339.811359 93.588857,340.202188 C93.6119184,340.297378 93.718001,340.441078 93.7917976,340.443824 C94.2945368,340.465791 94.799121,340.455723 95.3525954,340.455723 C95.2714191,340.14727 95.1699488,339.905634 95.1487323,339.65759 L95.1487323,339.65759 Z M126.313953,328.855338 C126.315798,328.684179 126.377602,328.479154 126.483685,328.348268 C127.434738,327.183104 128.665296,326.492975 130.177204,326.403277 C132.158642,326.285204 133.743424,327.270056 134.359625,329.306576 C134.79318,330.739005 134.813474,332.211707 134.696322,333.692646 C134.621603,334.627157 134.466631,335.540616 134.176979,336.434854 C133.571847,338.302046 131.818256,339.479109 129.854344,339.258524 C128.532463,339.109331 127.386771,338.554666 126.512281,337.531372 C126.396974,337.396824 126.317643,337.185392 126.315798,337.008741 C126.299193,335.640383 126.306573,334.271109 126.306573,332.90275 C126.306573,331.553613 126.300116,330.204476 126.313953,328.855338 L126.313953,328.855338 Z M126.473538,338.875932 C127.363709,339.869022 128.469735,340.467622 129.792539,340.669901 C131.680809,340.959132 133.281273,340.405382 134.569023,339.014141 C135.838325,337.640291 136.337374,335.937852 136.500649,334.139307 C136.589205,333.163608 136.552306,332.173264 136.512641,331.192074 C136.462828,329.950025 136.143658,328.76564 135.540371,327.670953 C134.222179,325.281131 131.839472,324.543408 129.476136,325.036749 C128.372877,325.267402 127.459645,325.8779 126.670021,326.668711 C126.576853,326.76207 126.480918,326.852684 126.337014,326.992723 C126.325945,326.838955 126.31672,326.765732 126.31672,326.691593 C126.322255,325.34154 126.341626,323.991488 126.331479,322.64235 C126.323177,321.638277 126.301038,320.632374 126.236466,319.631047 C126.201413,319.08828 126.062122,318.552835 125.968031,318 C125.409945,318.11075 124.914585,318.203194 124.42476,318.31486 C124.374947,318.325843 124.31591,318.459476 124.324212,318.528122 C124.431217,319.365613 124.645227,320.200357 124.64984,321.036017 C124.680281,326.474669 124.671979,331.913322 124.658142,337.351975 C124.656297,338.057663 124.564974,338.765182 124.483797,339.468125 C124.446899,339.791222 124.334359,340.106082 124.248571,340.457553 C124.722714,340.457553 125.168261,340.450231 125.613808,340.461215 C125.802911,340.465791 125.915451,340.401721 125.963419,340.220493 C126.087028,339.749119 126.213405,339.277745 126.347161,338.775251 C126.385904,338.805455 126.43664,338.834744 126.473538,338.875932 L126.473538,338.875932 Z M40.792935,319.833326 C40.7920125,326.552469 40.7920125,333.271612 40.7920125,339.990756 C40.7920125,340.069471 40.7984697,340.149101 40.79109,340.2269 C40.7744858,340.409958 40.8602743,340.465791 41.0373861,340.460299 C41.3943771,340.450231 41.7541355,340.435586 42.1092815,340.464876 C42.4210721,340.490504 42.4865666,340.378838 42.4856441,340.085946 C42.4754971,336.834836 42.4791869,333.583726 42.4791869,330.332616 C42.4791869,329.952771 42.4801094,329.951856 42.8721537,329.951856 C45.8609155,329.951856 48.8496772,329.956432 51.8375164,329.945449 C52.1308578,329.944533 52.2000421,330.035147 52.1991197,330.313395 C52.1880502,332.49087 52.1926625,334.668345 52.1926625,336.844904 C52.1926625,337.948744 52.1981972,339.051668 52.1889726,340.155508 C52.1862053,340.386161 52.2572345,340.472198 52.494306,340.46213 C52.84115,340.445655 53.1889164,340.457553 53.5366828,340.457553 C53.9499437,340.457553 53.9499437,340.457553 53.9499437,340.035605 L53.9499437,319.818681 C53.9499437,319.750034 53.9453314,319.680472 53.9499437,319.611826 C53.9628581,319.432429 53.8789144,319.370189 53.7018026,319.37385 C53.3245176,319.383003 52.9453876,319.395817 52.5699475,319.370189 C52.2719938,319.350053 52.1843604,319.43609 52.1852828,319.742712 C52.1981972,322.550821 52.1889726,325.358931 52.1981972,328.166125 C52.1991197,328.439797 52.1197883,328.514851 51.846741,328.513935 C48.8478322,328.504782 45.849846,328.503867 42.8509372,328.514851 C42.5456039,328.516681 42.4708848,328.432474 42.4727297,328.135005 C42.4837992,325.356185 42.4791869,322.57828 42.4791869,319.800375 C42.4791869,319.711592 42.4976361,319.614571 42.4681174,319.536772 C42.4441336,319.472701 42.3620349,319.385749 42.30392,319.384834 C41.8187075,319.37202 41.3334949,319.377511 40.8169188,319.377511 C40.8076943,319.545009 40.792935,319.689625 40.792935,319.833326 L40.792935,319.833326 Z M174.244835,332.375543 C173.854635,332.829527 173.353741,333.103199 172.77536,333.263375 C172.122261,333.444602 171.458091,333.455586 170.804069,333.353988 C169.585503,333.165439 168.538514,332.469818 168.154772,331.137156 C167.845748,330.064436 167.903863,329.01826 168.375239,328.006865 C168.759904,327.182188 169.42315,326.687932 170.305942,326.441719 C171.204416,326.190014 172.099199,326.200082 172.968154,326.482907 C174.042817,326.832548 174.67839,327.616036 174.909927,328.707977 C174.991103,329.090568 175.020621,329.483227 175.074124,329.87131 C175.031691,330.790261 174.863804,331.65521 174.244835,332.375543 L174.244835,332.375543 Z M178.664328,325.478834 C178.257524,325.060546 178.257524,325.061462 177.734491,325.347032 C177.70036,325.366253 177.660694,325.376321 177.625641,325.393712 C176.553746,325.920004 175.466168,325.788202 174.387816,325.438561 C173.499489,325.15116 172.61762,324.887557 171.666567,324.894879 C170.681382,324.901286 169.731251,325.035834 168.84108,325.46785 C167.289507,326.221134 166.41594,327.465928 166.13828,329.145485 C165.825567,331.035559 166.766473,332.965905 168.462872,333.869297 C168.828166,334.064253 169.213753,334.222599 169.636238,334.418471 C169.503404,334.468811 169.410236,334.49627 169.324448,334.538374 C168.741455,334.823029 168.122486,335.056428 167.586538,335.41156 C166.656701,336.02572 166.456528,337.291566 167.109628,338.111665 C167.53857,338.649856 168.153849,338.858542 168.812484,338.890577 C169.564286,338.928104 170.318857,338.896984 171.072504,338.897899 C172.142555,338.898815 173.21445,338.836575 174.272509,339.09011 C175.306583,339.339069 176.025178,339.909295 176.24011,340.972862 C176.364642,341.584275 176.338813,342.203927 176.13864,342.809849 C175.920017,343.468857 175.523361,343.987827 174.886865,344.267905 C174.413645,344.475676 173.911828,344.655988 173.404476,344.743856 C171.967288,344.992815 170.539324,344.911354 169.154715,344.422589 C167.641885,343.887145 166.986018,342.460208 167.556097,340.975608 C167.616979,340.816347 167.671404,340.655256 167.741511,340.461215 C167.295964,340.496911 166.891928,340.548167 166.487891,340.556405 C166.140125,340.563727 165.953789,340.690952 165.862465,341.040593 C165.562667,342.190197 165.59403,343.284884 166.349523,344.268821 C167.075497,345.214315 168.117873,345.647247 169.234969,345.890714 C170.886168,346.249508 172.555816,346.331884 174.227308,345.998719 C176.126648,345.620704 177.551844,344.698092 178.006616,342.697268 C178.203099,341.829573 178.230773,340.950895 177.906068,340.108828 C177.314773,338.578463 176.08606,337.837078 174.521572,337.65219 C173.541,337.535948 172.541056,337.571644 171.550337,337.548762 C170.895392,337.534117 170.238603,337.561576 169.585503,337.524049 C169.148258,337.498421 168.723005,337.351975 168.583714,336.875109 C168.449958,336.42021 168.743299,336.115418 169.059702,335.841746 C169.112282,335.796897 169.166707,335.750217 169.22759,335.720013 C169.76446,335.450002 170.29764,335.169924 170.844657,334.92188 C171.128774,334.791909 171.433185,334.679328 171.740363,334.630818 C172.188678,334.559425 172.649906,334.574985 173.100988,334.514576 C173.703352,334.43403 174.277121,334.239989 174.794619,333.921468 C175.995659,333.183744 176.67182,332.100041 176.906124,330.723445 C177.144118,329.323967 176.871071,328.067274 175.898801,326.991808 C175.859135,326.947874 175.832384,326.892957 175.773347,326.802343 C177.067554,327.111711 178.191107,326.866413 179.236251,326.067365 C179.032388,325.857764 178.847897,325.668299 178.664328,325.478834 L178.664328,325.478834 Z M139.116738,351.376047 C139.111203,352.489955 140.031815,353.424466 141.121238,353.412567 C142.225419,353.400668 143.143264,352.485378 143.151566,351.388861 C143.159868,350.253901 142.262317,349.34868 141.131385,349.349595 C140.028126,349.35051 139.12135,350.262139 139.116738,351.376047 L139.116738,351.376047 Z M76.3259908,351.364148 C76.3167662,352.482632 77.2124723,353.407075 78.3101965,353.412567 C79.4171452,353.417143 80.352517,352.492701 80.3589742,351.386115 C80.3654314,350.249325 79.4743376,349.349595 78.3434049,349.349595 C77.2373786,349.349595 76.3352153,350.25024 76.3259908,351.364148 L76.3259908,351.364148 Z M142.36471,355.77493 C141.532654,355.903986 140.70152,356.042195 139.868541,356.162098 C139.640694,356.195048 139.639771,356.331426 139.639771,356.498009 C139.640694,361.392064 139.642539,366.28612 139.636081,371.180175 C139.635159,371.438287 139.733862,371.493204 139.967243,371.489543 C140.692295,371.477644 141.416424,371.484966 142.141475,371.484966 C142.566728,371.484966 142.567651,371.484966 142.567651,371.074001 L142.567651,356.154776 L142.567651,355.774015 C142.461568,355.774015 142.411755,355.767608 142.36471,355.77493 L142.36471,355.77493 Z M79.779671,356.093451 C79.779671,355.74381 79.7667566,355.745641 79.4282147,355.802389 C78.676412,355.926868 77.9227644,356.047687 77.1663494,356.149284 C76.9357351,356.180404 76.8444118,356.253627 76.8444118,356.496179 C76.850869,361.391149 76.8499465,366.28612 76.8453342,371.182005 C76.8453342,371.408082 76.9071389,371.494119 77.1479002,371.489543 C77.8923233,371.476729 78.6376688,371.484966 79.3820919,371.484966 C79.779671,371.484966 79.779671,371.484051 79.779671,371.074916 C79.7805934,368.59265 79.779671,366.111299 79.779671,363.629033 C79.779671,361.117477 79.7805934,358.605922 79.779671,356.093451 L79.779671,356.093451 Z M114.876404,357.118576 C115.178048,358.202279 115.206644,359.314356 115.206644,360.428264 C115.207567,363.993318 115.210334,367.559288 115.201109,371.124342 C115.201109,371.406251 115.275828,371.499611 115.566403,371.491373 C116.261013,371.471237 116.956546,371.484966 117.651156,371.484966 C118.05058,371.484966 118.051503,371.484051 118.051503,371.075832 C118.051503,367.993135 118.05427,364.910439 118.049658,361.826827 C118.048735,360.946318 118.283039,360.154592 118.900163,359.504737 C119.656578,358.707519 120.594717,358.328589 121.685984,358.507071 C122.061425,358.56931 122.129686,358.451238 122.22101,358.170244 C122.445167,357.488353 122.693308,356.8147 122.930379,356.137385 C122.969123,356.028466 123.000486,355.918631 123.041074,355.787744 C122.285582,355.547023 121.566987,355.605602 120.855773,355.826186 C119.967446,356.100773 119.267301,356.655439 118.662169,357.339161 C118.424175,357.608256 118.200941,357.890165 117.935273,358.207771 C117.916824,358.073223 117.911289,357.998169 117.89653,357.924946 C117.765541,357.271429 117.638242,356.616997 117.497106,355.965311 C117.450983,355.752048 117.355047,355.621162 117.07831,355.730081 C116.805263,355.838085 116.504542,355.876527 116.216735,355.950666 C115.702926,356.083383 115.189118,356.218846 114.644868,356.361631 C114.734346,356.650863 114.81091,356.882431 114.876404,357.118576 L114.876404,357.118576 Z M154.20814,369.818223 C154.178621,369.655302 154.126963,369.556451 153.93417,369.637911 C153.388075,369.868564 152.813384,369.863073 152.235926,369.833783 C151.587438,369.800833 151.053336,369.460345 150.898363,368.929477 C150.796892,368.582582 150.709259,368.217381 150.707414,367.860418 C150.689887,364.698092 150.695422,361.53668 150.68712,358.375269 C150.686197,358.153769 150.759072,358.085122 150.978616,358.087868 C151.793146,358.097936 152.606754,358.081461 153.420361,358.097936 C153.674037,358.103428 153.794879,358.014645 153.876055,357.784907 C154.03195,357.340076 154.216442,356.904398 154.385251,356.463228 C154.42215,356.368038 154.440599,356.265526 154.479342,356.12274 L154.077151,356.12274 C153.084587,356.12274 152.092022,356.114503 151.099458,356.128232 C150.829178,356.131893 150.731398,356.059585 150.75077,355.779507 C150.834713,354.531967 150.902975,353.283511 150.974004,352.035971 C150.983229,351.883117 150.975849,351.730264 150.975849,351.554528 C150.851317,351.569173 150.752614,351.571919 150.658524,351.593886 C149.878125,351.775113 149.100493,351.968239 148.316405,352.136653 C148.114386,352.180587 148.067341,352.273946 148.059039,352.455174 C148.011994,353.566336 147.948344,354.676582 147.909601,355.787744 C147.901299,356.038534 147.843184,356.141046 147.573827,356.128232 C147.157798,356.108096 146.739925,356.130063 146.322974,356.119995 C146.119111,356.115418 146.040702,356.186811 146.045315,356.394581 C146.056384,356.866871 146.059152,357.340076 146.044392,357.812366 C146.037935,358.040273 146.127413,358.102512 146.341424,358.09519 C146.717786,358.083291 147.095994,358.091529 147.473279,358.092444 C147.900376,358.092444 147.901299,358.092444 147.901299,358.506155 C147.901299,361.568715 147.898531,364.632191 147.904066,367.695666 C147.904989,368.197245 147.928973,368.699739 147.967716,369.200403 C148.054427,370.306073 148.809919,371.21221 149.861521,371.584733 C150.714794,371.886779 151.584671,371.945357 152.469307,371.857489 C153.17222,371.787927 153.842846,371.590225 154.479342,371.248822 C154.383406,370.746327 154.292083,370.283191 154.20814,369.818223 L154.20814,369.818223 Z M89.4442563,368.037069 C89.2533076,367.335042 89.0872653,366.625692 88.8714103,365.931902 C88.4839782,364.683447 88.0697949,363.442314 87.6629912,362.200265 C86.9803728,360.11615 86.2940645,358.034781 85.613291,355.950666 C85.5597885,355.785914 85.463853,355.731912 85.3033454,355.756624 C85.0681188,355.793236 84.8328921,355.826186 84.5976655,355.863713 C83.9436433,355.966226 83.2905435,356.070569 82.6153048,356.177658 C82.6817217,356.39092 82.7324568,356.578555 82.7988738,356.761613 C83.7342455,359.361951 84.6723846,361.96229 85.6077563,364.562629 C86.4195187,366.821564 87.2312812,369.079584 88.0328966,371.342181 C88.1020809,371.535307 88.1961715,371.603039 88.3954223,371.601208 C89.1001797,371.592971 89.8058595,371.590225 90.5106169,371.603039 C90.7292393,371.6067 90.8251749,371.522493 90.8952816,371.326621 C91.4856543,369.679099 92.0815617,368.033408 92.6839264,366.389547 C93.8702065,363.148506 95.0629438,359.91021 96.2501463,356.670084 C96.3091836,356.508993 96.3497717,356.341495 96.4014293,356.168505 C96.3285552,356.147453 96.2916569,356.128232 96.2538362,356.128232 C95.3802691,356.125486 94.506702,356.117249 93.6331349,356.135554 C93.5408892,356.137385 93.4015982,356.277424 93.3674672,356.380852 C92.4689938,359.056245 91.5714428,361.732552 90.6969533,364.416182 C90.2864598,365.675621 89.9239341,366.95062 89.5291223,368.253078 C89.4986813,368.175278 89.4636279,368.108462 89.4442563,368.037069 L89.4442563,368.037069 Z M124.519773,370.383873 C126.731826,371.570088 129.065643,372.176926 131.588564,371.777859 C133.803384,371.427303 135.833712,370.004027 136.164874,367.443046 C136.331839,366.154318 136.073551,364.970848 135.159396,363.989657 C134.343944,363.11464 133.273893,362.721065 132.140193,362.451055 C131.22696,362.233216 130.309115,362.028191 129.406952,361.769164 C128.876539,361.617226 128.417155,361.320672 128.165325,360.787973 C127.674577,359.750034 128.217905,358.345064 129.28242,357.899318 C130.141228,357.538694 131.032322,357.513066 131.906811,357.759279 C132.692745,357.979864 133.453772,358.295639 134.213877,358.5986 C134.436189,358.687383 134.524745,358.660839 134.617914,358.452153 C134.828234,357.985355 135.041321,357.517642 135.289462,357.070065 C135.444435,356.789987 135.371561,356.665507 135.102204,356.537367 C133.105084,355.582719 131.02402,355.197382 128.835029,355.668757 C127.747451,355.903071 126.785328,356.408311 126.051052,357.265022 C125.110146,358.36154 124.821417,359.642945 125.03266,361.047 C125.162726,361.907373 125.521562,362.656995 126.161747,363.269324 C126.881264,363.957622 127.766823,364.293533 128.716032,364.508627 C129.679999,364.726466 130.661494,364.887557 131.604245,365.174958 C133.296955,365.689351 133.523879,367.294769 132.927972,368.453526 C132.395714,369.49055 131.404072,369.79168 130.326642,369.793511 C129.123758,369.796256 127.974376,369.487804 126.877574,368.999954 C126.374835,368.775708 125.879475,368.535902 125.352752,368.289689 C125.020668,368.945037 124.692273,369.592147 124.351886,370.264885 C124.423838,370.316141 124.468116,370.356414 124.519773,370.383873 L124.519773,370.383873 Z M62.3341582,357.704361 C62.3341582,357.063658 62.1893324,356.454075 61.9172075,355.877443 C61.8793867,355.797812 61.7400957,355.692554 61.6764461,355.708114 C60.9108066,355.904901 60.1525467,356.130063 59.3869071,356.32685 C59.1747419,356.381767 59.1775093,356.465059 59.2310118,356.639879 C59.3629232,357.070981 59.5335778,357.502998 59.5797007,357.946913 C59.6673341,358.796302 59.713457,359.653929 59.7162243,360.50881 C59.7309837,364.055558 59.7245265,367.603222 59.7171468,371.14997 C59.7171468,371.401675 59.778029,371.496865 60.048309,371.490458 C60.7835075,371.473983 61.5177835,371.479475 62.252982,371.488628 C62.4540777,371.491373 62.5546255,371.437371 62.5297192,371.224109 C62.5204946,371.146309 62.5278742,371.066679 62.5278742,370.987964 C62.5278742,367.470505 62.5269518,363.953046 62.5324865,360.435586 C62.5324865,360.297378 62.5454009,360.110659 62.6321119,360.028282 C63.6560395,359.043431 64.8109561,358.276418 66.2776632,358.160176 C67.2674599,358.081461 68.1225779,358.478697 68.3135265,359.57979 C68.4186867,360.186628 68.443593,360.812686 68.4463604,361.430507 C68.4583523,364.66148 68.455585,367.893369 68.4463604,371.125257 C68.4454379,371.406251 68.520157,371.500526 68.8116535,371.491373 C69.4961168,371.471237 70.1815026,371.484966 70.8668884,371.484966 C71.253398,371.484966 71.2543205,371.484051 71.2543205,371.095968 C71.2543205,367.411011 71.2552429,363.726054 71.253398,360.041097 C71.2524755,359.775662 71.2487857,359.508398 71.2201895,359.244794 C71.1288663,358.382591 70.8678108,357.578051 70.2313153,356.9584 C68.897442,355.660519 67.2988235,355.525056 65.5895101,355.998261 C64.5757295,356.28017 63.7353709,356.873278 62.9374453,357.532287 C62.7658682,357.674157 62.5887564,357.81145 62.3618319,357.992678 C62.3470726,357.838909 62.3341582,357.771178 62.3341582,357.704361 L62.3341582,357.704361 Z M158.663608,377.576221 C158.865627,377.989017 158.869316,377.999085 159.306561,377.89108 C160.30466,377.644868 161.209591,377.201867 161.956781,376.498009 C162.855254,375.652281 163.408729,374.570409 163.820145,373.440026 C164.711239,370.988879 165.54514,368.517596 166.392878,366.051805 C167.398357,363.1302 168.393688,360.205849 169.391787,357.281497 C169.517241,356.915381 169.631626,356.545604 169.75339,356.168505 C169.665757,356.145623 169.628858,356.127317 169.591038,356.127317 C168.667658,356.124571 167.743356,356.119079 166.819976,356.133724 C166.736032,356.134639 166.605966,356.259119 166.57737,356.350648 C166.046957,358.070477 165.519311,359.792138 165.009192,361.517459 C164.29152,363.942062 163.58953,366.370326 162.876471,368.795845 C162.856177,368.864491 162.78238,368.917578 162.73349,368.977987 C162.685522,368.912086 162.612648,368.853508 162.593277,368.779369 C162.113599,367.01469 161.672664,365.239028 161.157933,363.484417 C160.457788,361.096426 159.702295,358.72491 158.971709,356.345156 C158.74663,355.612924 158.833341,355.706283 158.164559,355.857306 C157.423826,356.024804 156.68217,356.191387 155.93498,356.360716 C155.945127,356.431193 155.945127,356.470551 155.957119,356.506247 C156.448788,357.959727 156.951528,359.409546 157.432128,360.867603 C158.575975,364.342044 159.944902,367.746922 160.756664,371.326621 C160.799097,371.509679 160.883041,371.588394 161.093361,371.54263 C161.347037,371.487712 161.609937,371.474898 161.900511,371.440117 C161.383935,373.698137 160.433804,375.526887 157.9773,376.172166 C158.223596,376.675575 158.442219,377.125898 158.663608,377.576221 L158.663608,377.576221 Z M107.501358,362.315592 C105.607553,362.315592 103.712826,362.3101 101.819021,362.321084 C101.530292,362.322914 101.445426,362.241453 101.459263,361.954052 C101.504463,361.013134 101.642832,360.102421 102.109595,359.259439 C103.175033,357.336415 105.907352,357.239394 107.100089,359.099263 C107.717213,360.061233 107.871264,361.144021 107.864806,362.315592 L107.501358,362.315592 L107.501358,362.315592 Z M109.302917,368.278706 C109.238345,368.32447 109.177463,368.374811 109.114736,368.422406 C107.640649,369.558281 105.998675,369.948195 104.194349,369.425564 C102.964713,369.069516 102.129889,368.257654 101.712939,367.041234 C101.466642,366.321816 101.449116,365.573109 101.418675,364.825317 C101.400226,364.397877 101.40207,364.397877 101.823633,364.397877 C104.722917,364.397877 107.6222,364.394215 110.521483,364.403368 C110.786229,364.404284 110.856335,364.328314 110.853568,364.070203 C110.838809,362.847375 110.796376,361.628209 110.554692,360.424603 C110.347139,359.38758 109.956017,358.431102 109.256795,357.614663 C108.088964,356.24905 106.586281,355.632145 104.798558,355.633976 C103.560621,355.635806 102.390945,355.881104 101.367017,356.601437 C99.5294821,357.896572 98.5941104,359.713423 98.333055,361.89822 C98.2048334,362.976431 98.1965313,364.057389 98.3182957,365.140177 C98.4714236,366.498467 98.8385616,367.784449 99.5783723,368.946867 C100.512822,370.414992 101.864222,371.308315 103.561543,371.657041 C104.780109,371.90783 106.009745,371.867558 107.222776,371.569173 C108.385995,371.282687 109.425604,370.749073 110.340682,369.98206 C110.398797,369.934465 110.439385,369.780697 110.406176,369.725779 C110.100843,369.220539 109.77706,368.727198 109.445898,368.209144 C109.373024,368.243925 109.335203,368.256739 109.302917,368.278706 L109.302917,368.278706 Z M54.3447554,358.723994 C54.3447554,356.054094 54.3401431,353.383278 54.3512126,350.713377 C54.3530575,350.411331 54.2645016,350.324379 53.9637805,350.333532 C53.2295045,350.353668 52.494306,350.339939 51.7591075,350.339939 C51.3762877,350.339939 51.3753653,350.339939 51.3753653,350.727106 C51.3753653,355.180907 51.3799776,359.634708 51.370753,364.088509 C51.3689081,364.785959 51.3366221,365.487987 51.2563683,366.179946 C51.1096976,367.453114 50.5017982,368.44895 49.2620156,368.928562 C47.901391,369.454853 46.5084805,369.437463 45.1247945,368.977987 C44.270599,368.694247 43.5972052,368.184431 43.3684358,367.287447 C43.201471,366.63393 43.0677147,365.952954 43.0557228,365.282047 C43.0095999,362.523363 43.0114448,359.764679 43.0031427,357.005995 C42.9966855,354.888014 42.9976079,352.769118 43.0068325,350.650222 C43.007755,350.402178 42.9302686,350.330786 42.6858174,350.335362 C41.9008062,350.348176 41.115795,350.351837 40.3317063,350.333532 C40.0586589,350.327125 39.9931645,350.426891 40.0005441,350.67585 C40.0162259,351.168276 40.0051564,351.660702 40.0051564,352.153128 C40.0106912,356.823852 40.0125361,361.494577 40.0263729,366.164386 C40.0282178,366.615624 40.0420547,367.081507 40.153672,367.514439 C40.6711706,369.528992 42.0022765,370.779278 43.9763352,371.389776 C45.2437915,371.78152 46.5463012,371.848336 47.8617254,371.78152 C49.1863741,371.713789 50.4547529,371.432795 51.5976775,370.739005 C52.6972466,370.071759 53.5772709,369.19125 54.0486466,367.975745 C54.341988,367.217885 54.3281512,366.407853 54.3327634,365.611551 C54.3447554,363.316004 54.3364533,361.019541 54.3364533,358.723994 L54.3447554,358.723994 L54.3447554,358.723994 Z M248.723116,349.431971 C247.570044,349.410004 246.646665,350.290513 246.626371,351.43188 C246.606999,352.551279 247.499015,353.48579 248.599507,353.497689 C249.691696,353.510503 250.628913,352.597959 250.652897,351.499611 C250.677803,350.389364 249.803314,349.452107 248.723116,349.431971 L248.723116,349.431971 Z M250.080051,356.158437 C250.080973,355.887511 250.009022,355.827102 249.734129,355.877443 C248.984172,356.015651 248.229601,356.129147 247.473186,356.227999 C247.221356,356.260034 247.133722,356.351563 247.142024,356.600522 C247.156784,357.081964 247.145714,357.565237 247.145714,358.047595 C247.145714,362.429088 247.149404,366.811496 247.139257,371.192989 C247.138334,371.49595 247.225045,371.578326 247.523922,371.569173 C248.248051,371.548121 248.973102,371.548121 249.697231,371.569173 C249.995185,371.577411 250.084663,371.499611 250.082818,371.194819 C250.069904,368.7034 250.075439,366.211981 250.075439,363.720562 C250.075439,361.199854 250.072671,358.679145 250.080051,356.158437 L250.080051,356.158437 Z M285.383415,370.055284 C285.376035,370.02691 285.376035,369.982976 285.357586,369.972907 C285.256116,369.91799 285.151878,369.832868 285.045795,369.828292 C284.46926,369.803579 284.105811,369.517093 284.035705,368.946867 C283.975745,368.470001 283.940692,367.986728 283.940692,367.506201 C283.931467,362.178298 283.938847,356.850396 283.920398,351.522493 C283.91763,350.806737 283.796788,350.09281 283.735906,349.377969 C283.716534,349.158299 283.611374,349.093314 283.399209,349.137248 C282.574532,349.310238 281.749855,349.475905 280.925179,349.644318 C280.755446,349.679099 280.72316,349.766967 280.742532,349.942703 C280.845847,350.890028 280.999898,351.840099 281.006355,352.79017 C281.038641,357.783076 281.031261,362.775983 281.042331,367.768889 C281.044176,368.289689 281.038641,368.816896 281.106903,369.331289 C281.258186,370.470825 281.843946,371.316553 282.961964,371.71745 C283.571709,371.936204 284.215584,371.897762 284.846545,371.804403 C285.162948,371.757723 285.469203,371.644227 285.798521,371.556359 C285.650005,371.019084 285.517171,370.536726 285.383415,370.055284 L285.383415,370.055284 Z M256.087093,352.214452 C255.880462,352.260217 255.81958,352.354492 255.811278,352.55311 C255.767923,353.664272 255.704273,354.775434 255.664607,355.886596 C255.656305,356.124571 255.591733,356.221592 255.340825,356.212439 C254.91465,356.196879 254.487552,356.214269 254.060454,356.206032 C253.867661,356.202371 253.797554,356.277424 253.800321,356.467805 C253.809546,356.950162 253.811391,357.433436 253.800321,357.915793 C253.794786,358.128141 253.883342,358.19038 254.082593,358.184889 C254.470025,358.175736 254.857457,358.182143 255.243967,358.183058 C255.655383,358.183058 255.656305,358.183058 255.656305,358.583955 C255.656305,361.242872 255.651693,363.902705 255.659073,366.562537 C255.660918,367.428401 255.67291,368.296096 255.717188,369.161045 C255.757776,369.959178 256.051117,370.651137 256.710674,371.160038 C257.350859,371.654295 258.091593,371.906915 258.882139,371.943527 C259.529704,371.973731 260.192028,371.933458 260.833136,371.831861 C261.317426,371.754977 261.778655,371.531646 262.245418,371.375132 C262.139335,370.825958 262.041555,370.354583 261.959456,369.879548 C261.926248,369.690083 261.838614,369.652556 261.672572,369.723033 C261.11633,369.958263 260.531492,369.959178 259.945732,369.911583 C259.196697,369.850259 258.753917,369.485973 258.574038,368.772962 C258.504854,368.49746 258.456886,368.209144 258.455963,367.926319 C258.444894,364.774976 258.447661,361.622717 258.438437,358.471374 C258.437514,358.226077 258.53345,358.17482 258.754839,358.178482 C259.370118,358.19038 259.985398,358.183058 260.600677,358.183058 C261.484391,358.183058 261.485313,358.183058 261.810018,357.382179 C261.924403,357.099355 262.038788,356.81653 262.147637,356.53096 C262.180846,356.443092 262.196528,356.347902 262.231581,356.208778 L261.845071,356.208778 C260.832213,356.208778 259.820278,356.203286 258.80742,356.212439 C258.57496,356.214269 258.491017,356.141961 258.505776,355.905817 C258.58234,354.687566 258.648757,353.4684 258.718864,352.250149 C258.730856,352.056107 258.741925,351.862981 258.757607,351.602123 C257.82039,351.819047 256.955125,352.025903 256.087093,352.214452 L256.087093,352.214452 Z M214.332985,370.42323 C214.374496,370.450689 214.417851,370.474486 214.461207,370.498284 C215.767406,371.207634 217.151092,371.6845 218.631636,371.882202 C219.996873,372.064345 221.336281,372.012173 222.651705,371.55819 C224.851766,370.799414 226.15612,368.953274 226.078634,366.640337 C226.029744,365.193263 225.358195,364.094 224.118412,363.331564 C223.100942,362.705505 221.934033,362.541669 220.805868,362.250606 C220.147233,362.080362 219.488599,361.895474 218.855793,361.653837 C218.397332,361.479017 218.078162,361.112901 217.958242,360.617729 C217.616011,359.203606 218.426851,358.011899 219.876953,357.765686 C221.081683,357.561576 222.197856,357.87369 223.294658,358.312114 C223.649804,358.454899 223.994803,358.620567 224.367476,358.785319 C224.608237,358.290147 224.836084,357.823349 225.063931,357.356551 C225.342513,356.784495 225.342513,356.78358 224.764132,356.518146 C223.052974,355.730996 221.266174,355.400577 219.383439,355.635806 C218.233134,355.779507 217.184301,356.168505 216.32457,356.953824 C215.010069,358.154684 214.638318,359.667658 214.958411,361.368267 C215.101392,362.127958 215.458383,362.789712 216.025694,363.337056 C216.860518,364.143426 217.913964,364.451879 219.010766,364.682532 C219.852047,364.859183 220.713622,364.990069 221.520772,365.270148 C222.959806,365.768981 223.275286,366.784953 223.016076,367.998627 C222.775314,369.129925 221.8464,369.697405 220.791109,369.830122 C219.653719,369.973823 218.555995,369.757814 217.498858,369.362409 C216.741521,369.0805 216.00909,368.73452 215.222234,368.398609 C214.906753,369.020091 214.575591,369.673608 214.237972,370.339939 C214.288707,370.384788 214.309001,370.40767 214.332985,370.42323 L214.332985,370.42323 Z M201.331872,360.149101 C201.650119,359.199945 202.188834,358.402728 203.203537,358.125395 C205.013399,357.628392 206.758688,358.063155 207.489274,360.19395 C208.01323,361.721569 208.039981,363.304105 207.986479,364.892133 C207.94958,365.979498 207.79184,367.043064 207.321387,368.044392 C206.641536,369.49055 205.291981,370.020502 203.775461,369.757814 C202.50247,369.537229 201.803247,368.729944 201.407513,367.58034 C200.968423,366.30351 200.9223,364.977255 200.905696,363.461535 C200.905696,362.464784 200.950897,361.284976 201.331872,360.149101 L201.331872,360.149101 Z M197.777643,364.631275 C197.867122,366.233948 198.216733,367.764313 199.079231,369.147316 C199.728641,370.189831 200.612355,370.977896 201.7479,371.460254 C203.019968,372.000275 204.350152,372.098211 205.710776,371.873049 C207.552924,371.568258 208.951369,370.61361 209.927329,369.045719 C210.66714,367.857672 211.009371,366.546062 211.129291,365.164889 C211.296255,363.244611 211.118221,361.371013 210.3369,359.587113 C209.755752,358.259027 208.86927,357.189053 207.556613,356.504416 C206.312219,355.855476 204.98388,355.676994 203.604806,355.819779 C201.607686,356.02755 200.075485,356.990435 199.030341,358.686467 C198.007335,360.347719 197.737978,362.193858 197.775799,364.100407 C197.775799,364.277974 197.767496,364.45554 197.777643,364.631275 L197.777643,364.631275 Z M273.16639,367.748753 C273.163623,367.877809 273.1175,368.02334 273.045548,368.130429 C272.220871,369.354171 271.114845,370.062606 269.578031,369.938126 C268.555026,369.85575 267.862261,369.283694 267.616887,368.29335 C267.413946,367.475081 267.411179,366.648574 267.759868,365.861425 C268.187888,364.897625 268.986736,364.410691 269.991292,364.183699 C270.989391,363.958537 271.996714,363.9503 273.010495,363.989657 C273.207901,363.99698 273.263248,364.077525 273.259558,364.263329 C273.251256,364.843623 273.256791,365.425747 273.256791,366.006041 L273.171925,366.006041 C273.171925,366.58725 273.179305,367.168459 273.16639,367.748753 L273.16639,367.748753 Z M273.803808,370.129422 C273.841629,370.209052 273.876682,370.290513 273.913581,370.371059 C274.267804,371.129834 274.808364,371.710128 275.563857,372.090888 C275.741891,372.181502 275.86181,372.176926 275.990954,372.00119 C276.347023,371.516086 276.716006,371.03922 277.092368,370.569676 C277.239962,370.384788 277.248264,370.274038 277.033331,370.126676 C276.537972,369.786188 276.24094,369.305661 276.149617,368.711638 C276.101649,368.391286 276.045379,368.067274 276.049069,367.745092 C276.069363,365.667384 276.107184,363.589676 276.133935,361.511967 C276.14685,360.55732 276.198507,359.598096 275.967893,358.659009 C275.639498,357.319024 274.772388,356.464144 273.469879,356.046771 C272.051139,355.591872 270.604726,355.683401 269.171227,355.958903 C267.695296,356.242643 266.3605,356.893414 265.069982,357.642122 C264.908552,357.735481 264.898405,357.82518 264.993418,357.971626 C265.337495,358.501579 265.678804,359.033362 266.012734,359.568807 C266.114204,359.730813 266.201837,359.747288 266.368802,359.64203 C266.785753,359.376596 267.203626,359.108416 267.646406,358.889662 C268.844678,358.296554 270.102909,357.955151 271.460767,358.066816 C272.352783,358.140955 272.988356,358.599515 273.147941,359.465379 C273.28262,360.194865 273.28262,360.949064 273.32413,361.69411 C273.346269,362.079447 273.32782,362.072125 272.935776,362.063887 C271.200634,362.025445 269.483941,362.133449 267.838277,362.742117 C266.695352,363.164066 265.719392,363.812091 265.069982,364.869251 C264.355078,366.031669 264.237003,367.303007 264.46854,368.604549 C264.707457,369.94911 265.456492,370.946776 266.733173,371.517917 C267.353064,371.796165 268.008931,371.935289 268.685092,371.990206 C270.121359,372.106448 271.473681,371.868473 272.663651,371.017253 C273.046471,370.742666 273.383168,370.404924 273.754918,370.084573 C273.776134,370.103794 273.795506,370.113862 273.803808,370.129422 L273.803808,370.129422 Z M232.189914,360.380669 C232.188069,360.167407 232.254486,360.013638 232.402079,359.858954 C233.18709,359.038854 234.088331,358.429271 235.24048,358.250789 C237.053109,357.969795 238.282744,358.761521 238.765189,360.530777 C239.208891,362.159993 239.229185,363.817583 239.0696,365.485241 C238.981967,366.403277 238.777181,367.287447 238.312263,368.10114 C237.648094,369.263558 236.368645,369.730356 235.145467,369.573841 C233.99793,369.426479 233.097612,368.820557 232.310756,368.024255 C232.228657,367.941879 232.199138,367.778042 232.198216,367.651732 C232.190836,366.42982 232.193603,365.207908 232.193603,363.986911 C232.193603,362.785136 232.198216,361.582445 232.189914,360.380669 L232.189914,360.380669 Z M232.42145,370.513844 C233.136355,371.077662 233.921366,371.495035 234.818917,371.70189 C236.034716,371.981969 237.220073,371.913322 238.3713,371.430049 C239.794652,370.831449 240.703272,369.734017 241.313017,368.366574 C241.996557,366.835294 242.2078,365.214315 242.203188,363.55581 C242.197653,361.922933 241.960582,360.33765 241.212469,358.862203 C240.53354,357.522219 239.529907,356.498925 238.065044,356.065077 C235.873286,355.416137 233.955497,355.954327 232.355956,357.580797 C232.26371,357.675072 232.196371,357.79406 232.117962,357.902064 C232.081064,357.877351 232.044165,357.852638 232.007267,357.82701 C232.007267,357.723582 232.013724,357.619239 232.006345,357.515812 C231.970369,357.024301 231.938083,356.533706 231.889193,356.044025 C231.876278,355.908563 231.867054,355.727335 231.635517,355.765777 C230.854195,355.894833 230.071029,356.018397 229.291553,356.162098 C229.220524,356.174912 229.117208,356.317697 229.123666,356.392751 C229.206687,357.43069 229.384721,358.467713 229.389333,359.505652 C229.417007,365.524598 229.405937,371.54446 229.407782,377.563407 L229.407782,378 C229.559065,377.983525 229.666993,377.983525 229.770308,377.960643 C230.48429,377.799552 231.196427,377.630223 231.910409,377.470047 C232.112427,377.425198 232.200983,377.338245 232.200061,377.110338 C232.188991,375.336506 232.193603,373.56359 232.192681,371.790673 L232.192681,370.363736 C232.279392,370.419569 232.355034,370.460757 232.42145,370.513844 L232.42145,370.513844 Z M193.878416,371.545375 L190.897957,371.545375 L190.897957,371.154547 C190.897034,368.090156 190.897957,365.025765 190.897034,361.961375 C190.897034,361.540341 190.896112,361.539426 190.474549,361.539426 L183.145626,361.539426 C182.754504,361.540341 182.753581,361.541257 182.753581,361.932085 C182.753581,364.996476 182.753581,368.060867 182.752659,371.125257 C182.752659,371.259805 182.740667,371.395268 182.733287,371.561851 L181.223224,371.561851 C180.835792,371.561851 180.44836,371.555444 180.061851,371.564597 C179.867212,371.570088 179.785114,371.498696 179.807253,371.306485 C179.81371,371.247906 179.808175,371.188412 179.808175,371.128919 C179.807253,364.36035 179.807253,357.590865 179.808175,350.822296 C179.808175,350.430552 179.808175,350.429637 180.190072,350.429637 C180.925271,350.428722 181.659547,350.442451 182.394745,350.42323 C182.690854,350.414992 182.759116,350.520251 182.758193,350.796668 C182.749891,353.447348 182.758193,356.097112 182.747124,358.747792 C182.746202,359.040685 182.815386,359.131298 183.125331,359.129468 C185.607664,359.115738 188.089997,359.117569 190.572329,359.127637 C190.837075,359.129468 190.904414,359.05716 190.903492,358.797218 C190.893345,356.137385 190.897034,353.476637 190.897957,350.816805 C190.897957,350.430552 190.898879,350.429637 191.293691,350.429637 C192.048261,350.428722 192.803754,350.436959 193.557401,350.425061 C193.80462,350.420484 193.884874,350.500114 193.883029,350.745412 C193.872882,352.035971 193.878416,353.32653 193.878416,354.617088 L193.878416,371.081324 L193.878416,371.545375 Z" id="Fill-1"></path>
                </g>
            </g>
        </g>
    </g>
</svg>