<?xml version="1.0" encoding="utf-8"?>
<!-- Generator: Adobe Illustrator 19.1.0, SVG Export Plug-In . SVG Version: 6.00 Build 0)  -->
<svg version="1.1" id="Layer_1" xmlns="http://www.w3.org/2000/svg" xmlns:xlink="http://www.w3.org/1999/xlink" x="0px" y="0px"
	 width="66.205px" height="60px" viewBox="0 0 66.205 60" enable-background="new 0 0 66.205 60" xml:space="preserve">
<g>
	<path fill="#D92827" d="M66.205,0.063c-2.262,1.234-4.535,2.448-6.784,3.705c-7.535,4.215-14.993,8.559-21.994,13.634
		c-2.588,1.876-5.141,3.809-7.211,6.272c-0.635,0.755-1.172,1.632-1.574,2.533c-0.509,1.142-0.118,2.056,0.973,2.682
		c1.159,0.665,2.457,0.83,3.753,0.921c3.313,0.233,6.614-0.01,9.884-0.502c4.549-0.684,9.078-1.495,13.615-2.251
		c0.053-0.009,0.108-0.001,0.182,0.06c-1.2,0.471-2.396,0.951-3.601,1.41c-7.611,2.907-15.29,5.611-23.18,7.676
		c-3.215,0.841-6.456,1.565-9.77,1.898c-1.592,0.16-3.191,0.255-4.772-0.062c-0.61-0.122-1.227-0.323-1.777-0.609
		c-1.067-0.556-1.421-1.459-1.121-2.624c0.3-1.163,0.988-2.114,1.737-3.016c2.21-2.663,4.874-4.835,7.612-6.914
		c7.067-5.367,14.62-9.979,22.346-14.317c6.297-3.536,12.7-6.862,19.369-9.653C64.646,0.591,65.408,0.301,66.165,0
		C66.179,0.021,66.192,0.042,66.205,0.063z"/>
	<path fill="#E16025" d="M29.183,19.276c-0.661-0.136-1.337-0.225-1.982-0.416c-2.306-0.68-2.736-2.033-1.083-3.765
		c0.99-1.038,2.138-1.957,3.327-2.765c3.925-2.666,8.195-4.712,12.481-6.719c1.627-0.762,3.268-1.492,4.902-2.237
		c-0.138-0.028-0.259-0.004-0.376,0.032c-4.559,1.396-9.055,2.97-13.446,4.829c-3.557,1.505-7.049,3.144-10.22,5.383
		c-1.247,0.881-2.437,1.836-3.313,3.109c-0.687,1-0.463,1.807,0.7,2.155c0.984,0.294,2.027,0.484,3.051,0.525
		c1.982,0.08,3.969,0.023,5.953,0.023C29.18,19.379,29.182,19.327,29.183,19.276z"/>
	<path fill="#FAED26" d="M21.233,6.387C-4.338,10.465-4.463,18.65,8.468,17.145C1.39,16.365,3.786,11.857,21.233,6.387z"/>
	<path fill="#ED9B21" d="M32.827,4.994C5.626,11.014,1.668,19.82,18.669,18.371C10.169,17.513,10.029,12.797,32.827,4.994z"/>
	<path fill="#5A5757" d="M6.59,59.729c-0.263,0.131-0.788,0.263-1.461,0.263c-1.56,0-2.734-0.985-2.734-2.8
		c0-1.732,1.174-2.907,2.89-2.907c0.69,0,1.125,0.148,1.314,0.246l-0.172,0.583c-0.271-0.131-0.657-0.23-1.117-0.23
		c-1.297,0-2.159,0.829-2.159,2.282c0,1.355,0.78,2.225,2.126,2.225c0.435,0,0.879-0.09,1.166-0.23L6.59,59.729z M7.501,54.08h0.722
		v2.48H8.24c0.115-0.205,0.296-0.386,0.517-0.509c0.213-0.123,0.468-0.205,0.739-0.205c0.534,0,1.388,0.328,1.388,1.7v2.365h-0.722
		v-2.282c0-0.64-0.238-1.182-0.92-1.182c-0.468,0-0.837,0.328-0.969,0.722c-0.041,0.099-0.049,0.205-0.049,0.345v2.397H7.501V54.08z
		 M12.903,54.819c0.008,0.246-0.172,0.443-0.46,0.443c-0.255,0-0.435-0.197-0.435-0.443c0-0.254,0.189-0.451,0.452-0.451
		C12.731,54.368,12.903,54.565,12.903,54.819z M12.099,59.91v-3.974h0.722v3.974H12.099z M14.061,57.011
		c0-0.411-0.008-0.747-0.033-1.076h0.64l0.041,0.657h0.016c0.197-0.378,0.657-0.747,1.314-0.747c0.55,0,1.404,0.328,1.404,1.691
		v2.373h-0.722v-2.291c0-0.64-0.238-1.174-0.92-1.174c-0.476,0-0.846,0.337-0.969,0.739c-0.033,0.09-0.049,0.214-0.049,0.337v2.389
		h-0.722V57.011z M20.859,59.91l-0.057-0.501h-0.025C20.556,59.721,20.129,60,19.562,60c-0.805,0-1.215-0.566-1.215-1.141
		c0-0.961,0.854-1.486,2.389-1.478v-0.082c0-0.328-0.09-0.92-0.903-0.92c-0.369,0-0.755,0.115-1.035,0.296l-0.164-0.476
		c0.328-0.213,0.805-0.353,1.305-0.353c1.215,0,1.511,0.829,1.511,1.626v1.486c0,0.345,0.016,0.681,0.066,0.952H20.859z
		 M20.753,57.882c-0.788-0.016-1.683,0.123-1.683,0.895c0,0.468,0.312,0.69,0.681,0.69c0.517,0,0.846-0.328,0.961-0.665
		c0.025-0.074,0.041-0.156,0.041-0.23V57.882z M28.676,59.663c-0.32,0.115-0.952,0.304-1.7,0.304c-0.837,0-1.527-0.213-2.069-0.731
		c-0.476-0.46-0.772-1.199-0.772-2.061c0.008-1.65,1.141-2.857,2.997-2.857c0.64,0,1.141,0.14,1.379,0.254l-0.172,0.583
		c-0.296-0.131-0.665-0.238-1.223-0.238c-1.347,0-2.225,0.837-2.225,2.225c0,1.404,0.846,2.233,2.135,2.233
		c0.468,0,0.788-0.066,0.952-0.148v-1.65h-1.125v-0.575h1.823V59.663z M29.784,57.176c0-0.468-0.008-0.87-0.033-1.24h0.632
		l0.025,0.78h0.033c0.181-0.534,0.616-0.87,1.1-0.87c0.082,0,0.14,0.008,0.205,0.025v0.681c-0.074-0.016-0.148-0.025-0.246-0.025
		c-0.509,0-0.87,0.386-0.969,0.928c-0.016,0.098-0.033,0.213-0.033,0.337v2.118h-0.714V57.176z M34.67,59.91l-0.057-0.501h-0.025
		C34.366,59.721,33.939,60,33.372,60c-0.805,0-1.215-0.566-1.215-1.141c0-0.961,0.854-1.486,2.389-1.478v-0.082
		c0-0.328-0.09-0.92-0.903-0.92c-0.369,0-0.755,0.115-1.035,0.296l-0.164-0.476c0.328-0.213,0.805-0.353,1.305-0.353
		c1.215,0,1.511,0.829,1.511,1.626v1.486c0,0.345,0.016,0.681,0.066,0.952H34.67z M34.563,57.882
		c-0.788-0.016-1.683,0.123-1.683,0.895c0,0.468,0.312,0.69,0.681,0.69c0.517,0,0.846-0.328,0.961-0.665
		c0.025-0.074,0.041-0.156,0.041-0.23V57.882z M36.468,57.011c0-0.411-0.008-0.747-0.033-1.076h0.64l0.041,0.657h0.016
		c0.197-0.378,0.657-0.747,1.314-0.747c0.55,0,1.404,0.328,1.404,1.691v2.373h-0.722v-2.291c0-0.64-0.238-1.174-0.92-1.174
		c-0.476,0-0.846,0.337-0.969,0.739c-0.033,0.09-0.049,0.214-0.049,0.337v2.389h-0.722V57.011z M44.498,54.08v4.803
		c0,0.353,0.008,0.755,0.033,1.026h-0.649l-0.033-0.69h-0.016C43.611,59.663,43.126,60,42.478,60c-0.961,0-1.7-0.813-1.7-2.02
		c-0.008-1.322,0.813-2.135,1.782-2.135c0.607,0,1.018,0.287,1.199,0.608h0.016V54.08H44.498z M43.775,57.553
		c0-0.09-0.008-0.213-0.033-0.304c-0.107-0.46-0.501-0.837-1.043-0.837c-0.747,0-1.19,0.657-1.19,1.535
		c0,0.805,0.394,1.47,1.174,1.47c0.484,0,0.928-0.32,1.059-0.862c0.025-0.099,0.033-0.197,0.033-0.312V57.553z M48.439,58.169
		l-0.575,1.741h-0.739l1.88-5.534h0.862l1.888,5.534h-0.763l-0.591-1.741H48.439z M50.253,57.611l-0.542-1.593
		c-0.123-0.361-0.205-0.69-0.287-1.01h-0.016c-0.082,0.328-0.172,0.665-0.279,1.002l-0.542,1.601H50.253z M55.812,58.826
		c0,0.411,0.008,0.772,0.033,1.084h-0.64l-0.041-0.649h-0.016C54.958,59.581,54.539,60,53.833,60c-0.624,0-1.371-0.345-1.371-1.741
		v-2.324h0.722v2.2c0,0.755,0.23,1.264,0.887,1.264c0.484,0,0.821-0.337,0.952-0.657c0.041-0.107,0.066-0.238,0.066-0.369v-2.438
		h0.722V58.826z M57.922,54.795v1.141h1.035v0.55h-1.035v2.143c0,0.493,0.14,0.772,0.542,0.772c0.189,0,0.328-0.025,0.419-0.049
		l0.033,0.542c-0.14,0.057-0.361,0.099-0.64,0.099c-0.337,0-0.608-0.107-0.78-0.304c-0.205-0.213-0.279-0.566-0.279-1.035v-2.167
		H56.6v-0.55h0.616v-0.952L57.922,54.795z M63.357,57.89c0,1.47-1.018,2.11-1.979,2.11c-1.076,0-1.905-0.788-1.905-2.044
		c0-1.33,0.87-2.11,1.97-2.11C62.585,55.846,63.357,56.675,63.357,57.89z M60.205,57.931c0,0.87,0.501,1.527,1.207,1.527
		c0.69,0,1.207-0.649,1.207-1.544c0-0.673-0.337-1.527-1.191-1.527C60.574,56.387,60.205,57.176,60.205,57.931z M15.372,52.382
		h5.985v-0.795h-5.191v-6.862h5.191v-0.795h-5.985V52.382z M8.545,44.431c-0.218-0.435-1.42-1.283-1.42-1.283l-0.481,0.584
		c0.358,0.332,0.676,0.738,0.887,1.032H3.764v4.203c0,1.034-0.374,2.033-1.052,2.812L2.41,52.125l0.599,0.522l0.301-0.346
		c0.805-0.925,1.248-2.109,1.248-3.334v-3.408h7.228v-0.795H8.205L8.545,44.431z M14.071,45.393l0.766-0.794
		c-0.785-0.744-1.779-1.073-1.779-1.073l-0.473,0.571C13.318,44.573,14.071,45.393,14.071,45.393z M13.464,48.015l0.716-0.747
		c-0.877-0.816-1.835-1.059-1.835-1.059l-0.334,0.554C13.095,47.396,13.464,48.015,13.464,48.015z M24.614,45.534l0.766-0.794
		c-0.785-0.744-1.779-1.073-1.779-1.073l-0.473,0.571C23.862,44.714,24.614,45.534,24.614,45.534z M24.008,48.157l0.716-0.747
		c-0.877-0.816-1.835-1.059-1.835-1.059l-0.334,0.554C23.639,47.538,24.008,48.157,24.008,48.157z M12.243,51.437l0.58,0.95
		c2.004-1.6,2.467-3.466,2.467-3.466l-0.513-0.397C14.021,50.675,12.243,51.437,12.243,51.437z M22.814,51.437l0.58,0.95
		c2.004-1.6,2.467-3.466,2.467-3.466l-0.513-0.397C24.592,50.675,22.814,51.437,22.814,51.437z M31.042,51.786
		c-0.132-0.096-0.391-0.589-0.391-1.476v-2.723h-5.016v0.795h4.221v1.929c0,1.332,0.484,2.27,1.177,2.282c0.004,0,0.009,0,0.013,0
		c0.42,0,1.12-0.35,1.199-2.637l-0.794-0.027C31.407,51.21,31.154,51.688,31.042,51.786z M25.701,47.082
		c0.47-0.723,0.865-1.42,1.172-1.998h4.975v-0.795h-4.57c0.212-0.433,0.325-0.697,0.325-0.697l-0.694-0.273
		c-0.641,1.703-1.84,3.101-1.84,3.101L25.701,47.082z M31.109,46.749v-0.795h-4.383v0.795H31.109z M38.834,48.381h2.645v-0.795
		h-2.645v-1.678h-0.795v1.678h-2.593l1.116-2.121h5.744v-0.795h-5.326l0.563-1.07l-0.703-0.37l-0.757,1.44h-2.194v0.795h1.776
		l-1.073,2.04v0.876h3.449v1.621h-4.616v0.795h4.616v1.892h0.795v-1.892h3.747v-0.795h-3.747V48.381z M44.224,49.141
		c0,0.892-0.187,1.757-0.557,2.569l-0.082,0.181l0.724,0.329l0.082-0.181c0.417-0.916,0.628-1.892,0.628-2.898v-0.009h1.262v2.271
		c0,0.085-0.069,0.155-0.155,0.155h-0.814v0.795h0.814c0.524,0,0.949-0.426,0.949-0.949v-7.938h-2.852V49.141z M45.019,48.337v-1.65
		h1.262v1.65H45.019z M46.281,44.259v1.633h-1.262v-1.633H46.281z M51.114,50.245c0.639-0.845,1.133-1.798,1.448-2.815l0.159-0.515
		h-4.207v-2.656h3.27v0.455c0,0.439-0.357,0.796-0.796,0.796h-1.404v0.795h1.404c0.877,0,1.591-0.714,1.591-1.591v-1.25h-4.86v8.907
		h0.795V47.71h0.46c0.17,0.91,0.557,1.775,1.115,2.535c-0.433,0.493-0.923,0.937-1.463,1.317l-0.025,0.018l0.458,0.649l0.025-0.017
		c0.557-0.392,1.065-0.846,1.519-1.349c0.594,0.634,1.318,1.168,2.141,1.553l0.337-0.72C52.318,51.339,51.652,50.839,51.114,50.245z
		 M49.787,47.71h1.838c-0.258,0.672-0.602,1.307-1.02,1.89C50.212,49.021,49.932,48.381,49.787,47.71z M60.147,46.702
		c1.37-0.808,2.046-1.629,2.203-1.837h0.673V44.07H57.33c0.082-0.165,0.158-0.333,0.227-0.505l-0.737-0.298
		c-0.458,1.133-1.219,2.116-2.201,2.843l-0.079,0.059l0.473,0.639l0.079-0.059c0.584-0.432,1.097-0.946,1.528-1.523
		c0.298,0.358,0.842,0.9,1.725,1.433c-2.06,0.836-4.044,1.036-4.044,1.036l0.464,0.679c1.899-0.2,3.387-0.676,4.526-1.217
		c1.038,0.474,2.399,0.884,4.164,1.069l0.556-0.992C64.012,47.233,62.099,47.38,60.147,46.702z M57.362,44.865h3.897
		c-0.608,0.582-1.334,1.048-2.085,1.421C58.51,45.945,57.881,45.485,57.362,44.865z M58.8,47.805h-0.718
		c0.006,0.313-0.018,0.602-0.062,0.872h-2.862v0.795h2.646c-0.835,2.15-3.264,2.584-3.264,2.584l0.635,0.711
		c2.27-0.75,3.139-2.167,3.463-3.295h3.074v1.231c0,0.615-0.501,1.116-1.116,1.116h-1.561v0.795h1.561
		c1.054,0,1.911-0.857,1.911-1.911v-2.025h-3.712C58.85,48.155,58.8,47.805,58.8,47.805z"/>
</g>
</svg>
